<svg width="108" height="47" viewBox="0 0 108 47" fill="none" xmlns="http://www.w3.org/2000/svg">
<path d="M1.80469 5.54688C1.49219 5.65104 1.25781 5.66406 1.10156 5.58594C0.945312 5.50781 0.828125 5.3776 0.75 5.19531C0.671875 5.01302 0.632812 4.81771 0.632812 4.60938C0.632812 4.375 0.645833 4.15365 0.671875 3.94531C0.697917 3.76302 0.736979 3.55469 0.789062 3.32031C0.867188 3.08594 0.958333 2.86458 1.0625 2.65625C1.16667 2.44792 1.28385 2.27865 1.41406 2.14844C1.57031 1.99219 1.76562 1.88802 2 1.83594C3.19792 1.6276 4.35677 1.47135 5.47656 1.36719C6.6224 1.26302 7.65104 1.1849 8.5625 1.13281C9.60417 1.05469 10.6068 1.01562 11.5703 1.01562C11.7786 1.01562 11.987 1.02865 12.1953 1.05469C12.4036 1.05469 12.612 1.05469 12.8203 1.05469C13.0547 1.0026 13.237 0.989583 13.3672 1.01562C13.5234 1.01562 13.6536 1.02865 13.7578 1.05469C14.513 1.08073 15.2943 1.11979 16.1016 1.17188C16.7786 1.22396 17.5339 1.28906 18.3672 1.36719C19.2266 1.41927 20.0729 1.4974 20.9062 1.60156C20.9844 1.8099 20.9974 2.07031 20.9453 2.38281C20.9193 2.53906 20.8932 2.69531 20.8672 2.85156C20.8411 3.00781 20.776 3.15104 20.6719 3.28125C20.5938 3.41146 20.4896 3.54167 20.3594 3.67188C20.2552 3.77604 20.125 3.86719 19.9688 3.94531C19.0833 3.91927 18.224 3.90625 17.3906 3.90625C16.5833 3.88021 15.8672 3.86719 15.2422 3.86719H13.1328C12.7943 5.0651 12.3776 6.54948 11.8828 8.32031C11.388 10.0651 10.8802 11.9141 10.3594 13.8672C9.86458 15.7943 9.38281 17.7214 8.91406 19.6484C8.47135 21.5495 8.11979 23.2682 7.85938 24.8047C7.59896 26.2891 7.33854 27.7474 7.07812 29.1797C6.97396 29.7786 6.85677 30.4036 6.72656 31.0547C6.6224 31.7057 6.51823 32.3438 6.41406 32.9688C6.33594 33.5938 6.25781 34.1927 6.17969 34.7656C6.10156 35.3385 6.03646 35.8594 5.98438 36.3281C5.56771 36.5365 5.17708 36.6927 4.8125 36.7969C4.44792 36.9271 4.1224 37.0182 3.83594 37.0703C3.4974 37.1484 3.1849 37.1875 2.89844 37.1875C2.27344 37.1875 1.88281 37.1094 1.72656 36.9531C1.59635 36.8229 1.58333 36.5495 1.6875 36.1328C1.76562 35.7682 2 34.7786 2.39062 33.1641C2.54688 32.487 2.74219 31.6276 2.97656 30.5859C3.23698 29.5703 3.53646 28.3333 3.875 26.875C4.21354 25.3906 4.61719 23.6719 5.08594 21.7188C5.55469 19.7396 6.08854 17.474 6.6875 14.9219L9.30469 4.0625C8.52344 4.16667 7.75521 4.28385 7 4.41406C6.24479 4.54427 5.52865 4.6875 4.85156 4.84375C4.20052 4.97396 3.60156 5.10417 3.05469 5.23438C2.53385 5.36458 2.11719 5.46875 1.80469 5.54688ZM14.8906 29.8047C14.7083 30.0911 14.513 30.2734 14.3047 30.3516C14.0703 30.4557 13.875 30.4688 13.7188 30.3906C13.5365 30.3385 13.4193 30.2083 13.3672 30C13.3151 29.7917 13.3672 29.5312 13.5234 29.2188C13.6016 29.0625 13.7839 28.7109 14.0703 28.1641C14.3307 27.6172 14.6562 26.9661 15.0469 26.2109C15.4115 25.4297 15.8151 24.5964 16.2578 23.7109C16.7005 22.7995 17.1172 21.9401 17.5078 21.1328C17.9245 20.3255 18.3021 19.6094 18.6406 18.9844C18.9792 18.3333 19.2266 17.8646 19.3828 17.5781C19.0964 17.3177 18.901 17.1354 18.7969 17.0312C18.6927 16.901 18.6146 16.6406 18.5625 16.25C18.5104 15.9115 18.5885 15.4688 18.7969 14.9219C19.0052 14.375 19.2786 13.8542 19.6172 13.3594C19.9557 12.8385 20.3333 12.3958 20.75 12.0312C21.1667 11.6667 21.5703 11.4844 21.9609 11.4844C22.6901 11.4844 23.1979 11.7188 23.4844 12.1875C23.7969 12.6562 23.9792 13.138 24.0312 13.6328C24.0833 13.9714 24.0573 14.401 23.9531 14.9219C23.849 15.4427 23.6536 15.9115 23.3672 16.3281C23.4453 16.3802 23.5495 16.4453 23.6797 16.5234C23.8099 16.5755 24.0182 16.6016 24.3047 16.6016C24.7214 16.6016 25.0078 16.5755 25.1641 16.5234C25.3464 16.4714 25.6198 16.4453 25.9844 16.4453C26.4271 16.4453 26.7917 16.5625 27.0781 16.7969C27.3646 17.0052 27.599 17.2786 27.7812 17.6172C27.9635 17.9297 28.0938 18.2812 28.1719 18.6719C28.276 19.0365 28.3411 19.375 28.3672 19.6875C28.4453 20.3385 28.276 21.0156 27.8594 21.7188C27.4427 22.4219 26.9349 23.1901 26.3359 24.0234C25.9714 24.5443 25.6068 25.1302 25.2422 25.7812C24.8776 26.4323 24.7214 27.0182 24.7734 27.5391C24.8255 27.8776 24.9167 28.151 25.0469 28.3594C25.1771 28.5677 25.5417 28.6719 26.1406 28.6719C26.5833 28.6719 27.0651 28.5156 27.5859 28.2031C28.1328 27.8646 28.6797 27.4479 29.2266 26.9531C29.7995 26.4323 30.3594 25.8724 30.9062 25.2734C31.4531 24.6484 31.9609 24.0495 32.4297 23.4766C32.8984 22.8776 33.2891 22.3438 33.6016 21.875C33.9401 21.4062 34.1875 21.0677 34.3438 20.8594C34.474 20.651 34.6432 20.5078 34.8516 20.4297C35.0599 20.3516 35.2422 20.3516 35.3984 20.4297C35.5547 20.5078 35.6458 20.6641 35.6719 20.8984C35.724 21.1328 35.6328 21.4453 35.3984 21.8359C35.2422 22.0964 34.9688 22.513 34.5781 23.0859C34.2135 23.6589 33.7578 24.2969 33.2109 25C32.6901 25.7031 32.1042 26.4323 31.4531 27.1875C30.8021 27.9167 30.112 28.5938 29.3828 29.2188C28.6797 29.8177 27.9635 30.3125 27.2344 30.7031C26.5312 31.0938 25.8542 31.2891 25.2031 31.2891C24.526 31.2891 23.9661 31.1589 23.5234 30.8984C23.0807 30.638 22.7161 30.3255 22.4297 29.9609C22.1693 29.5703 21.974 29.1536 21.8438 28.7109C21.7396 28.2422 21.7005 27.8125 21.7266 27.4219C21.7526 27.1094 21.8307 26.7839 21.9609 26.4453C22.1172 26.0807 22.2865 25.7161 22.4688 25.3516C22.6771 24.9609 22.8854 24.5833 23.0938 24.2188C23.3281 23.8281 23.5365 23.4505 23.7188 23.0859C24.1615 22.3307 24.513 21.6927 24.7734 21.1719C25.0599 20.625 25.2031 20.1693 25.2031 19.8047C25.2031 19.5703 25.151 19.362 25.0469 19.1797C24.9427 18.9974 24.7734 18.9062 24.5391 18.9062C24.3828 18.9062 24.2656 18.9193 24.1875 18.9453C24.1354 18.9453 24.0703 18.9453 23.9922 18.9453C23.9401 18.9453 23.849 18.9583 23.7188 18.9844C23.6146 18.9844 23.4453 18.9844 23.2109 18.9844C22.8724 18.9844 22.5859 18.9323 22.3516 18.8281C22.1172 18.724 21.8958 18.6458 21.6875 18.5938C21.5833 18.776 21.349 19.1667 20.9844 19.7656C20.6198 20.3646 20.1901 21.0677 19.6953 21.875C19.2266 22.6823 18.7188 23.5286 18.1719 24.4141C17.651 25.2995 17.1562 26.1328 16.6875 26.9141C16.2188 27.6693 15.8281 28.3203 15.5156 28.8672C15.1771 29.388 14.9688 29.7005 14.8906 29.8047ZM52.6641 22.2266C52.2995 22.7474 51.8307 23.3984 51.2578 24.1797C50.6849 24.9349 50.0859 25.7031 49.4609 26.4844C48.862 27.2396 48.263 27.9427 47.6641 28.5938C47.0911 29.2188 46.6094 29.6615 46.2188 29.9219C45.9583 30.0781 45.6589 30.2083 45.3203 30.3125C44.9818 30.4167 44.6302 30.4818 44.2656 30.5078C43.9271 30.5339 43.6016 30.5078 43.2891 30.4297C42.9766 30.3776 42.7031 30.2734 42.4688 30.1172C42.2344 29.9349 42.0391 29.6745 41.8828 29.3359C41.7526 29.0495 41.6224 28.6719 41.4922 28.2031C41.388 27.7344 41.349 27.1484 41.375 26.4453C40.75 27.487 40.0599 28.2943 39.3047 28.8672C38.5495 29.4141 37.8333 29.8177 37.1562 30.0781C36.375 30.3646 35.5938 30.5339 34.8125 30.5859C34.4479 30.5859 34.0573 30.4557 33.6406 30.1953C33.224 29.9609 32.8724 29.5833 32.5859 29.0625C32.2995 28.5156 32.1172 27.8255 32.0391 26.9922C31.9609 26.1328 32.0651 25.1172 32.3516 23.9453C32.7161 22.3568 33.2891 20.9115 34.0703 19.6094C34.8776 18.3073 35.75 17.2005 36.6875 16.2891C37.625 15.3516 38.5495 14.6484 39.4609 14.1797C40.3724 13.7109 41.1276 13.5026 41.7266 13.5547C42.4297 13.6849 43.0026 13.8932 43.4453 14.1797C43.8099 14.4401 44.0443 14.8307 44.1484 15.3516C44.2786 15.8464 44.0703 16.5104 43.5234 17.3438C43.888 17.2656 44.1875 17.2135 44.4219 17.1875C44.6823 17.1615 44.8776 17.1484 45.0078 17.1484C45.1641 17.1484 45.2682 17.1615 45.3203 17.1875C45.3464 17.2396 45.3594 17.3568 45.3594 17.5391C45.3594 17.6953 45.3203 17.9948 45.2422 18.4375C45.1641 18.8802 45.0469 19.4792 44.8906 20.2344C44.7344 20.9896 44.526 21.9661 44.2656 23.1641C44.2135 23.3984 44.1615 23.6198 44.1094 23.8281C44.0833 24.0104 44.0443 24.2057 43.9922 24.4141C43.9661 24.5964 43.9271 24.8177 43.875 25.0781C43.8229 25.3385 43.7578 25.6641 43.6797 26.0547C43.6536 26.2891 43.6406 26.5495 43.6406 26.8359C43.6667 27.0964 43.7188 27.3438 43.7969 27.5781C43.875 27.8125 43.9922 28.0078 44.1484 28.1641C44.3307 28.2943 44.5781 28.3594 44.8906 28.3594C45.151 28.3594 45.4896 28.2031 45.9062 27.8906C46.3229 27.5521 46.7656 27.1354 47.2344 26.6406C47.7031 26.1198 48.1849 25.5599 48.6797 24.9609C49.2005 24.3359 49.6823 23.737 50.125 23.1641C50.5677 22.5911 50.9583 22.0833 51.2969 21.6406C51.6615 21.1979 51.9219 20.8724 52.0781 20.6641C52.2865 20.4297 52.4948 20.2995 52.7031 20.2734C52.9115 20.2214 53.0677 20.2734 53.1719 20.4297C53.276 20.5859 53.2891 20.8203 53.2109 21.1328C53.1589 21.4453 52.9766 21.8099 52.6641 22.2266ZM41.2188 23.9453C41.349 23.4245 41.5052 22.8125 41.6875 22.1094C41.8698 21.4062 42.026 20.7292 42.1562 20.0781C42.2865 19.4271 42.3776 18.8932 42.4297 18.4766C42.5078 18.0339 42.4948 17.8255 42.3906 17.8516C42.2604 17.8776 42.1172 17.9167 41.9609 17.9688C41.8307 18.0208 41.6615 18.0599 41.4531 18.0859C41.2448 18.112 41.0365 18.151 40.8281 18.2031C41.0365 17.7865 41.1536 17.4479 41.1797 17.1875C41.2318 16.901 41.2448 16.6797 41.2188 16.5234C41.1927 16.3411 41.1406 16.1979 41.0625 16.0938C40.776 15.8594 40.2682 16.0547 39.5391 16.6797C38.8359 17.2786 38.0156 18.3984 37.0781 20.0391C36.6875 20.7161 36.375 21.4453 36.1406 22.2266C35.9062 22.9818 35.737 23.6979 35.6328 24.375C35.5547 25.0521 35.5417 25.651 35.5938 26.1719C35.6458 26.6667 35.75 26.9922 35.9062 27.1484C36.1927 27.4349 36.5182 27.5781 36.8828 27.5781C37.2474 27.5521 37.612 27.4479 37.9766 27.2656C38.3672 27.0573 38.7448 26.7969 39.1094 26.4844C39.5 26.1719 39.8385 25.8464 40.125 25.5078C40.4375 25.1693 40.6849 24.8568 40.8672 24.5703C41.0755 24.2839 41.1927 24.0755 41.2188 23.9453ZM70.3984 23.2422C70.0339 24.1797 69.6172 25.0911 69.1484 25.9766C68.6797 26.862 68.1589 27.6562 67.5859 28.3594C67.013 29.0625 66.401 29.6224 65.75 30.0391C65.099 30.4557 64.3958 30.6641 63.6406 30.6641C62.4167 30.6641 61.4922 30.2604 60.8672 29.4531C60.2422 28.6198 59.8125 27.6042 59.5781 26.4062C59.2135 26.9531 58.8229 27.5 58.4062 28.0469C57.9896 28.5938 57.5469 29.0755 57.0781 29.4922C56.6094 29.9089 56.1276 30.2474 55.6328 30.5078C55.138 30.7682 54.6432 30.8984 54.1484 30.8984C53.4714 30.8984 52.8984 30.7552 52.4297 30.4688C51.9609 30.1823 51.5703 29.7917 51.2578 29.2969C50.9714 28.776 50.763 28.1901 50.6328 27.5391C50.5026 26.862 50.4375 26.1458 50.4375 25.3906V24.9219C50.4375 23.9583 50.5156 22.9688 50.6719 21.9531C50.8281 20.9375 50.9974 20 51.1797 19.1406C51.388 18.2812 51.5964 17.5391 51.8047 16.9141C52.013 16.263 52.1693 15.8333 52.2734 15.625C52.4557 15.3646 52.8464 15.1172 53.4453 14.8828C54.0703 14.6224 54.6823 14.5182 55.2812 14.5703C55.5677 14.5964 55.7109 14.7135 55.7109 14.9219C55.737 15.1302 55.7109 15.3906 55.6328 15.7031C55.5286 16.1458 55.3464 16.8099 55.0859 17.6953C54.8255 18.5807 54.5521 19.5443 54.2656 20.5859C54.0052 21.6276 53.7708 22.6562 53.5625 23.6719C53.3542 24.6875 53.25 25.5339 53.25 26.2109C53.25 27.0443 53.3802 27.6432 53.6406 28.0078C53.901 28.3724 54.3047 28.5547 54.8516 28.5547C55.5026 28.5547 56.2188 28.1901 57 27.4609C57.8073 26.7318 58.5885 25.4948 59.3438 23.75C59.3177 23.5938 59.3047 23.4375 59.3047 23.2812C59.3047 23.125 59.3047 22.9557 59.3047 22.7734C59.3047 21.6016 59.3438 20.4818 59.4219 19.4141C59.526 18.3464 59.7083 17.4089 59.9688 16.6016C60.2552 15.7943 60.6328 15.1562 61.1016 14.6875C61.5964 14.2188 62.2344 13.9844 63.0156 13.9844C63.3281 13.9844 63.5885 14.0755 63.7969 14.2578C64.0052 14.4401 64.1094 14.7005 64.1094 15.0391C64.1094 15.8724 63.8099 17.0573 63.2109 18.5938C62.638 20.1042 61.9479 21.7708 61.1406 23.5938C61.0625 23.6979 61.0104 23.8021 60.9844 23.9062C61.0625 24.401 61.1536 24.9219 61.2578 25.4688C61.388 26.0156 61.5573 26.5234 61.7656 26.9922C61.974 27.4349 62.2214 27.8125 62.5078 28.125C62.7943 28.4115 63.1328 28.5547 63.5234 28.5547C64.0964 28.5547 64.6172 28.2812 65.0859 27.7344C65.5807 27.1875 66.0104 26.5234 66.375 25.7422C66.7656 24.9609 67.1042 24.1406 67.3906 23.2812C67.6771 22.3958 67.8984 21.6146 68.0547 20.9375C67.9766 20.651 67.9115 20.3776 67.8594 20.1172C67.8073 19.8307 67.7812 19.5052 67.7812 19.1406C67.7812 18.3333 67.8984 17.6432 68.1328 17.0703C68.3672 16.4974 68.6667 16.0286 69.0312 15.6641C69.4219 15.2734 69.8255 14.987 70.2422 14.8047C70.6849 14.6224 71.0885 14.5312 71.4531 14.5312C72.1042 14.5312 72.4297 14.8177 72.4297 15.3906C72.4297 15.8073 72.3255 16.5365 72.1172 17.5781C71.9089 18.5938 71.6094 19.7526 71.2188 21.0547C71.6875 21.263 72.2865 21.3672 73.0156 21.3672C73.6927 21.3672 74.3177 21.2891 74.8906 21.1328C75.4635 20.9505 75.9844 20.7292 76.4531 20.4688C76.9219 20.2083 77.3516 19.9219 77.7422 19.6094C78.1328 19.2969 78.5104 18.9974 78.875 18.7109C79.1615 18.5026 79.3958 18.4896 79.5781 18.6719C79.7604 18.8542 79.7344 19.1406 79.5 19.5312C79.2917 19.8698 78.9271 20.2604 78.4062 20.7031C77.9115 21.1458 77.2995 21.5755 76.5703 21.9922C75.8672 22.3828 75.0729 22.7214 74.1875 23.0078C73.3281 23.2682 72.4167 23.3984 71.4531 23.3984C71.2969 23.3984 71.1276 23.3854 70.9453 23.3594C70.763 23.3333 70.5807 23.2943 70.3984 23.2422ZM95.9453 22.2266C95.5807 22.7474 95.112 23.3984 94.5391 24.1797C93.9661 24.9349 93.3672 25.7031 92.7422 26.4844C92.1432 27.2396 91.5443 27.9427 90.9453 28.5938C90.3724 29.2188 89.8906 29.6615 89.5 29.9219C89.2396 30.0781 88.9401 30.2083 88.6016 30.3125C88.263 30.4167 87.9115 30.4818 87.5469 30.5078C87.2083 30.5339 86.8828 30.5078 86.5703 30.4297C86.2578 30.3776 85.9844 30.2734 85.75 30.1172C85.5156 29.9349 85.3203 29.6745 85.1641 29.3359C85.0339 29.0495 84.9036 28.6719 84.7734 28.2031C84.6693 27.7344 84.6302 27.1484 84.6562 26.4453C84.0312 27.487 83.3411 28.2943 82.5859 28.8672C81.8307 29.4141 81.1146 29.8177 80.4375 30.0781C79.6562 30.3646 78.875 30.5339 78.0938 30.5859C77.7292 30.5859 77.3385 30.4557 76.9219 30.1953C76.5052 29.9609 76.1536 29.5833 75.8672 29.0625C75.5807 28.5156 75.3984 27.8255 75.3203 26.9922C75.2422 26.1328 75.3464 25.1172 75.6328 23.9453C75.9974 22.3568 76.5703 20.9115 77.3516 19.6094C78.1589 18.3073 79.0312 17.2005 79.9688 16.2891C80.9062 15.3516 81.8307 14.6484 82.7422 14.1797C83.6536 13.7109 84.4089 13.5026 85.0078 13.5547C85.7109 13.6849 86.2839 13.8932 86.7266 14.1797C87.0911 14.4401 87.3255 14.8307 87.4297 15.3516C87.5599 15.8464 87.3516 16.5104 86.8047 17.3438C87.1693 17.2656 87.4688 17.2135 87.7031 17.1875C87.9635 17.1615 88.1589 17.1484 88.2891 17.1484C88.4453 17.1484 88.5495 17.1615 88.6016 17.1875C88.6276 17.2396 88.6406 17.3568 88.6406 17.5391C88.6406 17.6953 88.6016 17.9948 88.5234 18.4375C88.4453 18.8802 88.3281 19.4792 88.1719 20.2344C88.0156 20.9896 87.8073 21.9661 87.5469 23.1641C87.4948 23.3984 87.4427 23.6198 87.3906 23.8281C87.3646 24.0104 87.3255 24.2057 87.2734 24.4141C87.2474 24.5964 87.2083 24.8177 87.1562 25.0781C87.1042 25.3385 87.0391 25.6641 86.9609 26.0547C86.9349 26.2891 86.9219 26.5495 86.9219 26.8359C86.9479 27.0964 87 27.3438 87.0781 27.5781C87.1562 27.8125 87.2734 28.0078 87.4297 28.1641C87.612 28.2943 87.8594 28.3594 88.1719 28.3594C88.4323 28.3594 88.7708 28.2031 89.1875 27.8906C89.6042 27.5521 90.0469 27.1354 90.5156 26.6406C90.9844 26.1198 91.4661 25.5599 91.9609 24.9609C92.4818 24.3359 92.9635 23.737 93.4062 23.1641C93.849 22.5911 94.2396 22.0833 94.5781 21.6406C94.9427 21.1979 95.2031 20.8724 95.3594 20.6641C95.5677 20.4297 95.776 20.2995 95.9844 20.2734C96.1927 20.2214 96.349 20.2734 96.4531 20.4297C96.5573 20.5859 96.5703 20.8203 96.4922 21.1328C96.4401 21.4453 96.2578 21.8099 95.9453 22.2266ZM84.5 23.9453C84.6302 23.4245 84.7865 22.8125 84.9688 22.1094C85.151 21.4062 85.3073 20.7292 85.4375 20.0781C85.5677 19.4271 85.6589 18.8932 85.7109 18.4766C85.7891 18.0339 85.776 17.8255 85.6719 17.8516C85.5417 17.8776 85.3984 17.9167 85.2422 17.9688C85.112 18.0208 84.9427 18.0599 84.7344 18.0859C84.526 18.112 84.3177 18.151 84.1094 18.2031C84.3177 17.7865 84.4349 17.4479 84.4609 17.1875C84.513 16.901 84.526 16.6797 84.5 16.5234C84.474 16.3411 84.4219 16.1979 84.3438 16.0938C84.0573 15.8594 83.5495 16.0547 82.8203 16.6797C82.1172 17.2786 81.2969 18.3984 80.3594 20.0391C79.9688 20.7161 79.6562 21.4453 79.4219 22.2266C79.1875 22.9818 79.0182 23.6979 78.9141 24.375C78.8359 25.0521 78.8229 25.651 78.875 26.1719C78.9271 26.6667 79.0312 26.9922 79.1875 27.1484C79.474 27.4349 79.7995 27.5781 80.1641 27.5781C80.5286 27.5521 80.8932 27.4479 81.2578 27.2656C81.6484 27.0573 82.026 26.7969 82.3906 26.4844C82.7812 26.1719 83.1198 25.8464 83.4062 25.5078C83.7188 25.1693 83.9661 24.8568 84.1484 24.5703C84.3568 24.2839 84.474 24.0755 84.5 23.9453ZM103.602 15.625C103.94 15.3646 104.266 15.1693 104.578 15.0391C104.917 14.8828 105.216 14.7786 105.477 14.7266C105.763 14.6484 106.049 14.6224 106.336 14.6484C107.039 14.7005 107.469 14.9219 107.625 15.3125C107.807 15.7031 107.833 16.3281 107.703 17.1875C107.625 17.6302 107.469 18.1901 107.234 18.8672C107 19.5443 106.727 20.3776 106.414 21.3672C106.102 22.3307 105.763 23.4375 105.398 24.6875C105.06 25.9375 104.734 27.3438 104.422 28.9062C104.109 30.1823 103.771 31.6536 103.406 33.3203C103.094 34.7786 102.716 36.5365 102.273 38.5938C101.857 40.651 101.401 43.0078 100.906 45.6641C100.776 46.3151 100.49 46.6927 100.047 46.7969C99.6302 46.901 99.1875 46.849 98.7188 46.6406C98.5365 46.5365 98.3672 46.4193 98.2109 46.2891C98.0807 46.1589 97.9375 46.0026 97.7812 45.8203C97.625 45.6641 97.4948 45.4427 97.3906 45.1562C97.9896 42.9688 98.5104 40.9766 98.9531 39.1797C99.4219 37.3828 99.8385 35.8203 100.203 34.4922C100.594 32.9557 100.958 31.5755 101.297 30.3516C101.427 29.8047 101.544 29.2708 101.648 28.75C101.779 28.2031 101.909 27.6693 102.039 27.1484C101.701 27.6953 101.336 28.2161 100.945 28.7109C100.555 29.2057 100.125 29.6354 99.6562 30C99.1875 30.3646 98.6797 30.638 98.1328 30.8203C97.612 31.0286 97.0651 31.0938 96.4922 31.0156C95.0859 30.8333 94.0833 30.3125 93.4844 29.4531C92.9115 28.5938 92.6641 27.474 92.7422 26.0938C92.7682 25.5469 92.8464 24.9479 92.9766 24.2969C93.1068 23.6458 93.25 23.0208 93.4062 22.4219C93.5625 21.8229 93.7057 21.2891 93.8359 20.8203C93.9922 20.3255 94.1094 19.974 94.1875 19.7656C94.5 18.776 94.7214 17.9297 94.8516 17.2266C95.0078 16.5234 94.9036 15.9375 94.5391 15.4688C94.9036 15.2344 95.2422 15.0781 95.5547 15C95.8932 14.8958 96.1927 14.8177 96.4531 14.7656C96.7396 14.7396 97.026 14.7396 97.3125 14.7656C98.0156 14.8698 98.4193 15.1302 98.5234 15.5469C98.6536 15.9635 98.6146 16.5885 98.4062 17.4219C98.3021 17.8646 98.1328 18.4375 97.8984 19.1406C97.6641 19.8177 97.4167 20.5208 97.1562 21.25C96.8958 21.9792 96.6615 22.6562 96.4531 23.2812C96.2448 23.8802 96.1276 24.3099 96.1016 24.5703C95.8672 25.7422 95.8542 26.6536 96.0625 27.3047C96.2708 27.9297 96.7266 28.2422 97.4297 28.2422C97.7682 28.2422 98.1458 28.099 98.5625 27.8125C98.9792 27.5 99.3958 27.0964 99.8125 26.6016C100.255 26.1068 100.685 25.5469 101.102 24.9219C101.518 24.2708 101.896 23.6198 102.234 22.9688C102.599 22.3177 102.911 21.6797 103.172 21.0547C103.458 20.4297 103.667 19.8698 103.797 19.375C103.979 18.4115 104.096 17.6562 104.148 17.1094C104.201 16.5625 104.018 16.0677 103.602 15.625Z" fill="#2A70FA"/>
</svg>
