<svg width="37" height="27" viewBox="0 0 37 27" fill="none" xmlns="http://www.w3.org/2000/svg">
<path d="M36.2139 14.7979C36.0153 14.9509 35.7709 15.0324 35.5203 15.0291C35.3408 15.0291 35.1638 14.9873 35.0033 14.9071C34.8428 14.8268 34.7031 14.7103 34.5954 14.5667C33.8987 13.6301 32.9917 12.8702 31.9476 12.3482C30.9035 11.8261 29.7514 11.5565 28.5841 11.561C28.2775 11.561 27.9834 11.4392 27.7666 11.2224C27.5498 11.0056 27.4281 10.7116 27.4281 10.405C27.4281 10.0984 27.5498 9.80435 27.7666 9.58755C27.9834 9.37075 28.2775 9.24896 28.5841 9.24896C29.242 9.24825 29.8862 9.06041 30.4414 8.70736C30.9966 8.35431 31.4399 7.85062 31.7195 7.25509C31.9992 6.65956 32.1037 5.99676 32.0208 5.34406C31.938 4.69137 31.6712 4.07571 31.2515 3.56896C30.8319 3.06221 30.2768 2.68528 29.651 2.48217C29.0252 2.27906 28.3545 2.25815 27.7173 2.42189C27.0801 2.58562 26.5026 2.92724 26.0522 3.40687C25.6018 3.88649 25.2972 4.48433 25.1738 5.1306C25.1514 5.28514 25.0979 5.43353 25.0165 5.56681C24.9351 5.7001 24.8276 5.81553 24.7004 5.90612C24.5732 5.99672 24.429 6.0606 24.2765 6.09393C24.1239 6.12725 23.9662 6.12932 23.8128 6.10001C23.6594 6.0707 23.5135 6.01062 23.384 5.9234C23.2545 5.83617 23.144 5.72361 23.0592 5.5925C22.9743 5.4614 22.917 5.31446 22.8905 5.16057C22.864 5.00667 22.869 4.84901 22.9051 4.69709C23.0766 3.79802 23.4591 2.95253 24.0213 2.23021C24.5834 1.50789 25.309 0.92939 26.1384 0.542318C26.9678 0.155246 27.8773 -0.029329 28.792 0.00378448C29.7067 0.036898 30.6004 0.286753 31.3996 0.732786C32.1989 1.17882 32.8808 1.80828 33.3892 2.56936C33.8976 3.33043 34.218 4.20137 34.3241 5.11048C34.4301 6.0196 34.3188 6.9409 33.9991 7.79856C33.6795 8.65622 33.1608 9.42572 32.4857 10.0437C34.0569 10.725 35.422 11.8061 36.4451 13.1795C36.5362 13.3009 36.6025 13.4391 36.6401 13.5862C36.6778 13.7332 36.6861 13.8863 36.6647 14.0366C36.6432 14.1869 36.5923 14.3314 36.515 14.4621C36.4377 14.5927 36.3353 14.7068 36.2139 14.7979ZM28.1217 24.3496C28.2521 24.6261 28.2692 24.9427 28.1693 25.2316C28.0694 25.5206 27.8604 25.759 27.587 25.8958C27.4275 25.9668 27.2557 26.0061 27.0812 26.0114C26.8646 26.0099 26.6527 25.9483 26.469 25.8335C26.2853 25.7187 26.1371 25.5552 26.0408 25.3611C25.3742 23.9975 24.3381 22.8484 23.0506 22.0447C21.763 21.2409 20.2757 20.8148 18.7578 20.8148C17.24 20.8148 15.7526 21.2409 14.4651 22.0447C13.1775 22.8484 12.1415 23.9975 11.4748 25.3611C11.4085 25.4978 11.3159 25.6201 11.2022 25.721C11.0886 25.8219 10.9562 25.8993 10.8126 25.949C10.669 25.9987 10.517 26.0195 10.3653 26.0104C10.2136 26.0013 10.0653 25.9623 9.92865 25.8958C9.65525 25.759 9.44624 25.5206 9.34632 25.2316C9.24641 24.9427 9.26351 24.6261 9.39398 24.3496C10.4683 22.1374 12.2906 20.3766 14.5383 19.3787C13.3878 18.4968 12.5425 17.2767 12.1211 15.8897C11.6998 14.5027 11.7236 13.0185 12.1891 11.6458C12.6547 10.273 13.5387 9.08056 14.7169 8.23605C15.8951 7.39153 17.3082 6.93737 18.7578 6.93737C20.2074 6.93737 21.6206 7.39153 22.7988 8.23605C23.9769 9.08056 24.8609 10.273 25.3265 11.6458C25.7921 13.0185 25.8159 14.5027 25.3945 15.8897C24.9732 17.2767 24.1278 18.4968 22.9773 19.3787C25.2251 20.3766 27.0473 22.1374 28.1217 24.3496ZM18.7578 18.4972C19.6724 18.4972 20.5664 18.226 21.3269 17.7179C22.0873 17.2098 22.68 16.4876 23.03 15.6427C23.3799 14.7977 23.4715 13.8679 23.2931 12.971C23.1147 12.074 22.6743 11.25 22.0276 10.6033C21.3809 9.95664 20.5569 9.51623 19.6599 9.33781C18.763 9.15939 17.8332 9.25096 16.9883 9.60095C16.1433 9.95094 15.4211 10.5436 14.913 11.3041C14.4049 12.0645 14.1337 12.9585 14.1337 13.8731C14.1375 15.0983 14.6259 16.2722 15.4923 17.1386C16.3587 18.005 17.5326 18.4934 18.7578 18.4972ZM10.0876 10.405C10.0876 10.0984 9.96581 9.80435 9.74901 9.58755C9.53221 9.37075 9.23817 9.24896 8.93157 9.24896C8.27364 9.24825 7.62948 9.06041 7.07429 8.70736C6.5191 8.35431 6.07579 7.85062 5.79612 7.25509C5.51644 6.65956 5.41194 5.99676 5.49481 5.34406C5.57767 4.69137 5.84449 4.07571 6.26412 3.56896C6.68374 3.06221 7.23885 2.68528 7.86465 2.48217C8.49045 2.27906 9.16111 2.25815 9.79835 2.42189C10.4356 2.58562 11.0131 2.92724 11.4635 3.40687C11.9138 3.88649 12.2185 4.48433 12.3419 5.1306C12.3643 5.28514 12.4178 5.43353 12.4992 5.56681C12.5805 5.7001 12.688 5.81553 12.8152 5.90612C12.9424 5.99672 13.0866 6.0606 13.2392 6.09393C13.3918 6.12725 13.5495 6.12932 13.7029 6.10001C13.8563 6.0707 14.0021 6.01062 14.1316 5.9234C14.2612 5.83617 14.3717 5.72361 14.4565 5.5925C14.5413 5.4614 14.5987 5.31446 14.6252 5.16057C14.6517 5.00667 14.6467 4.84901 14.6106 4.69709C14.4391 3.79802 14.0565 2.95253 13.4944 2.23021C12.9323 1.50789 12.2066 0.92939 11.3772 0.542318C10.5478 0.155246 9.63836 -0.029329 8.72368 0.00378448C7.809 0.036898 6.91526 0.286753 6.11602 0.732786C5.31677 1.17882 4.63488 1.80828 4.12645 2.56936C3.61803 3.33043 3.29761 4.20137 3.19157 5.11048C3.08553 6.0196 3.1969 6.9409 3.51651 7.79856C3.83612 8.65622 4.35484 9.42572 5.02997 10.0437C3.4588 10.725 2.09363 11.8061 1.07057 13.1795C0.886607 13.4247 0.807619 13.7331 0.850979 14.0366C0.894338 14.3401 1.05649 14.6139 1.30177 14.7979C1.50033 14.9509 1.74474 15.0324 1.99539 15.0291C2.17486 15.0291 2.35186 14.9873 2.51238 14.9071C2.6729 14.8268 2.81253 14.7103 2.92021 14.5667C3.61699 13.6301 4.52394 12.8702 5.56804 12.3482C6.61215 11.8261 7.76424 11.5565 8.93157 11.561C9.23817 11.561 9.53221 11.4392 9.74901 11.2224C9.96581 11.0056 10.0876 10.7116 10.0876 10.405Z" fill="black"/>
</svg>
