<svg width="218" height="121" viewBox="0 0 218 121" fill="none" xmlns="http://www.w3.org/2000/svg">
<g id="Bus">
<path id="theBus" d="M19.8182 87.7118H2.01541V20.3636C2.01541 10.4776 9.93217 2.56082 19.8182 2.56082H158.545C168.431 2.56082 176.348 10.4776 176.348 20.3636V40.1818V42.1972H178.364H198.182C208.068 42.1972 215.985 50.1139 215.985 60V87.7118H198.182H196.166V89.7272C196.166 97.0769 193.247 104.125 188.05 109.322C182.853 114.519 175.804 117.439 168.455 117.439C161.105 117.439 154.056 114.519 148.859 109.322C143.662 104.125 140.743 97.0769 140.743 89.7272V87.7118H138.727H79.2727H77.2573V89.7272C77.2573 97.0769 74.3377 104.125 69.1407 109.322C63.9437 114.519 56.8951 117.439 49.5455 117.439C42.1958 117.439 35.1472 114.519 29.9502 109.322C24.7532 104.125 21.8336 97.0769 21.8336 89.7272V87.7118H19.8182ZM123.864 13.3936H121.848V15.409V40.1818V42.1972H123.864H163.5H165.515V40.1818V15.409V13.3936H163.5H123.864ZM14.8636 13.3936H12.8482V15.409V40.1818V42.1972H14.8636H54.5H56.5154V40.1818V15.409V13.3936H54.5H14.8636ZM69.3636 13.3936H67.3482V15.409V40.1818V42.1972H69.3636H109H111.015V40.1818V15.409V13.3936H109H69.3636ZM61.4807 77.7919C58.3153 74.6265 54.0221 72.8482 49.5455 72.8482C45.0689 72.8482 40.7756 74.6265 37.6102 77.7919C34.4447 80.9574 32.6664 85.2506 32.6664 89.7272C32.6664 94.2038 34.4447 98.4971 37.6102 101.663C40.7756 104.828 45.0689 106.606 49.5455 106.606C54.0221 106.606 58.3153 104.828 61.4807 101.663C64.6462 98.4971 66.4245 94.2038 66.4245 89.7272C66.4245 85.2506 64.6462 80.9574 61.4807 77.7919ZM180.39 77.7919C177.224 74.6265 172.931 72.8482 168.455 72.8482C163.978 72.8482 159.685 74.6265 156.519 77.7919C153.354 80.9574 151.576 85.2506 151.576 89.7272C151.576 94.2038 153.354 98.4971 156.519 101.663C159.685 104.828 163.978 106.606 168.455 106.606C172.931 106.606 177.224 104.828 180.39 101.663C183.555 98.4971 185.334 94.2038 185.334 89.7272C185.334 85.2506 183.555 80.9574 180.39 77.7919Z" fill="#FCBC1D" stroke="black" stroke-width="4.03082"/>
<path id="hideTheTire" d="M28.0283 90H16V121H209V118V90H28.0283Z" fill="white"/>
<g id="Tire1">
<circle id="innerTireBack" cx="49" cy="93" r="4" fill="black"/>
<path id="outerTireBack" d="M60.0183 89.8233L59.5083 88.4917L62.1433 87.5C60.84 84.4967 58.5167 82.0883 55.5983 80.615L54.465 83.1367L53.1617 82.5417L54.295 79.9917C52.7083 79.3683 50.98 79 49.1667 79C47.665 79 46.22 79.3117 44.86 79.7083L45.8233 82.315L44.4917 82.825L43.5 80.19C40.4967 81.4933 38.0883 83.8167 36.615 86.735L39.1367 87.8683L38.5417 89.1717L35.9917 88.0383C35.3683 89.625 35 91.3533 35 93.1667C35 94.6683 35.3117 96.1133 35.7083 97.4733L38.315 96.51L38.825 97.8417L36.19 98.8333C37.4933 101.837 39.8167 104.245 42.735 105.718L43.8683 103.197L45.1717 103.792L44.0383 106.342C45.625 106.965 47.3533 107.333 49.1667 107.333C50.6683 107.333 52.1133 107.022 53.4733 106.625L52.51 104.018L53.8417 103.508L54.8333 106.143C57.8367 104.84 60.245 102.517 61.7183 99.5983L59.1967 98.465L59.7917 97.1617L62.3417 98.295C62.965 96.7083 63.3333 94.98 63.3333 93.1667C63.3333 91.665 63.0217 90.22 62.625 88.86L60.0183 89.8233ZM52.425 101.015C48.09 102.8 43.1033 100.76 41.3183 96.425C39.5333 92.09 41.5733 87.1033 45.9083 85.3183C50.2433 83.5333 55.23 85.5733 57.015 89.9083C57.4453 90.9387 57.6679 92.0439 57.6699 93.1605C57.672 94.2771 57.4535 95.3831 57.027 96.4151C56.6006 97.447 55.9745 98.3846 55.1848 99.174C54.395 99.9634 53.4572 100.589 52.425 101.015Z" fill="black"/>
</g>
<g id="Tire2">
<circle id="innerTireFront" cx="169" cy="93" r="4" fill="black"/>
<path id="OuterTireFront" d="M180.018 89.8233L179.508 88.4917L182.143 87.5C180.84 84.4967 178.517 82.0883 175.598 80.615L174.465 83.1367L173.162 82.5417L174.295 79.9917C172.708 79.3683 170.98 79 169.167 79C167.665 79 166.22 79.3117 164.86 79.7083L165.823 82.315L164.492 82.825L163.5 80.19C160.497 81.4933 158.088 83.8167 156.615 86.735L159.137 87.8683L158.542 89.1717L155.992 88.0383C155.368 89.625 155 91.3533 155 93.1667C155 94.6683 155.312 96.1133 155.708 97.4733L158.315 96.51L158.825 97.8417L156.19 98.8333C157.493 101.837 159.817 104.245 162.735 105.718L163.868 103.197L165.172 103.792L164.038 106.342C165.625 106.965 167.353 107.333 169.167 107.333C170.668 107.333 172.113 107.022 173.473 106.625L172.51 104.018L173.842 103.508L174.833 106.143C177.837 104.84 180.245 102.517 181.718 99.5983L179.197 98.465L179.792 97.1617L182.342 98.295C182.965 96.7083 183.333 94.98 183.333 93.1667C183.333 91.665 183.022 90.22 182.625 88.86L180.018 89.8233ZM172.425 101.015C168.09 102.8 163.103 100.76 161.318 96.425C159.533 92.09 161.573 87.1033 165.908 85.3183C170.243 83.5333 175.23 85.5733 177.015 89.9083C177.445 90.9387 177.668 92.0439 177.67 93.1605C177.672 94.2771 177.454 95.3831 177.027 96.4151C176.601 97.447 175.975 98.3846 175.185 99.174C174.395 99.9634 173.457 100.589 172.425 101.015Z" fill="black"/>
</g>
</g>
</svg>
