<svg width="218" height="121" viewBox="0 0 218 121" fill="none" xmlns="http://www.w3.org/2000/svg">
<path d="M19.8182 87.1664H2.01541V19.8182C2.01541 9.93217 9.93217 2.01541 19.8182 2.01541H158.545C168.431 2.01541 176.348 9.93217 176.348 19.8182V39.6364V41.6518H178.364H198.182C208.068 41.6518 215.985 49.5685 215.985 59.4545V87.1664H198.182H196.166V89.1818C196.166 96.5315 193.247 103.58 188.05 108.777C182.853 113.974 175.804 116.894 168.455 116.894C161.105 116.894 154.056 113.974 148.859 108.777C143.662 103.58 140.743 96.5315 140.743 89.1818V87.1664H138.727H79.2727H77.2573V89.1818C77.2573 96.5315 74.3377 103.58 69.1407 108.777C63.9437 113.974 56.8951 116.894 49.5455 116.894C42.1958 116.894 35.1472 113.974 29.9502 108.777C24.7532 103.58 21.8336 96.5315 21.8336 89.1818V87.1664H19.8182ZM123.864 12.8482H121.848V14.8636V39.6364V41.6518H123.864H163.5H165.515V39.6364V14.8636V12.8482H163.5H123.864ZM14.8636 12.8482H12.8482V14.8636V39.6364V41.6518H14.8636H54.5H56.5154V39.6364V14.8636V12.8482H54.5H14.8636ZM69.3636 12.8482H67.3482V14.8636V39.6364V41.6518H69.3636H109H111.015V39.6364V14.8636V12.8482H109H69.3636ZM61.4807 77.2465C58.3153 74.0811 54.0221 72.3028 49.5455 72.3028C45.0689 72.3028 40.7756 74.0811 37.6102 77.2465C34.4447 80.412 32.6664 84.7052 32.6664 89.1818C32.6664 93.6584 34.4447 97.9517 37.6102 101.117C40.7756 104.283 45.0689 106.061 49.5455 106.061C54.0221 106.061 58.3153 104.283 61.4807 101.117C64.6462 97.9517 66.4245 93.6584 66.4245 89.1818C66.4245 84.7052 64.6462 80.412 61.4807 77.2465ZM180.39 77.2465C177.224 74.0811 172.931 72.3028 168.455 72.3028C163.978 72.3028 159.685 74.0811 156.519 77.2465C153.354 80.412 151.576 84.7052 151.576 89.1818C151.576 93.6584 153.354 97.9517 156.519 101.117C159.685 104.283 163.978 106.061 168.455 106.061C172.931 106.061 177.224 104.283 180.39 101.117C183.555 97.9517 185.334 93.6584 185.334 89.1818C185.334 84.7052 183.555 80.412 180.39 77.2465Z" fill="#FFD80E" stroke="#302424" stroke-width="4.03082"/>
<path d="M28.0283 89.4546H16V120.455H209V117.455V89.4546H28.0283Z" fill="white"/>
<circle cx="49" cy="92.4546" r="4" fill="black"/>
<path d="M60.0183 89.2779L59.5083 87.9463L62.1433 86.9546C60.84 83.9513 58.5167 81.5429 55.5983 80.0696L54.465 82.5913L53.1617 81.9963L54.295 79.4463C52.7083 78.8229 50.98 78.4546 49.1667 78.4546C47.665 78.4546 46.22 78.7663 44.86 79.1629L45.8233 81.7696L44.4917 82.2796L43.5 79.6446C40.4967 80.9479 38.0883 83.2713 36.615 86.1896L39.1367 87.3229L38.5417 88.6263L35.9917 87.4929C35.3683 89.0796 35 90.8079 35 92.6213C35 94.1229 35.3117 95.5679 35.7083 96.9279L38.315 95.9646L38.825 97.2963L36.19 98.2879C37.4933 101.291 39.8167 103.7 42.735 105.173L43.8683 102.651L45.1717 103.246L44.0383 105.796C45.625 106.42 47.3533 106.788 49.1667 106.788C50.6683 106.788 52.1133 106.476 53.4733 106.08L52.51 103.473L53.8417 102.963L54.8333 105.598C57.8367 104.295 60.245 101.971 61.7183 99.0529L59.1967 97.9196L59.7917 96.6163L62.3417 97.7496C62.965 96.1629 63.3333 94.4346 63.3333 92.6213C63.3333 91.1196 63.0217 89.6746 62.625 88.3146L60.0183 89.2779ZM52.425 100.47C48.09 102.255 43.1033 100.215 41.3183 95.8796C39.5333 91.5446 41.5733 86.5579 45.9083 84.7729C50.2433 82.9879 55.23 85.0279 57.015 89.3629C57.4453 90.3933 57.6679 91.4985 57.6699 92.6151C57.672 93.7317 57.4535 94.8377 57.027 95.8697C56.6006 96.9016 55.9745 97.8392 55.1848 98.6286C54.395 99.418 53.4572 100.044 52.425 100.47Z" fill="black"/>
<circle cx="169" cy="92.4546" r="4" fill="black"/>
<path d="M180.018 89.2779L179.508 87.9463L182.143 86.9546C180.84 83.9513 178.517 81.5429 175.598 80.0696L174.465 82.5913L173.162 81.9963L174.295 79.4463C172.708 78.8229 170.98 78.4546 169.167 78.4546C167.665 78.4546 166.22 78.7663 164.86 79.1629L165.823 81.7696L164.492 82.2796L163.5 79.6446C160.497 80.9479 158.088 83.2713 156.615 86.1896L159.137 87.3229L158.542 88.6263L155.992 87.4929C155.368 89.0796 155 90.8079 155 92.6213C155 94.1229 155.312 95.5679 155.708 96.9279L158.315 95.9646L158.825 97.2963L156.19 98.2879C157.493 101.291 159.817 103.7 162.735 105.173L163.868 102.651L165.172 103.246L164.038 105.796C165.625 106.42 167.353 106.788 169.167 106.788C170.668 106.788 172.113 106.476 173.473 106.08L172.51 103.473L173.842 102.963L174.833 105.598C177.837 104.295 180.245 101.971 181.718 99.0529L179.197 97.9196L179.792 96.6163L182.342 97.7496C182.965 96.1629 183.333 94.4346 183.333 92.6213C183.333 91.1196 183.022 89.6746 182.625 88.3146L180.018 89.2779ZM172.425 100.47C168.09 102.255 163.103 100.215 161.318 95.8796C159.533 91.5446 161.573 86.5579 165.908 84.7729C170.243 82.9879 175.23 85.0279 177.015 89.3629C177.445 90.3933 177.668 91.4985 177.67 92.6151C177.672 93.7317 177.454 94.8377 177.027 95.8697C176.601 96.9016 175.975 97.8392 175.185 98.6286C174.395 99.418 173.457 100.044 172.425 100.47Z" fill="black"/>
<path d="M88.8936 57.8301C88.7764 57.8691 88.6885 57.874 88.6299 57.8447C88.5713 57.8154 88.5273 57.7666 88.498 57.6982C88.4688 57.6299 88.4541 57.5566 88.4541 57.4785C88.4541 57.3906 88.459 57.3076 88.4688 57.2295C88.4785 57.1611 88.4932 57.083 88.5127 56.9951C88.542 56.9072 88.5762 56.8242 88.6152 56.7461C88.6543 56.668 88.6982 56.6045 88.7471 56.5557C88.8057 56.4971 88.8789 56.458 88.9668 56.4385C89.416 56.3604 89.8506 56.3018 90.2705 56.2627C90.7002 56.2236 91.0859 56.1943 91.4277 56.1748C91.8184 56.1455 92.1943 56.1309 92.5557 56.1309C92.6338 56.1309 92.7119 56.1357 92.79 56.1455C92.8682 56.1455 92.9463 56.1455 93.0244 56.1455C93.1123 56.126 93.1807 56.1211 93.2295 56.1309C93.2881 56.1309 93.3369 56.1357 93.376 56.1455C93.6592 56.1553 93.9521 56.1699 94.2549 56.1895C94.5088 56.209 94.792 56.2334 95.1045 56.2627C95.4268 56.2822 95.7441 56.3115 96.0566 56.3506C96.0859 56.4287 96.0908 56.5264 96.0713 56.6436C96.0615 56.7021 96.0518 56.7607 96.042 56.8193C96.0322 56.8779 96.0078 56.9316 95.9688 56.9805C95.9395 57.0293 95.9004 57.0781 95.8516 57.127C95.8125 57.166 95.7637 57.2002 95.7051 57.2295C95.373 57.2197 95.0508 57.2148 94.7383 57.2148C94.4355 57.2051 94.167 57.2002 93.9326 57.2002H93.1416C93.0146 57.6494 92.8584 58.2061 92.6729 58.8701C92.4873 59.5244 92.2969 60.2178 92.1016 60.9502C91.916 61.6729 91.7354 62.3955 91.5596 63.1182C91.3936 63.8311 91.2617 64.4756 91.1641 65.0518C91.0664 65.6084 90.9688 66.1553 90.8711 66.6924C90.832 66.917 90.7881 67.1514 90.7393 67.3955C90.7002 67.6396 90.6611 67.8789 90.6221 68.1133C90.5928 68.3477 90.5635 68.5723 90.5342 68.7871C90.5049 69.002 90.4805 69.1973 90.4609 69.373C90.3047 69.4512 90.1582 69.5098 90.0215 69.5488C89.8848 69.5977 89.7627 69.6318 89.6553 69.6514C89.5283 69.6807 89.4111 69.6953 89.3037 69.6953C89.0693 69.6953 88.9229 69.666 88.8643 69.6074C88.8154 69.5586 88.8105 69.4561 88.8496 69.2998C88.8789 69.1631 88.9668 68.792 89.1133 68.1865C89.1719 67.9326 89.2451 67.6104 89.333 67.2197C89.4307 66.8389 89.543 66.375 89.6699 65.8281C89.7969 65.2715 89.9482 64.627 90.124 63.8945C90.2998 63.1523 90.5 62.3027 90.7246 61.3457L91.7061 57.2734C91.4131 57.3125 91.125 57.3564 90.8418 57.4053C90.5586 57.4541 90.29 57.5078 90.0361 57.5664C89.792 57.6152 89.5674 57.6641 89.3623 57.7129C89.167 57.7617 89.0107 57.8008 88.8936 57.8301ZM93.8008 66.9268C93.7324 67.0342 93.6592 67.1025 93.5811 67.1318C93.4932 67.1709 93.4199 67.1758 93.3613 67.1465C93.293 67.127 93.249 67.0781 93.2295 67C93.21 66.9219 93.2295 66.8242 93.2881 66.707C93.3174 66.6484 93.3857 66.5166 93.4932 66.3115C93.5908 66.1064 93.7129 65.8623 93.8594 65.5791C93.9961 65.2861 94.1475 64.9736 94.3135 64.6416C94.4795 64.2998 94.6357 63.9775 94.7822 63.6748C94.9385 63.3721 95.0801 63.1035 95.207 62.8691C95.334 62.625 95.4268 62.4492 95.4854 62.3418C95.3779 62.2441 95.3047 62.1758 95.2656 62.1367C95.2266 62.0879 95.1973 61.9902 95.1777 61.8438C95.1582 61.7168 95.1875 61.5508 95.2656 61.3457C95.3438 61.1406 95.4463 60.9453 95.5732 60.7598C95.7002 60.5645 95.8418 60.3984 95.998 60.2617C96.1543 60.125 96.3057 60.0566 96.4521 60.0566C96.7256 60.0566 96.916 60.1445 97.0234 60.3203C97.1406 60.4961 97.209 60.6768 97.2285 60.8623C97.248 60.9893 97.2383 61.1504 97.1992 61.3457C97.1602 61.541 97.0869 61.7168 96.9795 61.873C97.0088 61.8926 97.0479 61.917 97.0967 61.9463C97.1455 61.9658 97.2236 61.9756 97.3311 61.9756C97.4873 61.9756 97.5947 61.9658 97.6533 61.9463C97.7217 61.9268 97.8242 61.917 97.9609 61.917C98.127 61.917 98.2637 61.9609 98.3711 62.0488C98.4785 62.127 98.5664 62.2295 98.6348 62.3564C98.7031 62.4736 98.752 62.6055 98.7812 62.752C98.8203 62.8887 98.8447 63.0156 98.8545 63.1328C98.8838 63.377 98.8203 63.6309 98.6641 63.8945C98.5078 64.1582 98.3174 64.4463 98.0928 64.7588C97.9561 64.9541 97.8193 65.1738 97.6826 65.418C97.5459 65.6621 97.4873 65.8818 97.5068 66.0771C97.5264 66.2041 97.5605 66.3066 97.6094 66.3848C97.6582 66.4629 97.7949 66.502 98.0195 66.502C98.1855 66.502 98.3662 66.4434 98.5615 66.3262C98.7666 66.1992 98.9717 66.043 99.1768 65.8574C99.3916 65.6621 99.6016 65.4521 99.8066 65.2275C100.012 64.9932 100.202 64.7686 100.378 64.5537C100.554 64.3291 100.7 64.1289 100.817 63.9531C100.944 63.7773 101.037 63.6504 101.096 63.5723C101.145 63.4941 101.208 63.4404 101.286 63.4111C101.364 63.3818 101.433 63.3818 101.491 63.4111C101.55 63.4404 101.584 63.499 101.594 63.5869C101.613 63.6748 101.579 63.792 101.491 63.9385C101.433 64.0361 101.33 64.1924 101.184 64.4072C101.047 64.6221 100.876 64.8613 100.671 65.125C100.476 65.3887 100.256 65.6621 100.012 65.9453C99.7676 66.2188 99.5088 66.4727 99.2354 66.707C98.9717 66.9316 98.7031 67.1172 98.4297 67.2637C98.166 67.4102 97.9121 67.4834 97.668 67.4834C97.4141 67.4834 97.2041 67.4346 97.0381 67.3369C96.8721 67.2393 96.7354 67.1221 96.6279 66.9854C96.5303 66.8389 96.457 66.6826 96.4082 66.5166C96.3691 66.3408 96.3545 66.1797 96.3643 66.0332C96.374 65.916 96.4033 65.7939 96.4521 65.667C96.5107 65.5303 96.5742 65.3936 96.6426 65.2568C96.7207 65.1104 96.7988 64.9688 96.877 64.832C96.9648 64.6855 97.043 64.5439 97.1113 64.4072C97.2773 64.124 97.4092 63.8848 97.5068 63.6895C97.6143 63.4844 97.668 63.3135 97.668 63.1768C97.668 63.0889 97.6484 63.0107 97.6094 62.9424C97.5703 62.874 97.5068 62.8398 97.4189 62.8398C97.3604 62.8398 97.3164 62.8447 97.2871 62.8545C97.2676 62.8545 97.2432 62.8545 97.2139 62.8545C97.1943 62.8545 97.1602 62.8594 97.1113 62.8691C97.0723 62.8691 97.0088 62.8691 96.9209 62.8691C96.7939 62.8691 96.6865 62.8496 96.5986 62.8105C96.5107 62.7715 96.4277 62.7422 96.3496 62.7227C96.3105 62.791 96.2227 62.9375 96.0859 63.1621C95.9492 63.3867 95.7881 63.6504 95.6025 63.9531C95.4268 64.2559 95.2363 64.5732 95.0312 64.9053C94.8359 65.2373 94.6504 65.5498 94.4746 65.8428C94.2988 66.126 94.1523 66.3701 94.0352 66.5752C93.9082 66.7705 93.8301 66.8877 93.8008 66.9268ZM107.966 64.085C107.829 64.2803 107.653 64.5244 107.438 64.8174C107.224 65.1006 106.999 65.3887 106.765 65.6816C106.54 65.9648 106.315 66.2285 106.091 66.4727C105.876 66.707 105.695 66.873 105.549 66.9707C105.451 67.0293 105.339 67.0781 105.212 67.1172C105.085 67.1562 104.953 67.1807 104.816 67.1904C104.689 67.2002 104.567 67.1904 104.45 67.1611C104.333 67.1416 104.23 67.1025 104.143 67.0439C104.055 66.9756 103.981 66.8779 103.923 66.751C103.874 66.6436 103.825 66.502 103.776 66.3262C103.737 66.1504 103.723 65.9307 103.732 65.667C103.498 66.0576 103.239 66.3604 102.956 66.5752C102.673 66.7803 102.404 66.9316 102.15 67.0293C101.857 67.1367 101.564 67.2002 101.271 67.2197C101.135 67.2197 100.988 67.1709 100.832 67.0732C100.676 66.9854 100.544 66.8438 100.437 66.6484C100.329 66.4434 100.261 66.1846 100.231 65.8721C100.202 65.5498 100.241 65.1689 100.349 64.7295C100.485 64.1338 100.7 63.5918 100.993 63.1035C101.296 62.6152 101.623 62.2002 101.975 61.8584C102.326 61.5068 102.673 61.2432 103.015 61.0674C103.356 60.8916 103.64 60.8135 103.864 60.833C104.128 60.8818 104.343 60.96 104.509 61.0674C104.646 61.165 104.733 61.3115 104.772 61.5068C104.821 61.6924 104.743 61.9414 104.538 62.2539C104.675 62.2246 104.787 62.2051 104.875 62.1953C104.973 62.1855 105.046 62.1807 105.095 62.1807C105.153 62.1807 105.192 62.1855 105.212 62.1953C105.222 62.2148 105.227 62.2588 105.227 62.3271C105.227 62.3857 105.212 62.498 105.183 62.6641C105.153 62.8301 105.109 63.0547 105.051 63.3379C104.992 63.6211 104.914 63.9873 104.816 64.4365C104.797 64.5244 104.777 64.6074 104.758 64.6855C104.748 64.7539 104.733 64.8271 104.714 64.9053C104.704 64.9736 104.689 65.0566 104.67 65.1543C104.65 65.252 104.626 65.374 104.597 65.5205C104.587 65.6084 104.582 65.7061 104.582 65.8135C104.592 65.9111 104.611 66.0039 104.641 66.0918C104.67 66.1797 104.714 66.2529 104.772 66.3115C104.841 66.3604 104.934 66.3848 105.051 66.3848C105.148 66.3848 105.275 66.3262 105.432 66.209C105.588 66.082 105.754 65.9258 105.93 65.7402C106.105 65.5449 106.286 65.335 106.472 65.1104C106.667 64.876 106.848 64.6514 107.014 64.4365C107.18 64.2217 107.326 64.0312 107.453 63.8652C107.59 63.6992 107.688 63.5771 107.746 63.499C107.824 63.4111 107.902 63.3623 107.98 63.3525C108.059 63.333 108.117 63.3525 108.156 63.4111C108.195 63.4697 108.2 63.5576 108.171 63.6748C108.151 63.792 108.083 63.9287 107.966 64.085ZM103.674 64.7295C103.723 64.5342 103.781 64.3047 103.85 64.041C103.918 63.7773 103.977 63.5234 104.025 63.2793C104.074 63.0352 104.108 62.835 104.128 62.6787C104.157 62.5127 104.152 62.4346 104.113 62.4443C104.064 62.4541 104.011 62.4688 103.952 62.4883C103.903 62.5078 103.84 62.5225 103.762 62.5322C103.684 62.542 103.605 62.5566 103.527 62.5762C103.605 62.4199 103.649 62.293 103.659 62.1953C103.679 62.0879 103.684 62.0049 103.674 61.9463C103.664 61.8779 103.645 61.8242 103.615 61.7852C103.508 61.6973 103.317 61.7705 103.044 62.0049C102.78 62.2295 102.473 62.6494 102.121 63.2646C101.975 63.5186 101.857 63.792 101.77 64.085C101.682 64.3682 101.618 64.6367 101.579 64.8906C101.55 65.1445 101.545 65.3691 101.564 65.5645C101.584 65.75 101.623 65.8721 101.682 65.9307C101.789 66.0381 101.911 66.0918 102.048 66.0918C102.185 66.082 102.321 66.043 102.458 65.9746C102.604 65.8965 102.746 65.7988 102.883 65.6816C103.029 65.5645 103.156 65.4424 103.264 65.3154C103.381 65.1885 103.474 65.0713 103.542 64.9639C103.62 64.8564 103.664 64.7783 103.674 64.7295ZM114.616 64.4658C114.479 64.8174 114.323 65.1592 114.147 65.4912C113.972 65.8232 113.776 66.1211 113.562 66.3848C113.347 66.6484 113.117 66.8584 112.873 67.0146C112.629 67.1709 112.365 67.249 112.082 67.249C111.623 67.249 111.276 67.0977 111.042 66.7949C110.808 66.4824 110.646 66.1016 110.559 65.6523C110.422 65.8574 110.275 66.0625 110.119 66.2676C109.963 66.4727 109.797 66.6533 109.621 66.8096C109.445 66.9658 109.265 67.0928 109.079 67.1904C108.894 67.2881 108.708 67.3369 108.522 67.3369C108.269 67.3369 108.054 67.2832 107.878 67.1758C107.702 67.0684 107.556 66.9219 107.438 66.7363C107.331 66.541 107.253 66.3213 107.204 66.0771C107.155 65.8232 107.131 65.5547 107.131 65.2715V65.0957C107.131 64.7344 107.16 64.3633 107.219 63.9824C107.277 63.6016 107.341 63.25 107.409 62.9277C107.487 62.6055 107.565 62.3271 107.644 62.0928C107.722 61.8486 107.78 61.6875 107.819 61.6094C107.888 61.5117 108.034 61.4189 108.259 61.3311C108.493 61.2334 108.723 61.1943 108.947 61.2139C109.055 61.2236 109.108 61.2676 109.108 61.3457C109.118 61.4238 109.108 61.5215 109.079 61.6387C109.04 61.8047 108.972 62.0537 108.874 62.3857C108.776 62.7178 108.674 63.0791 108.566 63.4697C108.469 63.8604 108.381 64.2461 108.303 64.627C108.225 65.0078 108.186 65.3252 108.186 65.5791C108.186 65.8916 108.234 66.1162 108.332 66.2529C108.43 66.3896 108.581 66.458 108.786 66.458C109.03 66.458 109.299 66.3213 109.592 66.0479C109.895 65.7744 110.188 65.3105 110.471 64.6562C110.461 64.5977 110.456 64.5391 110.456 64.4805C110.456 64.4219 110.456 64.3584 110.456 64.29C110.456 63.8506 110.471 63.4307 110.5 63.0303C110.539 62.6299 110.607 62.2783 110.705 61.9756C110.812 61.6729 110.954 61.4336 111.13 61.2578C111.315 61.082 111.555 60.9941 111.848 60.9941C111.965 60.9941 112.062 61.0283 112.141 61.0967C112.219 61.165 112.258 61.2627 112.258 61.3896C112.258 61.7021 112.146 62.1465 111.921 62.7227C111.706 63.2891 111.447 63.9141 111.145 64.5977C111.115 64.6367 111.096 64.6758 111.086 64.7148C111.115 64.9004 111.149 65.0957 111.188 65.3008C111.237 65.5059 111.301 65.6963 111.379 65.8721C111.457 66.0381 111.55 66.1797 111.657 66.2969C111.765 66.4043 111.892 66.458 112.038 66.458C112.253 66.458 112.448 66.3555 112.624 66.1504C112.81 65.9453 112.971 65.6963 113.107 65.4033C113.254 65.1104 113.381 64.8027 113.488 64.4805C113.596 64.1484 113.679 63.8555 113.737 63.6016C113.708 63.4941 113.684 63.3916 113.664 63.2939C113.645 63.1865 113.635 63.0645 113.635 62.9277C113.635 62.625 113.679 62.3662 113.767 62.1514C113.854 61.9365 113.967 61.7607 114.104 61.624C114.25 61.4775 114.401 61.3701 114.558 61.3018C114.724 61.2334 114.875 61.1992 115.012 61.1992C115.256 61.1992 115.378 61.3066 115.378 61.5215C115.378 61.6777 115.339 61.9512 115.261 62.3418C115.183 62.7227 115.07 63.1572 114.924 63.6455C115.1 63.7236 115.324 63.7627 115.598 63.7627C115.852 63.7627 116.086 63.7334 116.301 63.6748C116.516 63.6064 116.711 63.5234 116.887 63.4258C117.062 63.3281 117.224 63.2207 117.37 63.1035C117.517 62.9863 117.658 62.874 117.795 62.7666C117.902 62.6885 117.99 62.6836 118.059 62.752C118.127 62.8203 118.117 62.9277 118.029 63.0742C117.951 63.2012 117.814 63.3477 117.619 63.5137C117.434 63.6797 117.204 63.8408 116.931 63.9971C116.667 64.1436 116.369 64.2705 116.037 64.3779C115.715 64.4756 115.373 64.5244 115.012 64.5244C114.953 64.5244 114.89 64.5195 114.821 64.5098C114.753 64.5 114.685 64.4854 114.616 64.4658ZM124.196 64.085C124.06 64.2803 123.884 64.5244 123.669 64.8174C123.454 65.1006 123.229 65.3887 122.995 65.6816C122.771 65.9648 122.546 66.2285 122.321 66.4727C122.106 66.707 121.926 66.873 121.779 66.9707C121.682 67.0293 121.569 67.0781 121.442 67.1172C121.315 67.1562 121.184 67.1807 121.047 67.1904C120.92 67.2002 120.798 67.1904 120.681 67.1611C120.563 67.1416 120.461 67.1025 120.373 67.0439C120.285 66.9756 120.212 66.8779 120.153 66.751C120.104 66.6436 120.056 66.502 120.007 66.3262C119.968 66.1504 119.953 65.9307 119.963 65.667C119.729 66.0576 119.47 66.3604 119.187 66.5752C118.903 66.7803 118.635 66.9316 118.381 67.0293C118.088 67.1367 117.795 67.2002 117.502 67.2197C117.365 67.2197 117.219 67.1709 117.062 67.0732C116.906 66.9854 116.774 66.8438 116.667 66.6484C116.56 66.4434 116.491 66.1846 116.462 65.8721C116.433 65.5498 116.472 65.1689 116.579 64.7295C116.716 64.1338 116.931 63.5918 117.224 63.1035C117.526 62.6152 117.854 62.2002 118.205 61.8584C118.557 61.5068 118.903 61.2432 119.245 61.0674C119.587 60.8916 119.87 60.8135 120.095 60.833C120.358 60.8818 120.573 60.96 120.739 61.0674C120.876 61.165 120.964 61.3115 121.003 61.5068C121.052 61.6924 120.974 61.9414 120.769 62.2539C120.905 62.2246 121.018 62.2051 121.105 62.1953C121.203 62.1855 121.276 62.1807 121.325 62.1807C121.384 62.1807 121.423 62.1855 121.442 62.1953C121.452 62.2148 121.457 62.2588 121.457 62.3271C121.457 62.3857 121.442 62.498 121.413 62.6641C121.384 62.8301 121.34 63.0547 121.281 63.3379C121.223 63.6211 121.145 63.9873 121.047 64.4365C121.027 64.5244 121.008 64.6074 120.988 64.6855C120.979 64.7539 120.964 64.8271 120.944 64.9053C120.935 64.9736 120.92 65.0566 120.9 65.1543C120.881 65.252 120.856 65.374 120.827 65.5205C120.817 65.6084 120.812 65.7061 120.812 65.8135C120.822 65.9111 120.842 66.0039 120.871 66.0918C120.9 66.1797 120.944 66.2529 121.003 66.3115C121.071 66.3604 121.164 66.3848 121.281 66.3848C121.379 66.3848 121.506 66.3262 121.662 66.209C121.818 66.082 121.984 65.9258 122.16 65.7402C122.336 65.5449 122.517 65.335 122.702 65.1104C122.897 64.876 123.078 64.6514 123.244 64.4365C123.41 64.2217 123.557 64.0312 123.684 63.8652C123.82 63.6992 123.918 63.5771 123.977 63.499C124.055 63.4111 124.133 63.3623 124.211 63.3525C124.289 63.333 124.348 63.3525 124.387 63.4111C124.426 63.4697 124.431 63.5576 124.401 63.6748C124.382 63.792 124.313 63.9287 124.196 64.085ZM119.904 64.7295C119.953 64.5342 120.012 64.3047 120.08 64.041C120.148 63.7773 120.207 63.5234 120.256 63.2793C120.305 63.0352 120.339 62.835 120.358 62.6787C120.388 62.5127 120.383 62.4346 120.344 62.4443C120.295 62.4541 120.241 62.4688 120.183 62.4883C120.134 62.5078 120.07 62.5225 119.992 62.5322C119.914 62.542 119.836 62.5566 119.758 62.5762C119.836 62.4199 119.88 62.293 119.89 62.1953C119.909 62.0879 119.914 62.0049 119.904 61.9463C119.895 61.8779 119.875 61.8242 119.846 61.7852C119.738 61.6973 119.548 61.7705 119.274 62.0049C119.011 62.2295 118.703 62.6494 118.352 63.2646C118.205 63.5186 118.088 63.792 118 64.085C117.912 64.3682 117.849 64.6367 117.81 64.8906C117.78 65.1445 117.775 65.3691 117.795 65.5645C117.814 65.75 117.854 65.8721 117.912 65.9307C118.02 66.0381 118.142 66.0918 118.278 66.0918C118.415 66.082 118.552 66.043 118.688 65.9746C118.835 65.8965 118.977 65.7988 119.113 65.6816C119.26 65.5645 119.387 65.4424 119.494 65.3154C119.611 65.1885 119.704 65.0713 119.772 64.9639C119.851 64.8564 119.895 64.7783 119.904 64.7295ZM127.067 61.6094C127.194 61.5117 127.316 61.4385 127.434 61.3896C127.561 61.3311 127.673 61.292 127.771 61.2725C127.878 61.2432 127.985 61.2334 128.093 61.2432C128.356 61.2627 128.518 61.3457 128.576 61.4922C128.645 61.6387 128.654 61.873 128.605 62.1953C128.576 62.3613 128.518 62.5713 128.43 62.8252C128.342 63.0791 128.239 63.3916 128.122 63.7627C128.005 64.124 127.878 64.5391 127.741 65.0078C127.614 65.4766 127.492 66.0039 127.375 66.5898C127.258 67.0684 127.131 67.6201 126.994 68.2451C126.877 68.792 126.735 69.4512 126.569 70.2227C126.413 70.9941 126.242 71.8779 126.057 72.874C126.008 73.1182 125.9 73.2598 125.734 73.2988C125.578 73.3379 125.412 73.3184 125.236 73.2402C125.168 73.2012 125.104 73.1572 125.046 73.1084C124.997 73.0596 124.943 73.001 124.885 72.9326C124.826 72.874 124.777 72.791 124.738 72.6836C124.963 71.8633 125.158 71.1162 125.324 70.4424C125.5 69.7686 125.656 69.1826 125.793 68.6846C125.939 68.1084 126.076 67.5908 126.203 67.1318C126.252 66.9268 126.296 66.7266 126.335 66.5312C126.384 66.3262 126.433 66.126 126.481 65.9307C126.354 66.1357 126.218 66.3311 126.071 66.5166C125.925 66.7021 125.764 66.8633 125.588 67C125.412 67.1367 125.222 67.2393 125.017 67.3076C124.821 67.3857 124.616 67.4102 124.401 67.3809C123.874 67.3125 123.498 67.1172 123.273 66.7949C123.059 66.4727 122.966 66.0527 122.995 65.5352C123.005 65.3301 123.034 65.1055 123.083 64.8613C123.132 64.6172 123.186 64.3828 123.244 64.1582C123.303 63.9336 123.356 63.7334 123.405 63.5576C123.464 63.3721 123.508 63.2402 123.537 63.1621C123.654 62.791 123.737 62.4736 123.786 62.21C123.845 61.9463 123.806 61.7266 123.669 61.5508C123.806 61.4629 123.933 61.4043 124.05 61.375C124.177 61.3359 124.289 61.3066 124.387 61.2871C124.494 61.2773 124.602 61.2773 124.709 61.2871C124.973 61.3262 125.124 61.4238 125.163 61.5801C125.212 61.7363 125.197 61.9707 125.119 62.2832C125.08 62.4492 125.017 62.6641 124.929 62.9277C124.841 63.1816 124.748 63.4453 124.65 63.7188C124.553 63.9922 124.465 64.2461 124.387 64.4805C124.309 64.7051 124.265 64.8662 124.255 64.9639C124.167 65.4033 124.162 65.7451 124.24 65.9893C124.318 66.2236 124.489 66.3408 124.753 66.3408C124.88 66.3408 125.021 66.2871 125.178 66.1797C125.334 66.0625 125.49 65.9111 125.646 65.7256C125.812 65.54 125.974 65.3301 126.13 65.0957C126.286 64.8516 126.428 64.6074 126.555 64.3633C126.691 64.1191 126.809 63.8799 126.906 63.6455C127.014 63.4111 127.092 63.2012 127.141 63.0156C127.209 62.6543 127.253 62.3711 127.272 62.166C127.292 61.9609 127.224 61.7754 127.067 61.6094Z" fill="black"/>
</svg>
