<svg width="177" height="177" viewBox="0 0 177 177" fill="none" xmlns="http://www.w3.org/2000/svg">
<g filter="url(#filter0_d_367_70)">
<circle cx="88.5" cy="84.5" r="84.5" fill="#D9FEEB"/>
<circle cx="88.5" cy="84.5" r="84" stroke="#005A5C"/>
</g>
<path d="M117.167 74.0417C112.354 74.0417 109.788 78.5333 111.071 82.0625L99.5208 93.6125C98.5583 93.2917 97.275 93.2917 96.3125 93.6125L87.9708 85.2708C89.2542 81.7417 86.6875 77.25 81.875 77.25C77.3833 77.25 74.4958 81.7417 75.7792 85.2708L61.0208 99.7083C57.4917 98.7458 53 101.312 53 106.125C53 109.654 55.8875 112.542 59.4167 112.542C63.9083 112.542 66.7958 108.05 65.5125 104.521L79.95 89.7625C80.9125 90.0833 82.1958 90.0833 83.1583 89.7625L91.5 98.1042C90.5375 101.312 93.1042 106.125 97.9167 106.125C102.729 106.125 105.296 101.633 104.013 98.1042L115.563 86.5542C119.092 87.5167 123.583 84.95 123.583 80.4583C123.583 76.9292 120.696 74.0417 117.167 74.0417ZM97.9167 77.25L100.804 70.5125L107.542 67.625L100.804 64.7375L97.9167 58L95.0292 64.7375L88.2917 67.625L95.0292 70.5125L97.9167 77.25ZM61.0208 83.6667L62.625 77.25L69.0417 75.6458L62.625 74.0417L61.0208 67.625L59.4167 74.0417L53 75.6458L59.4167 77.25L61.0208 83.6667Z" fill="#005A5C"/>
<defs>
<filter id="filter0_d_367_70" x="0" y="0" width="177" height="177" filterUnits="userSpaceOnUse" color-interpolation-filters="sRGB">
<feFlood flood-opacity="0" result="BackgroundImageFix"/>
<feColorMatrix in="SourceAlpha" type="matrix" values="0 0 0 0 0 0 0 0 0 0 0 0 0 0 0 0 0 0 127 0" result="hardAlpha"/>
<feOffset dy="4"/>
<feGaussianBlur stdDeviation="2"/>
<feComposite in2="hardAlpha" operator="out"/>
<feColorMatrix type="matrix" values="0 0 0 0 0 0 0 0 0 0 0 0 0 0 0 0 0 0 0.25 0"/>
<feBlend mode="normal" in2="BackgroundImageFix" result="effect1_dropShadow_367_70"/>
<feBlend mode="normal" in="SourceGraphic" in2="effect1_dropShadow_367_70" result="shape"/>
</filter>
</defs>
</svg>
