<svg width="20" height="21" viewBox="0 0 20 21" fill="none" xmlns="http://www.w3.org/2000/svg">
<path d="M2 5.14228V17.9663L7.065 15.7963L13.065 18.7963L18 16.6793V3.85628L19.303 3.29828C19.3791 3.26566 19.4621 3.25245 19.5445 3.25982C19.627 3.2672 19.7063 3.29493 19.7754 3.34053C19.8445 3.38612 19.9012 3.44817 19.9404 3.52108C19.9796 3.59399 20.0001 3.6755 20 3.75828V17.9993L13 20.9993L7 17.9993L0.697 20.7003C0.620914 20.7329 0.537919 20.7461 0.455466 20.7387C0.373012 20.7314 0.293679 20.7036 0.224587 20.658C0.155495 20.6124 0.0988058 20.5504 0.059607 20.4775C0.0204082 20.4046 -7.34563e-05 20.3231 1.9795e-07 20.2403V5.99928L2 5.14228ZM14.243 10.2423L10 14.4843L5.757 10.2423C4.91799 9.40313 4.34664 8.33403 4.11521 7.17017C3.88378 6.00631 4.00266 4.79996 4.45682 3.70366C4.91098 2.60737 5.68001 1.67036 6.66668 1.01111C7.65336 0.351868 8.81336 0 10 0C11.1866 0 12.3466 0.351868 13.3333 1.01111C14.32 1.67036 15.089 2.60737 15.5432 3.70366C15.9973 4.79996 16.1162 6.00631 15.8848 7.17017C15.6534 8.33403 15.082 9.40313 14.243 10.2423ZM10 11.6563L12.828 8.82728C13.3875 8.26792 13.7686 7.55519 13.9231 6.77923C14.0775 6.00328 13.9983 5.19895 13.6956 4.46797C13.3929 3.737 12.8802 3.11221 12.2224 2.67263C11.5646 2.23305 10.7912 1.99843 10 1.99843C9.20882 1.99843 8.43542 2.23305 7.77759 2.67263C7.11977 3.11221 6.60708 3.737 6.30437 4.46797C6.00165 5.19895 5.92251 6.00328 6.07695 6.77923C6.23139 7.55519 6.61247 8.26792 7.172 8.82728L10 11.6563Z" fill="black"/>
</svg>
