<svg width="302" height="267" viewBox="0 0 302 267" fill="none" xmlns="http://www.w3.org/2000/svg">
<g clip-path="url(#clip0_489_699)">
<path d="M164.607 53.214C154.883 53.214 147 45.3311 147 35.607C147 25.8829 154.883 18 164.607 18C174.331 18 182.214 25.8829 182.214 35.607C182.214 45.3311 174.331 53.214 164.607 53.214Z" fill="#1B1B1B"/>
<path d="M47.713 145.861C49.1151 144.091 49.688 143.676 51.0711 141.889C62.3327 127.324 72.9176 112.267 82.826 96.718C89.5561 86.1576 95.9525 75.3944 102.015 64.4285C104.902 59.2152 107.709 53.9609 110.437 48.6657C112.554 44.56 114.623 40.4297 116.646 36.2748C117.224 35.0881 117.786 33.8959 118.345 32.701C119.663 29.8911 120.956 27.0676 122.345 24.2958C123.927 21.1367 125.853 17.8249 128.759 15.7024C130.081 14.6969 131.662 14.0884 133.317 13.9483C135.682 13.7955 137.865 14.7721 139.916 15.8388C154.941 23.7373 168.965 33.4082 181.689 44.6445C194.431 55.8356 205.821 68.4788 215.626 82.3165C215.926 82.7448 216.635 82.3356 216.332 81.9045C215.14 80.2186 213.924 78.5508 212.685 76.9013C197.273 56.4042 178.376 38.7778 156.858 24.8278C153.237 22.4817 149.549 20.2456 145.793 18.1195C143.899 17.0473 141.998 15.9889 140.064 14.9958C138.168 14.0219 136.154 13.1462 133.988 13.1135C126.617 12.9989 122.8 21.3468 120.179 26.9639C119.355 28.7317 118.521 30.494 117.677 32.2509C114.488 38.921 111.176 45.5302 107.741 52.0785C105.622 56.1215 103.456 60.1409 101.243 64.1366C94.3576 76.5794 87.0391 88.7702 79.2876 100.709C69.0191 116.524 58.8326 130.494 47.1346 145.283C46.8127 145.692 47.3882 146.276 47.713 145.861Z" fill="#252525"/>
<path d="M182.417 40.5223C182.845 40.0449 183.271 39.5674 183.702 39.09C187.101 35.3307 190.748 31.6151 195.416 29.4599C197.642 28.3999 200.072 27.8367 202.537 27.8094C205.085 27.8176 207.575 28.486 209.93 29.4217C211.043 29.8664 212.131 30.3711 213.203 30.9085C214.428 31.5251 215.631 32.1826 216.829 32.8455C219.077 34.0895 221.296 35.388 223.485 36.7411C227.842 39.4338 232.062 42.3319 236.146 45.4355C238.263 47.0451 240.337 48.7074 242.366 50.4224C244.254 52.0156 246.104 53.6516 247.915 55.3302C248.303 55.6876 248.881 55.1093 248.494 54.7519C248.016 54.3072 247.533 53.8653 247.05 53.4288C245.686 52.1957 244.301 50.9862 242.893 49.8004C240.326 47.6343 237.692 45.5519 234.992 43.5532C230.794 40.4431 226.451 37.5441 221.963 34.8561C219.721 33.5139 217.447 32.228 215.143 30.9986C214.447 30.6275 213.743 30.2647 213.031 29.921C211.416 29.1061 209.737 28.4227 208.012 27.8777C205.568 27.087 202.982 26.8329 200.43 27.1329C197.967 27.4912 195.594 28.3122 193.436 29.5527C188.853 32.1143 185.298 36.0755 181.839 39.9412C181.489 40.334 182.065 40.9151 182.417 40.5223Z" fill="#252525"/>
<path d="M88.5104 79.4785L77.5281 75.4617L72.0753 73.4673C70.2994 72.8178 68.5278 72.0783 66.692 71.6132C65.0966 71.1575 63.4027 71.1791 61.8194 71.6753C60.4075 72.1979 59.1151 72.9991 58.019 74.0312C56.8992 75.0624 55.8573 76.1751 54.9018 77.3601C53.7146 78.7868 52.545 80.2285 51.3701 81.6653C46.5211 87.5954 41.7039 93.5513 36.9184 99.5329C32.1329 105.514 27.3795 111.521 22.6581 117.554C17.9251 123.601 13.2246 129.673 8.55676 135.771C7.98494 136.517 7.41361 137.265 6.84276 138.013C6.52738 138.426 5.81624 138.018 6.13607 137.6C10.8384 131.441 15.5735 125.307 20.3413 119.198C25.1209 113.075 29.9336 106.978 34.7792 100.907C39.6248 94.8358 44.503 88.7911 49.4141 82.7727C50.6376 81.2734 51.8631 79.7756 53.0906 78.2796C54.1261 77.0176 55.1499 75.742 56.2856 74.5674C58.3703 72.4113 60.9749 70.506 64.0926 70.4543C65.9256 70.4239 67.6996 71.0055 69.4027 71.6217C71.2388 72.2859 73.0704 72.9625 74.904 73.6332L85.9632 77.6781L88.7279 78.6893C89.2186 78.8688 89.0066 79.66 88.5104 79.4785Z" fill="#252525"/>
<path d="M125.651 31.3412C127.934 27.5665 130.638 23.5362 134.873 22.3036C139.778 20.8762 144.817 23.7118 149.09 26.5099C161.872 34.878 174.18 43.9468 185.959 53.6745L185.947 53.821C176.776 53.1886 167.605 52.5562 158.434 51.9237C151.809 51.4668 144.955 50.9469 139.1 47.8124C136.878 46.623 134.712 45.0342 132.194 44.9235C129.066 44.7859 126.338 46.9706 124.195 49.2532C111.515 62.755 107.846 83.4025 93.6212 95.2648C102.591 73.1436 113.301 51.7687 125.651 31.3412Z" fill="#1D1D1D"/>
<path d="M196.862 34.1893C202.442 31.321 209.59 31.8828 214.718 35.4663C204.936 37.154 195.261 39.4122 185.742 42.2292C189.695 39.9128 192.787 36.2836 196.862 34.1893Z" fill="#1D1D1D"/>
<path d="M58.4325 79.5184C59.5135 78.2024 60.6824 76.8245 62.2994 76.29L63.8091 76.3496C52.3169 96.6566 36.7959 114.401 18.1987 128.493C31.61 112.168 45.0212 95.8432 58.4325 79.5184Z" fill="#1D1D1D"/>
<path d="M240.368 95.0729C241.58 94.8018 242.809 94.5877 244.021 94.4385L244.198 94.4167C252.249 93.4581 259.046 96.8187 260.008 102.234L260.179 103.214C260.286 103.834 260.401 104.5 260.538 105.237C260.605 105.601 260.239 105.973 259.707 106.092L66.0681 149.378C52.3943 152.335 38.7644 155.255 25.5593 158.059C23.0883 158.617 20.5851 159.022 18.0641 159.271C14.2916 159.59 11.5296 159.17 9.6195 157.985L9.61901 157.985C7.24493 156.517 6.64767 154.133 6.16 151.398C5.17749 145.876 4.13121 140.077 3.08836 134.296C2.16972 129.201 1.25312 124.119 0.384462 119.252C-0.125796 116.363 -0.403182 113.774 1.37828 111.35C3.31017 108.726 7.44787 106.691 13.6765 105.299C13.7517 105.282 13.8264 105.265 13.9027 105.248C33.4405 100.965 54.5089 104.368 66.3283 113.717C67.6893 114.794 68.9984 115.979 70.2644 117.126C72.1375 118.902 74.1335 120.544 76.2377 122.04C77.3995 122.839 78.6321 123.531 79.92 124.106C80.0086 124.149 80.1091 124.194 80.2138 124.235C80.4571 124.344 80.7085 124.446 80.9509 124.533C82.3617 125.077 83.8262 125.47 85.3199 125.706L85.4688 125.728C85.5815 125.748 85.7029 125.765 85.8234 125.779C86.6796 125.894 87.5416 125.962 88.4053 125.982C92.1379 126.089 96.2025 125.406 100.485 123.952C104.438 122.594 108.214 120.769 111.733 118.514C115.466 116.127 118.858 113.433 122.138 110.828C123.579 109.683 125.069 108.5 126.567 107.36C126.849 107.145 127.126 106.935 127.407 106.724C129.241 105.353 130.921 104.185 132.541 103.151C136.52 100.601 140.836 98.6209 145.365 97.2702C150.151 95.879 154.558 95.4997 158.46 96.1396C159.543 96.3167 160.612 96.5787 161.654 96.9232C166.461 98.5102 169.911 101.667 173.247 104.72C177.397 108.517 181.689 112.444 188.649 113.421C196.68 114.551 207.235 110.976 214.435 107.253C216.699 106.083 218.939 104.817 221.105 103.594C221.979 103.099 222.855 102.607 223.732 102.116C225.456 101.154 226.873 100.396 228.192 99.7285L228.609 99.5165C228.841 99.3999 229.074 99.2834 229.311 99.1688C230.882 98.3961 232.358 97.7346 233.825 97.1457L234.172 97.0047C234.87 96.7336 235.525 96.4915 236.171 96.2667L236.428 96.1773C237.72 95.7382 239.035 95.3695 240.368 95.0729Z" fill="#101010"/>
<path d="M51.8363 168.849C52.1838 168.5 52.4504 168.078 52.6175 167.615C52.7846 167.152 52.848 166.657 52.8033 166.167C52.7587 165.676 52.607 165.201 52.3589 164.776C52.1109 164.35 51.7726 163.984 51.3678 163.703L56.7328 137.056L50.8081 138.958L46.5137 164.733C46.0872 165.444 45.9365 166.287 46.0901 167.102C46.2436 167.917 46.6908 168.648 47.3469 169.155C48.0029 169.662 48.8223 169.911 49.6498 169.855C50.4772 169.798 51.2552 169.44 51.8363 168.849Z" fill="#9E616A"/>
<path d="M72.8473 241.607L77.6292 241.607L79.9043 223.162L72.8466 223.162L72.8473 241.607Z" fill="#9E616A"/>
<path d="M42.3823 234.983L47.1642 234.95L49.3098 216.489L43.0904 217.916L42.3823 234.983Z" fill="#9E616A"/>
<path d="M57.3387 128.321L56.2553 131.138L56.4718 133.956L77.6779 141.3L76.6256 128.971L74.2417 126.154L57.3387 128.321Z" fill="#FFB6B6"/>
<path d="M66.4361 102.969C62.2532 102.969 58.8622 99.5781 58.8622 95.3952C58.8622 91.2122 62.2532 87.8213 66.4361 87.8213C70.6191 87.8213 74.01 91.2122 74.01 95.3952C74.01 99.5781 70.6191 102.969 66.4361 102.969Z" fill="#9E616A"/>
<path d="M70.7082 250.686H74.1014L74.7071 247.482L76.2584 250.686H85.258C85.6893 250.686 86.1094 250.548 86.4569 250.292C86.8044 250.037 87.0611 249.677 87.1895 249.265C87.3178 248.853 87.3112 248.411 87.1705 248.003C87.0299 247.595 86.7625 247.243 86.4075 246.998L79.2207 242.035V238.796L71.6614 239.247L70.7082 250.686Z" fill="#363636"/>
<path d="M39.8734 244.081L43.2666 244.057L43.8498 240.85L45.4234 244.042L54.4228 243.979C54.8542 243.976 55.2733 243.835 55.619 243.577C55.9647 243.319 56.2188 242.958 56.3443 242.545C56.4698 242.132 56.4601 241.69 56.3165 241.283C56.173 240.876 55.9032 240.526 55.5466 240.284L48.3251 235.37L48.3025 232.132L40.7465 232.636L39.8734 244.081Z" fill="#363636"/>
<path d="M79.7257 168.849C79.3782 168.5 79.1116 168.078 78.9445 167.615C78.7774 167.152 78.714 166.657 78.7587 166.167C78.8033 165.676 78.9551 165.201 79.2031 164.776C79.4511 164.35 79.7895 163.984 80.1943 163.703L74.8293 137.056L80.7539 138.958L85.0483 164.733C85.4748 165.444 85.6255 166.287 85.472 167.102C85.3184 167.917 84.8712 168.648 84.2152 169.155C83.5591 169.662 82.7397 169.911 81.9123 169.855C81.0848 169.798 80.3068 169.44 79.7257 168.849Z" fill="#9E616A"/>
<path d="M58.3256 88.6609C56.9146 89.081 55.5982 87.9007 54.6161 86.7825L54.9652 87.1967C52.6549 88.8236 51.2735 91.474 50.3772 94.157C49.4809 96.837 48.981 99.6442 47.9693 102.286C46.9577 104.924 45.3248 107.477 42.8252 108.794C39.4767 110.557 35.3739 109.755 31.8123 108.483C31.765 108.465 31.7207 108.45 31.6733 108.433C33.1158 105.738 33.9992 102.78 34.2705 99.7359C32.8054 102.596 30.6924 105.075 28.1 106.974C25.7729 105.916 23.5352 104.672 21.4088 103.253C20.0333 102.333 18.5839 101.144 18.4241 99.4963C18.2614 97.8605 19.4831 96.3667 20.9237 95.5798C22.3643 94.793 24.0208 94.5268 25.5945 94.0535C27.1652 93.5831 28.7685 92.8111 29.5938 91.3912C31.4958 88.1255 28.2952 83.5198 30.3363 80.3369C31.342 78.7721 33.2944 78.145 35.1047 77.7101C37.8679 77.0492 40.6726 76.5758 43.4997 76.2932C45.9815 76.0447 48.5461 75.953 50.9067 76.7517C53.2672 77.5504 55.4089 79.4051 55.9147 81.8485C57.2932 82.5732 58.7515 83.3748 59.491 84.7503C60.2305 86.1229 59.8194 88.2172 58.3256 88.6609Z" fill="#363636"/>
<path d="M56.2192 88.1105C54.8681 89.8031 54.1326 91.6335 54.1326 92.7297C51.3258 97.8596 55.3396 102.266 60.4696 105.073C62.5157 106.198 64.8784 106.61 67.1846 106.243L67.3992 105.327L67.69 106.152C67.69 106.152 71.03 117.184 72.1317 117.831C71.7136 115.868 71.2348 106.778 71.002 104.862C70.6798 102.254 71.803 98.3717 72.6132 96.0108C73.1156 94.5557 73.3734 93.0275 73.3762 91.4881V91.4208L74.1651 93.9548L77.0372 92.7296C76.5029 89.6648 77.0372 86.1855 70.6312 86.4872C67.1665 84.1044 64.1154 83.7414 61.6091 84.4172C61.2857 83.9172 59.4206 84.8538 58.8816 84.5905" fill="#363636"/>
<path d="M76.3364 124.01C76.3546 123.873 76.3182 123.736 76.235 123.626C76.1518 123.517 76.0287 123.445 75.8926 123.427L54.6377 120.169C54.5703 120.16 54.5018 120.164 54.4361 120.181C54.3703 120.199 54.3086 120.229 54.2545 120.27C54.2004 120.311 54.155 120.363 54.1207 120.421C54.0865 120.48 54.0642 120.545 54.0551 120.612C54.046 120.68 54.0502 120.748 54.0676 120.814C54.085 120.88 54.1151 120.942 54.1563 120.996C54.1975 121.05 54.249 121.095 54.3077 121.129C54.3665 121.164 54.4314 121.186 54.4988 121.195L75.7537 124.453C75.8898 124.471 76.0276 124.435 76.1368 124.352C76.246 124.269 76.3178 124.146 76.3364 124.01Z" fill="#3F3D56"/>
<path d="M9.33464 160.088C9.35871 160.088 9.38274 160.086 9.4063 160.081L264.881 106.152C264.97 106.133 265.048 106.079 265.097 106.003C265.147 105.926 265.164 105.833 265.145 105.744C265.126 105.654 265.073 105.576 264.997 105.526C264.92 105.476 264.827 105.458 264.738 105.477L9.26367 159.405C9.18016 159.423 9.10615 159.471 9.05588 159.54C9.00561 159.609 8.98267 159.694 8.99149 159.779C9.00031 159.864 9.04026 159.942 9.10364 159.999C9.16701 160.057 9.24929 160.088 9.33464 160.088Z" fill="black"/>
<path d="M127.549 187.023C127.589 187.023 127.63 187.016 127.668 187.002L156.758 176.316C156.844 176.284 156.914 176.22 156.952 176.137C156.99 176.054 156.994 175.959 156.963 175.873C156.931 175.787 156.867 175.717 156.784 175.678C156.701 175.64 156.606 175.636 156.52 175.668L127.43 186.354C127.354 186.382 127.29 186.436 127.25 186.506C127.209 186.576 127.195 186.658 127.209 186.738C127.223 186.818 127.265 186.89 127.327 186.942C127.389 186.994 127.468 187.023 127.549 187.023Z" fill="#454545"/>
<path d="M180.715 167C180.756 167 180.796 166.992 180.834 166.978L209.924 156.292C210.01 156.261 210.08 156.196 210.118 156.113C210.157 156.03 210.161 155.935 210.129 155.849C210.097 155.763 210.033 155.693 209.95 155.655C209.867 155.617 209.772 155.613 209.686 155.644L180.596 166.33C180.52 166.358 180.456 166.412 180.416 166.482C180.376 166.553 180.361 166.635 180.375 166.715C180.39 166.795 180.431 166.867 180.494 166.919C180.556 166.971 180.634 167 180.715 167Z" fill="#454545"/>
<path d="M234.917 146.976C234.958 146.976 234.998 146.969 235.036 146.955L264.126 136.269C264.169 136.253 264.208 136.229 264.241 136.199C264.274 136.168 264.301 136.131 264.32 136.09C264.339 136.049 264.35 136.004 264.352 135.959C264.354 135.914 264.347 135.868 264.331 135.826C264.315 135.783 264.292 135.744 264.261 135.711C264.23 135.677 264.193 135.651 264.152 135.632C264.111 135.612 264.066 135.602 264.021 135.6C263.976 135.598 263.931 135.605 263.888 135.621L234.798 146.307C234.722 146.335 234.658 146.389 234.618 146.459C234.578 146.529 234.563 146.612 234.577 146.691C234.592 146.771 234.633 146.843 234.696 146.896C234.758 146.948 234.836 146.976 234.917 146.976Z" fill="#454545"/>
<path d="M153.644 266.277C153.729 266.277 153.811 266.245 153.875 266.188L301.636 132.999C301.703 132.938 301.744 132.852 301.749 132.76C301.754 132.669 301.722 132.58 301.661 132.512C301.599 132.444 301.514 132.403 301.422 132.398C301.331 132.393 301.241 132.425 301.173 132.486L153.412 265.675C153.36 265.722 153.324 265.783 153.308 265.851C153.291 265.919 153.296 265.99 153.321 266.055C153.346 266.121 153.39 266.177 153.448 266.216C153.506 266.256 153.574 266.277 153.644 266.277Z" fill="#454545"/>
<path d="M167.339 261.317L165.104 258.835L174.968 249.952L177.204 252.435L173.79 255.509L181.774 264.376L178.737 267.111L170.753 258.244L167.339 261.317ZM185.139 252.676L189.451 257.464L186.392 260.218L176.172 248.868L179.12 246.214L183.132 250.669L183.221 250.59C182.924 249.873 182.863 249.163 183.037 248.457C183.208 247.748 183.608 247.111 184.236 246.545C184.838 246.003 185.484 245.669 186.173 245.543C186.866 245.414 187.551 245.48 188.228 245.741C188.908 245.998 189.525 246.439 190.08 247.063L194.97 252.494L191.911 255.248L187.6 250.46C187.224 250.035 186.821 249.8 186.391 249.752C185.964 249.702 185.555 249.853 185.163 250.206C184.916 250.428 184.748 250.68 184.659 250.961C184.571 251.234 184.566 251.519 184.646 251.815C184.726 252.105 184.89 252.391 185.139 252.676ZM200.699 247.617C199.79 248.435 198.851 248.966 197.88 249.211C196.91 249.449 195.954 249.401 195.01 249.066C194.067 248.725 193.183 248.096 192.358 247.179C191.566 246.3 191.052 245.372 190.814 244.395C190.577 243.418 190.617 242.455 190.934 241.508C191.251 240.56 191.849 239.69 192.729 238.898C193.371 238.319 194.043 237.895 194.744 237.625C195.444 237.356 196.151 237.245 196.863 237.293C197.572 237.337 198.269 237.539 198.954 237.899C199.639 238.259 200.286 238.777 200.895 239.453L201.533 240.162L193.93 247.008L192.413 245.324L197.201 241.012C196.978 240.772 196.722 240.614 196.434 240.539C196.146 240.457 195.854 240.456 195.558 240.535C195.262 240.608 194.986 240.759 194.731 240.988C194.484 241.211 194.305 241.469 194.194 241.763C194.08 242.053 194.044 242.346 194.085 242.644C194.129 242.939 194.259 243.213 194.475 243.467L196.111 245.285C196.357 245.558 196.634 245.751 196.942 245.862C197.249 245.973 197.565 245.993 197.889 245.922C198.213 245.851 198.527 245.679 198.83 245.406C199.04 245.217 199.206 245.014 199.326 244.799C199.45 244.58 199.525 244.359 199.551 244.135C199.573 243.907 199.543 243.687 199.459 243.475L202.252 240.96C202.688 241.638 202.923 242.356 202.958 243.115C202.988 243.869 202.816 244.633 202.441 245.406C202.067 246.171 201.486 246.908 200.699 247.617ZM213.407 235.893L209.04 239.825L198.821 228.476L203.143 224.583C204.311 223.532 205.524 222.851 206.783 222.541C208.042 222.223 209.285 222.281 210.512 222.715C211.74 223.142 212.886 223.946 213.95 225.129C215.015 226.311 215.698 227.535 216.002 228.8C216.302 230.062 216.233 231.301 215.796 232.518C215.356 233.73 214.56 234.855 213.407 235.893ZM209.766 234.435L210.941 233.377C211.503 232.872 211.899 232.35 212.132 231.813C212.368 231.273 212.39 230.688 212.197 230.058C212.009 229.426 211.558 228.714 210.847 227.923C210.135 227.132 209.472 226.612 208.859 226.361C208.249 226.108 207.657 226.075 207.084 226.263C206.515 226.448 205.934 226.807 205.343 227.339L204.257 228.317L209.766 234.435ZM223.021 227.477C222.478 227.966 221.918 228.31 221.341 228.509C220.764 228.7 220.193 228.72 219.627 228.567C219.061 228.414 218.524 228.055 218.015 227.49C217.596 227.024 217.318 226.555 217.18 226.083C217.04 225.608 217.017 225.137 217.112 224.67C217.207 224.203 217.393 223.745 217.67 223.295C217.951 222.841 218.296 222.4 218.706 221.971C219.149 221.505 219.491 221.116 219.733 220.805C219.975 220.487 220.117 220.221 220.16 220.009C220.2 219.793 220.146 219.603 220 219.441L219.98 219.418C219.78 219.197 219.542 219.103 219.266 219.138C218.989 219.173 218.718 219.31 218.452 219.55C218.16 219.812 217.98 220.092 217.912 220.387C217.844 220.676 217.91 220.968 218.109 221.264L215.294 223.798C214.865 223.248 214.6 222.623 214.499 221.925C214.399 221.219 214.514 220.48 214.843 219.709C215.168 218.934 215.754 218.166 216.6 217.404C217.21 216.855 217.822 216.435 218.435 216.143C219.046 215.847 219.636 215.674 220.205 215.623C220.771 215.568 221.296 215.631 221.779 215.811C222.263 215.984 222.683 216.269 223.039 216.664L228.288 222.494L225.429 225.069L224.351 223.872L224.284 223.932C224.401 224.402 224.425 224.846 224.357 225.261C224.294 225.673 224.146 226.063 223.916 226.431C223.689 226.796 223.391 227.145 223.021 227.477ZM222.283 224.651C222.515 224.441 222.69 224.197 222.807 223.918C222.927 223.635 222.97 223.345 222.937 223.048C222.903 222.75 222.77 222.472 222.537 222.214L221.898 221.504C221.847 221.611 221.788 221.72 221.723 221.833C221.661 221.943 221.589 222.057 221.509 222.176C221.433 222.291 221.347 222.412 221.253 222.537C221.162 222.659 221.064 222.784 220.958 222.913C220.755 223.162 220.616 223.398 220.541 223.619C220.467 223.834 220.447 224.035 220.483 224.224C220.519 224.405 220.604 224.57 220.737 224.717C220.95 224.954 221.196 225.06 221.476 225.036C221.755 225.012 222.024 224.883 222.283 224.651ZM229.75 221.178L222.086 212.666L225.056 209.991L226.513 211.609L226.602 211.529C226.218 210.791 226.07 210.132 226.156 209.552C226.247 208.969 226.519 208.473 226.973 208.064C227.106 207.944 227.248 207.837 227.397 207.743C227.547 207.641 227.699 207.554 227.854 207.482L230.204 210.092C230.006 210.176 229.785 210.306 229.54 210.479C229.295 210.653 229.093 210.812 228.934 210.955C228.635 211.224 228.427 211.535 228.31 211.888C228.193 212.234 228.176 212.591 228.259 212.957C228.338 213.321 228.525 213.665 228.817 213.99L232.809 218.424L229.75 221.178ZM237.449 210.593L234.198 206.937L234.597 206.578L234.084 201.862L237.52 198.769L238.074 206.338L237.209 207.116L237.449 210.593ZM236.517 215.085L226.297 203.735L229.357 200.981L239.576 212.331L236.517 215.085ZM241.771 210.355L236.786 208.742L236.825 204.773L245.273 207.201L241.771 210.355ZM247.838 196.222L252.149 201.01L249.09 203.764L238.871 192.414L241.819 189.76L245.831 194.215L245.92 194.136C245.623 193.419 245.561 192.709 245.736 192.003C245.906 191.294 246.306 190.657 246.934 190.091C247.536 189.549 248.182 189.215 248.872 189.089C249.565 188.96 250.25 189.026 250.926 189.287C251.606 189.544 252.224 189.985 252.779 190.609L257.669 196.04L254.61 198.794L250.298 194.006C249.923 193.582 249.52 193.346 249.089 193.298C248.663 193.248 248.253 193.399 247.862 193.752C247.614 193.974 247.446 194.226 247.357 194.507C247.269 194.78 247.265 195.065 247.344 195.361C247.424 195.651 247.589 195.937 247.838 196.222ZM263.42 191.143C262.496 191.974 261.541 192.503 260.554 192.73C259.564 192.952 258.597 192.893 257.654 192.551C256.707 192.206 255.842 191.597 255.056 190.725C254.271 189.853 253.758 188.931 253.517 187.957C253.273 186.98 253.314 186.012 253.643 185.054C253.968 184.093 254.592 183.196 255.516 182.364C256.439 181.533 257.396 181.005 258.387 180.783C259.374 180.556 260.34 180.616 261.287 180.961C262.23 181.303 263.094 181.909 263.879 182.781C264.664 183.653 265.179 184.578 265.424 185.555C265.665 186.529 265.623 187.497 265.298 188.458C264.969 189.416 264.343 190.311 263.42 191.143ZM261.406 188.862C261.665 188.629 261.81 188.341 261.842 187.997C261.874 187.654 261.797 187.275 261.611 186.86C261.425 186.446 261.133 186.017 260.734 185.574C260.331 185.127 259.935 184.791 259.545 184.566C259.153 184.338 258.784 184.222 258.439 184.218C258.094 184.214 257.793 184.328 257.534 184.561C257.26 184.807 257.104 185.105 257.065 185.455C257.025 185.805 257.098 186.187 257.284 186.602C257.467 187.013 257.76 187.442 258.162 187.889C258.561 188.332 258.957 188.668 259.35 188.896C259.743 189.125 260.116 189.237 260.468 189.235C260.82 189.232 261.133 189.108 261.406 188.862ZM268.933 185.898L261.268 177.385L264.239 174.711L265.696 176.329L265.785 176.249C265.401 175.511 265.252 174.852 265.339 174.272C265.429 173.689 265.702 173.193 266.156 172.783C266.289 172.664 266.43 172.557 266.58 172.462C266.729 172.361 266.882 172.274 267.037 172.201L269.387 174.812C269.189 174.896 268.968 175.025 268.723 175.199C268.478 175.373 268.276 175.531 268.117 175.674C267.818 175.944 267.609 176.255 267.492 176.608C267.376 176.954 267.359 177.31 267.442 177.677C267.521 178.04 267.707 178.385 268 178.71L271.992 183.143L268.933 185.898ZM278.311 167.058L275.496 169.592C275.324 169.432 275.129 169.337 274.908 169.308C274.688 169.279 274.463 169.308 274.233 169.394C274.004 169.474 273.788 169.605 273.584 169.788C273.322 170.024 273.14 170.275 273.038 170.541C272.936 170.807 272.967 171.026 273.13 171.2C273.24 171.329 273.398 171.398 273.605 171.405C273.816 171.409 274.111 171.294 274.489 171.061L276.498 169.814C277.513 169.188 278.402 168.872 279.167 168.866C279.931 168.853 280.598 169.159 281.167 169.784C281.709 170.393 282.002 171.083 282.046 171.853C282.091 172.615 281.914 173.396 281.517 174.196C281.12 174.988 280.528 175.739 279.741 176.447C278.44 177.618 277.183 178.269 275.969 178.399C274.758 178.525 273.718 178.191 272.848 177.395L275.885 174.661C276.168 174.894 276.489 174.983 276.848 174.928C277.206 174.866 277.559 174.678 277.907 174.366C278.187 174.113 278.375 173.857 278.47 173.598C278.568 173.335 278.539 173.114 278.383 172.933C278.233 172.774 278.035 172.718 277.79 172.765C277.548 172.808 277.235 172.95 276.849 173.191L275.102 174.282C274.097 174.912 273.188 175.21 272.373 175.174C271.558 175.138 270.851 174.784 270.253 174.112C269.717 173.525 269.421 172.884 269.366 172.191C269.311 171.491 269.481 170.77 269.876 170.027C270.27 169.276 270.872 168.537 271.682 167.808C272.912 166.701 274.111 166.082 275.28 165.954C276.452 165.821 277.462 166.189 278.311 167.058ZM289.093 168.027C288.184 168.845 287.244 169.377 286.274 169.621C285.304 169.859 284.347 169.811 283.404 169.476C282.461 169.135 281.577 168.506 280.752 167.589C279.96 166.71 279.445 165.782 279.208 164.805C278.97 163.828 279.01 162.866 279.327 161.918C279.645 160.97 280.243 160.1 281.122 159.308C281.765 158.729 282.437 158.305 283.137 158.035C283.838 157.766 284.544 157.655 285.256 157.703C285.965 157.747 286.662 157.949 287.347 158.309C288.033 158.669 288.68 159.187 289.288 159.863L289.927 160.572L282.323 167.418L280.807 165.734L285.595 161.422C285.372 161.182 285.116 161.024 284.828 160.949C284.54 160.867 284.247 160.866 283.951 160.945C283.655 161.018 283.38 161.169 283.125 161.398C282.877 161.621 282.698 161.88 282.588 162.173C282.474 162.463 282.438 162.756 282.478 163.054C282.523 163.349 282.653 163.623 282.868 163.877L284.505 165.695C284.751 165.969 285.028 166.161 285.335 166.272C285.643 166.383 285.959 166.403 286.283 166.332C286.607 166.261 286.92 166.089 287.223 165.816C287.434 165.627 287.599 165.424 287.72 165.209C287.844 164.99 287.919 164.769 287.945 164.545C287.967 164.317 287.936 164.097 287.852 163.885L290.646 161.37C291.082 162.048 291.317 162.766 291.351 163.525C291.382 164.28 291.21 165.043 290.835 165.816C290.46 166.581 289.88 167.318 289.093 168.027ZM296.98 150.248L294.165 152.783C293.994 152.622 293.798 152.527 293.578 152.498C293.358 152.469 293.132 152.498 292.903 152.584C292.673 152.664 292.457 152.795 292.254 152.978C291.991 153.214 291.809 153.465 291.707 153.731C291.605 153.997 291.636 154.217 291.799 154.391C291.909 154.519 292.067 154.588 292.275 154.595C292.486 154.599 292.78 154.484 293.159 154.251L295.167 153.004C296.182 152.378 297.072 152.062 297.836 152.056C298.6 152.043 299.267 152.349 299.837 152.974C300.378 153.583 300.671 154.273 300.716 155.043C300.76 155.805 300.584 156.586 300.186 157.386C299.789 158.178 299.197 158.929 298.41 159.637C297.11 160.808 295.852 161.459 294.638 161.589C293.427 161.715 292.387 161.381 291.517 160.586L294.554 157.851C294.837 158.084 295.158 158.173 295.517 158.118C295.876 158.056 296.229 157.868 296.576 157.556C296.857 157.303 297.044 157.047 297.139 156.788C297.237 156.525 297.208 156.304 297.052 156.123C296.902 155.964 296.705 155.908 296.459 155.955C296.218 155.999 295.904 156.14 295.518 156.381L293.771 157.472C292.767 158.102 291.857 158.4 291.042 158.364C290.227 158.328 289.521 157.974 288.922 157.302C288.386 156.715 288.091 156.074 288.035 155.381C287.981 154.681 288.15 153.96 288.545 153.217C288.94 152.466 289.542 151.727 290.351 150.999C291.581 149.891 292.781 149.272 293.949 149.144C295.121 149.011 296.132 149.379 296.98 150.248Z" fill="#262626"/>
<path d="M53.6978 155.011L74.4119 154.665L76.1381 140.511H53.6978V155.011Z" fill="#9E616A"/>
<path d="M59.7581 112.469L56.0821 109.695C56.0821 109.695 52.8394 109.465 52.265 115.313C51.6907 121.161 50.5114 132.557 50.5114 132.557L44.8865 158.61L52.673 160.319L58.6977 132.204L62.3119 123.855L59.7581 112.469Z" fill="#363636"/>
<path d="M50.6174 149.012L51.3079 142.107C51.3796 141.825 51.5386 141.574 51.7622 141.388C51.9858 141.202 52.2624 141.092 52.5525 141.073C52.8402 137.784 54.0506 123.594 54.1229 122.975L54.1257 122.949L54.6761 111.191C54.6961 110.764 54.8727 110.36 55.1722 110.055C55.4717 109.749 55.873 109.565 56.2996 109.538L59.2068 109.348C59.2466 109.346 59.2844 109.329 59.3122 109.301C59.3399 109.272 59.3554 109.234 59.3554 109.194C59.3554 108.873 59.4186 108.555 59.5415 108.258C59.6644 107.962 59.8444 107.692 60.0715 107.465C60.2985 107.238 60.568 107.058 60.8646 106.935C61.1612 106.812 61.4791 106.749 61.8002 106.749H70.4073C70.9648 106.749 71.503 106.953 71.921 107.322C72.339 107.691 72.608 108.2 72.6774 108.753C72.6812 108.791 72.6993 108.826 72.728 108.851C72.7566 108.877 72.7938 108.89 72.8321 108.889L72.8331 108.889C73.8111 108.869 74.764 109.2 75.5187 109.823C76.2735 110.445 76.7801 111.317 76.9468 112.281C78.1235 119.128 80.4817 134.666 79.3158 143.305C78.9099 146.312 79.7848 143.93 79.9383 146.446C79.9535 146.69 79.9207 146.933 79.8415 147.164C79.7624 147.394 79.6386 147.607 79.4772 147.789C80.1877 147.996 80.4632 148.763 80.2809 149.486L80.4322 149.449C80.3427 149.804 80.1157 150.109 79.8013 150.297C79.4869 150.485 79.1107 150.54 78.7556 150.45L52.3093 143.784C51.5698 143.597 50.431 149.751 50.6174 149.012Z" fill="#2F2E41"/>
<path d="M71.804 112.469L75.4799 109.695C75.4799 109.695 78.7227 109.465 79.297 115.313C79.8713 121.161 81.0506 132.557 81.0506 132.557L86.6755 158.61L78.8891 160.319L72.8644 132.204L69.2501 123.855L71.804 112.469Z" fill="#363636"/>
<path d="M40.8943 221.856L44.3764 200.582L48.5192 171.237C45.4853 165.603 52.3168 148.106 52.3168 148.106L53.2811 148.153L75.1071 152.27L75.1024 152.249C79.5665 164.425 81.0455 170.44 80.8009 183.406L79.9214 230.017H80.1973C80.6551 230.017 81.0942 230.198 81.4179 230.522C81.7416 230.846 81.9235 231.285 81.9235 231.743C81.9235 232.201 81.7416 232.64 81.4179 232.963C81.0942 233.287 80.6551 233.469 80.1973 233.469H71.5664C71.1086 233.469 70.6695 233.287 70.3458 232.963C70.0221 232.64 69.8402 232.201 69.8402 231.743C69.8402 231.285 70.0221 230.846 70.3458 230.522C70.6695 230.198 71.1086 230.017 71.5664 230.017H71.7889L63.8668 174.518L57.1501 197.82L49.5549 221.642C52.3168 220.951 51.888 222.551 51.888 223.457C51.888 223.915 51.7061 224.354 51.3824 224.678C51.0587 225.001 50.6196 225.183 50.1618 225.183H41.5309C41.1295 225.184 40.7405 225.044 40.431 224.788C40.1215 224.533 39.9108 224.177 39.8354 223.783C39.76 223.389 39.8245 222.98 40.0178 222.628C40.2111 222.277 40.5211 222.003 40.8943 221.856Z" fill="#363636"/>
<path d="M49.0476 141.97C49.1693 143.057 49.6506 144.071 50.4149 144.853C51.1792 145.635 52.1828 146.139 53.2663 146.286L68.8606 148.398C70.1501 148.572 71.4557 148.226 72.4907 147.438C73.5257 146.65 74.2056 145.483 74.3809 144.193L76.6284 127.574C76.7748 126.493 76.5561 125.395 76.007 124.453L76.114 123.645C76.5569 123.484 76.9472 123.205 77.2429 122.837C77.5385 122.47 77.7283 122.03 77.7915 121.562C77.8548 121.095 77.7892 120.62 77.6019 120.188C77.4145 119.755 77.1125 119.382 76.7285 119.109L74.8021 110.184C74.828 109.993 74.8135 109.799 74.7597 109.613C74.7059 109.428 74.6139 109.256 74.4897 109.109C74.3655 108.961 74.2119 108.841 74.0385 108.756C73.8652 108.672 73.6761 108.624 73.4833 108.617C73.1329 108.613 72.7935 108.739 72.5303 108.97C72.267 109.202 72.0987 109.522 72.0575 109.87L71.8814 111.182C71.6462 112.916 70.7613 114.496 69.4057 115.603C68.0501 116.709 66.3249 117.26 64.5789 117.143C62.8329 117.027 61.1963 116.252 59.9999 114.974C58.8035 113.697 58.1367 112.014 58.1342 110.264C58.1343 109.951 58.1551 109.638 58.1963 109.328L58.3689 108.037C58.4252 107.678 58.3431 107.311 58.1393 107.011C57.9355 106.71 57.6252 106.498 57.2711 106.418C57.0867 106.383 56.897 106.386 56.7138 106.426C56.5306 106.467 56.3576 106.545 56.2054 106.655C56.0532 106.765 55.925 106.904 55.8287 107.065C55.7323 107.227 55.6698 107.406 55.645 107.592L54.5299 115.808C53.9166 115.766 53.3083 115.943 52.814 116.309C52.3197 116.675 51.9717 117.204 51.8325 117.803C51.6933 118.402 51.7719 119.031 52.0543 119.577C52.3366 120.123 52.8043 120.55 53.3734 120.783C52.8152 121.17 52.3436 121.668 51.9888 122.247C51.6339 122.826 51.4036 123.473 51.3123 124.146L49.0614 140.769C49.0068 141.167 49.0022 141.571 49.0476 141.97Z" fill="#2A70FA"/>
<path d="M73.8523 132.735L74.5549 127.544C74.6091 127.143 74.502 126.738 74.2571 126.416C74.0123 126.095 73.6498 125.884 73.2493 125.829L52.949 123.233C52.5486 123.178 52.143 123.285 51.8215 123.53C51.5 123.775 51.289 124.138 51.2348 124.538L50.5323 129.729C50.4781 130.13 50.5852 130.535 50.83 130.857C51.0748 131.178 51.4374 131.389 51.8378 131.443L59.9463 132.559C59.9296 132.614 59.9161 132.671 59.9059 132.728L59.1882 138.03L52.3459 137.104C52.3009 137.098 52.2552 137.101 52.2113 137.113C52.1674 137.124 52.1262 137.144 52.0901 137.172C52.0539 137.199 52.0236 137.233 52.0007 137.273C51.9779 137.312 51.963 137.355 51.9569 137.4C51.9508 137.445 51.9536 137.491 51.9652 137.535C51.9768 137.579 51.997 137.62 52.0245 137.656C52.0521 137.692 52.0864 137.722 52.1257 137.745C52.1649 137.768 52.2083 137.783 52.2533 137.789L59.0956 138.715L62.1747 139.131L68.6749 140.011C68.7656 140.023 68.8573 139.999 68.9301 139.943C69.0028 139.888 69.0506 139.806 69.0629 139.715C69.0752 139.625 69.0509 139.533 68.9955 139.46C68.9402 139.387 68.8581 139.339 68.7675 139.327L62.2673 138.447L62.9849 133.144C62.9902 133.087 62.9922 133.029 62.9908 132.971L72.1381 134.04C72.5386 134.094 72.9441 133.987 73.2656 133.742C73.5871 133.498 73.7981 133.135 73.8523 132.735Z" fill="#3F3D56"/>
<path d="M76.2935 131.737C76.2863 131.637 76.3004 131.537 76.3351 131.443C76.3697 131.35 76.424 131.265 76.4943 131.194C76.5646 131.123 76.6494 131.067 76.7428 131.032C76.8362 130.996 76.9361 130.981 77.0358 130.988C77.073 130.989 77.1099 130.994 77.1463 131.002L81.517 131.989C81.6146 132.013 81.7063 132.057 81.7859 132.118C81.8656 132.179 81.9316 132.256 81.9796 132.345C82.0437 132.347 82.1073 132.356 82.1695 132.372C82.4441 132.434 82.6829 132.603 82.8331 132.842C82.9833 133.08 83.0327 133.368 82.9704 133.643C82.9081 133.917 82.7393 134.156 82.5011 134.306C82.2628 134.456 81.9746 134.506 81.6999 134.444C81.5436 134.407 81.3973 134.337 81.2719 134.236L79.7908 138.407C79.7168 138.538 79.6025 138.641 79.465 138.701C79.3275 138.762 79.1741 138.776 79.0278 138.742L76.1865 138.1C76.0414 138.066 75.9107 137.986 75.8133 137.874C75.716 137.761 75.6569 137.62 75.6445 137.471L76.2935 131.737ZM81.7655 134.147C81.8628 134.169 81.9635 134.172 82.0618 134.155C82.1602 134.138 82.2543 134.102 82.3387 134.049C82.4232 133.996 82.4964 133.927 82.5541 133.846C82.6119 133.764 82.653 133.673 82.6752 133.575C82.6975 133.478 82.7003 133.377 82.6836 133.279C82.6669 133.181 82.631 133.087 82.578 133.002C82.5249 132.918 82.4557 132.844 82.3744 132.787C82.293 132.729 82.2011 132.688 82.1039 132.666C82.0901 132.662 82.0762 132.666 82.0624 132.662C82.0635 132.788 82.0313 132.912 81.9692 133.021L81.4272 133.967C81.5216 134.057 81.6385 134.119 81.7655 134.147Z" fill="#CCCCCC"/>
<path d="M77.0358 130.987C76.9944 131.54 77.9403 132.175 79.2073 132.427C80.3708 132.665 81.4134 132.499 81.7069 132.064C81.6479 132.029 81.5838 132.004 81.517 131.988L77.1463 131.001C77.1099 130.993 77.073 130.989 77.0358 130.987Z" fill="#E6E6E6"/>
<path d="M79.3201 142.02L80.5889 139.381C81.3322 137.834 79.9713 136.189 77.5551 135.713L74.5778 135.211L73.3323 143.911L73.5901 143.962C76.0063 144.438 78.5768 143.567 79.3201 142.02Z" fill="#2A70FA"/>
<g opacity="0.2">
<path d="M49.0476 141.97C49.1694 143.057 49.6506 144.072 50.415 144.854C51.1793 145.635 52.1829 146.14 53.2664 146.286L68.8607 148.399C69.787 148.524 70.7299 148.382 71.5783 147.989C72.4266 147.597 73.1451 146.97 73.6491 146.182C73.2095 145.651 72.665 145.216 72.0495 144.905C71.4341 144.593 70.761 144.412 70.0724 144.373C68.7329 144.304 67.4348 144.75 66.1229 144.998C62.9508 145.596 59.6695 145.052 56.8603 143.462C55.6416 142.754 54.5437 141.85 53.2042 141.346C51.8647 140.845 50.1351 140.862 49.165 141.839C49.1231 141.881 49.0839 141.924 49.0476 141.97Z" fill="black"/>
</g>
</g>
<defs>
<clipPath id="clip0_489_699">
<rect width="301.75" height="266.278" fill="white" transform="matrix(-1 0 0 1 301.75 0)"/>
</clipPath>
</defs>
</svg>
