<svg width="302" height="266" viewBox="0 0 302 266" fill="none" xmlns="http://www.w3.org/2000/svg">
<g clip-path="url(#clip0_486_566)">
<path d="M164.607 42.214C154.883 42.214 147 34.3311 147 24.607C147 14.8829 154.883 7 164.607 7C174.331 7 182.214 14.8829 182.214 24.607C182.214 34.3311 174.331 42.214 164.607 42.214Z" fill="#1B1B1B"/>
<path d="M125.651 31.3412C127.934 27.5665 130.638 23.5362 134.873 22.3036C139.778 20.8762 144.817 23.7118 149.09 26.5099C161.872 34.878 174.18 43.9468 185.959 53.6745L185.947 53.821C176.776 53.1886 167.605 52.5562 158.434 51.9237C151.809 51.4668 144.955 50.9469 139.1 47.8124C136.878 46.623 134.712 45.0342 132.194 44.9235C129.066 44.7859 126.338 46.9706 124.195 49.2532C111.515 62.755 107.846 83.4025 93.6212 95.2648C102.591 73.1436 113.301 51.7687 125.651 31.3412Z" fill="#1D1D1D"/>
<path d="M47.713 145.861C49.1151 144.091 49.688 143.676 51.0711 141.889C62.3327 127.324 72.9176 112.267 82.826 96.718C89.5561 86.1576 95.9525 75.3944 102.015 64.4285C104.902 59.2152 107.709 53.9609 110.437 48.6657C112.554 44.56 114.623 40.4297 116.646 36.2748C117.224 35.0881 117.786 33.8959 118.345 32.701C119.663 29.8911 120.956 27.0676 122.345 24.2958C123.927 21.1367 125.853 17.8249 128.759 15.7024C130.081 14.6969 131.662 14.0884 133.317 13.9483C135.682 13.7955 137.865 14.7721 139.916 15.8388C154.941 23.7373 168.965 33.4082 181.689 44.6445C194.431 55.8356 205.821 68.4788 215.626 82.3165C215.926 82.7448 216.635 82.3356 216.332 81.9045C215.14 80.2186 213.924 78.5508 212.685 76.9013C197.273 56.4042 178.376 38.7778 156.858 24.8278C153.237 22.4817 149.549 20.2456 145.793 18.1195C143.899 17.0473 141.998 15.9889 140.064 14.9958C138.168 14.0219 136.154 13.1462 133.988 13.1135C126.617 12.9989 122.8 21.3468 120.179 26.9639C119.355 28.7317 118.521 30.494 117.677 32.2509C114.488 38.921 111.176 45.5302 107.741 52.0785C105.622 56.1215 103.456 60.1409 101.243 64.1366C94.3576 76.5794 87.0391 88.7702 79.2876 100.709C69.0191 116.524 58.8326 130.494 47.1346 145.283C46.8127 145.692 47.3882 146.276 47.713 145.861Z" fill="#252525"/>
<path d="M182.417 40.5223C182.845 40.0449 183.271 39.5674 183.702 39.09C187.101 35.3307 190.748 31.6151 195.416 29.4599C197.642 28.3999 200.072 27.8367 202.537 27.8094C205.085 27.8176 207.575 28.486 209.93 29.4217C211.043 29.8664 212.131 30.3711 213.203 30.9085C214.428 31.5251 215.631 32.1826 216.829 32.8455C219.077 34.0895 221.296 35.388 223.485 36.7411C227.842 39.4338 232.062 42.3319 236.146 45.4355C238.263 47.0451 240.337 48.7074 242.366 50.4224C244.254 52.0156 246.104 53.6516 247.915 55.3302C248.303 55.6876 248.881 55.1093 248.494 54.7519C248.016 54.3072 247.533 53.8653 247.05 53.4288C245.686 52.1957 244.301 50.9862 242.893 49.8004C240.326 47.6343 237.692 45.5519 234.992 43.5532C230.794 40.4431 226.451 37.5441 221.963 34.8561C219.721 33.5139 217.447 32.228 215.143 30.9986C214.447 30.6275 213.743 30.2647 213.031 29.921C211.416 29.1061 209.737 28.4227 208.012 27.8777C205.568 27.087 202.982 26.8329 200.43 27.1329C197.967 27.4912 195.594 28.3122 193.436 29.5527C188.853 32.1143 185.298 36.0755 181.839 39.9412C181.489 40.334 182.065 40.9151 182.417 40.5223Z" fill="#252525"/>
<path d="M88.5104 79.4785L77.528 75.4617L72.0753 73.4673C70.2994 72.8178 68.5278 72.0783 66.692 71.6132C65.0966 71.1575 63.4027 71.1791 61.8194 71.6753C60.4075 72.1979 59.115 72.9991 58.0189 74.0312C56.8991 75.0624 55.8572 76.1751 54.9017 77.3601C53.7146 78.7868 52.5449 80.2285 51.3701 81.6653C46.5211 87.5954 41.7039 93.5513 36.9183 99.5329C32.1329 105.514 27.3795 111.521 22.658 117.554C17.9251 123.601 13.2246 129.673 8.55673 135.771C7.98491 136.517 7.41358 137.265 6.84273 138.013C6.52735 138.426 5.81621 138.018 6.13604 137.6C10.8384 131.441 15.5734 125.307 20.3413 119.198C25.1209 113.075 29.9335 106.978 34.7792 100.907C39.6247 94.8358 44.503 88.7911 49.4141 82.7727C50.6375 81.2734 51.8631 79.7756 53.0906 78.2796C54.1261 77.0176 55.1498 75.742 56.2856 74.5674C58.3703 72.4113 60.9748 70.506 64.0926 70.4543C65.9256 70.4239 67.6996 71.0055 69.4027 71.6217C71.2387 72.2859 73.0703 72.9625 74.904 73.6332L85.9631 77.6781L88.7279 78.6893C89.2185 78.8688 89.0066 79.66 88.5104 79.4785Z" fill="#252525"/>
<path d="M196.861 34.1893C202.442 31.321 209.59 31.8828 214.718 35.4663C204.936 37.154 195.261 39.4122 185.742 42.2292C189.695 39.9128 192.787 36.2836 196.861 34.1893Z" fill="#1D1D1D"/>
<path d="M214.773 35.457L215.848 36.3303C215.484 36.0247 215.106 35.7381 214.718 35.4669C214.737 35.4637 214.755 35.4602 214.773 35.457Z" fill="#F2F2F2"/>
<path d="M58.4325 79.5184C59.5136 78.2024 60.6824 76.8245 62.2994 76.29L63.8091 76.3496C52.3169 96.6566 36.7959 114.401 18.1988 128.493C31.61 112.168 45.0212 95.8432 58.4325 79.5184Z" fill="#1D1D1D"/>
<path d="M127.549 187.023C127.59 187.023 127.63 187.016 127.668 187.002L156.758 176.316C156.844 176.284 156.914 176.22 156.952 176.137C156.99 176.054 156.994 175.959 156.963 175.873C156.931 175.787 156.867 175.717 156.784 175.678C156.701 175.64 156.606 175.636 156.52 175.668L127.43 186.354C127.354 186.382 127.29 186.436 127.25 186.506C127.209 186.576 127.195 186.658 127.209 186.738C127.223 186.818 127.265 186.89 127.327 186.942C127.389 186.994 127.468 187.023 127.549 187.023Z" fill="#454545"/>
<path d="M180.715 167C180.756 167 180.796 166.992 180.834 166.978L209.924 156.292C210.01 156.261 210.08 156.196 210.118 156.113C210.157 156.03 210.161 155.935 210.129 155.849C210.097 155.763 210.033 155.693 209.95 155.655C209.867 155.617 209.772 155.613 209.686 155.644L180.596 166.33C180.52 166.358 180.456 166.412 180.416 166.482C180.375 166.553 180.361 166.635 180.375 166.715C180.39 166.795 180.431 166.867 180.493 166.919C180.556 166.971 180.634 167 180.715 167Z" fill="#454545"/>
<path d="M234.917 146.976C234.958 146.976 234.998 146.969 235.036 146.955L264.126 136.269C264.169 136.253 264.208 136.229 264.241 136.199C264.274 136.168 264.301 136.131 264.32 136.09C264.339 136.049 264.35 136.004 264.352 135.959C264.354 135.914 264.347 135.868 264.331 135.826C264.315 135.783 264.292 135.744 264.261 135.711C264.23 135.677 264.193 135.651 264.152 135.632C264.111 135.612 264.066 135.602 264.021 135.6C263.976 135.598 263.931 135.605 263.888 135.621L234.798 146.307C234.722 146.335 234.658 146.389 234.618 146.459C234.578 146.529 234.563 146.612 234.577 146.691C234.592 146.771 234.633 146.843 234.696 146.896C234.758 146.948 234.836 146.976 234.917 146.976Z" fill="#454545"/>
<path d="M240.368 95.0729C241.58 94.8018 242.809 94.5877 244.021 94.4385L244.198 94.4167C252.249 93.4581 259.046 96.8187 260.008 102.234L260.179 103.214C260.286 103.834 260.401 104.5 260.538 105.237C260.605 105.601 260.239 105.973 259.707 106.092L66.0681 149.378C52.3943 152.335 38.7644 155.255 25.5594 158.059C23.0884 158.617 20.5852 159.022 18.0641 159.271C14.2916 159.59 11.5297 159.17 9.61953 157.985L9.61904 157.985C7.24496 156.517 6.6477 154.133 6.16003 151.398C5.17752 145.876 4.13124 140.077 3.08839 134.296C2.16975 129.201 1.25315 124.119 0.384493 119.252C-0.125766 116.363 -0.403151 113.774 1.37831 111.35C3.3102 108.726 7.4479 106.691 13.6765 105.299C13.7518 105.282 13.8265 105.265 13.9028 105.248C33.4405 100.965 54.5089 104.368 66.3283 113.717C67.6894 114.794 68.9984 115.979 70.2645 117.126C72.1375 118.902 74.1335 120.544 76.2377 122.04C77.3995 122.839 78.6321 123.531 79.92 124.106C80.0086 124.149 80.1091 124.194 80.2138 124.235C80.4571 124.344 80.7085 124.446 80.9509 124.533C82.3617 125.077 83.8263 125.47 85.3199 125.706L85.4689 125.728C85.5815 125.748 85.7029 125.765 85.8234 125.779C86.6797 125.894 87.5416 125.962 88.4053 125.982C92.1379 126.089 96.2025 125.406 100.486 123.952C104.438 122.594 108.214 120.769 111.733 118.514C115.466 116.127 118.858 113.433 122.138 110.828C123.579 109.683 125.069 108.5 126.567 107.36C126.849 107.145 127.126 106.935 127.407 106.724C129.241 105.353 130.921 104.185 132.541 103.151C136.52 100.601 140.836 98.6209 145.365 97.2702C150.151 95.879 154.558 95.4997 158.46 96.1396C159.543 96.3167 160.612 96.5787 161.654 96.9232C166.461 98.5102 169.911 101.667 173.247 104.72C177.398 108.517 181.689 112.444 188.649 113.421C196.68 114.551 207.235 110.976 214.435 107.253C216.699 106.083 218.939 104.817 221.105 103.594C221.979 103.099 222.855 102.607 223.732 102.116C225.456 101.154 226.873 100.396 228.192 99.7285L228.609 99.5165C228.841 99.3999 229.074 99.2834 229.311 99.1688C230.882 98.3961 232.358 97.7346 233.825 97.1457L234.172 97.0047C234.87 96.7336 235.525 96.4915 236.171 96.2667L236.428 96.1773C237.72 95.7382 239.035 95.3695 240.368 95.0729Z" fill="#101010"/>
<path d="M9.33462 160.088C9.35869 160.088 9.3827 160.086 9.40626 160.081L264.881 106.152C264.97 106.133 265.048 106.079 265.097 106.003C265.147 105.926 265.164 105.833 265.145 105.744C265.126 105.654 265.073 105.576 264.997 105.526C264.92 105.476 264.827 105.458 264.738 105.477L9.26365 159.405C9.18013 159.423 9.10611 159.471 9.05584 159.54C9.00557 159.609 8.98262 159.694 8.99145 159.779C9.00027 159.864 9.04024 159.942 9.10361 159.999C9.16698 160.057 9.24927 160.088 9.33462 160.088Z" fill="black"/>
<path d="M51.8364 168.849C52.1838 168.5 52.4505 168.078 52.6175 167.615C52.7846 167.152 52.848 166.657 52.8034 166.167C52.7587 165.676 52.607 165.201 52.359 164.776C52.1109 164.35 51.7726 163.984 51.3678 163.703L56.7328 137.056L50.8082 138.958L46.5138 164.733C46.0873 165.444 45.9365 166.287 46.0901 167.102C46.2436 167.917 46.6908 168.648 47.3469 169.155C48.003 169.662 48.8224 169.911 49.6498 169.855C50.4772 169.798 51.2552 169.44 51.8364 168.849Z" fill="#9E616A"/>
<path d="M59.7581 112.469L56.0821 109.695C56.0821 109.695 52.8394 109.465 52.265 115.313C51.6907 121.161 50.5114 132.557 50.5114 132.557L44.8865 158.61L52.673 160.319L58.6977 132.204L62.3119 123.855L59.7581 112.469Z" fill="#363636"/>
<path d="M53.6978 155.011L74.4119 154.665L76.1381 140.511H53.6978V155.011Z" fill="#9E616A"/>
<path d="M72.8473 241.607L77.6292 241.607L79.9043 223.162L72.8466 223.162L72.8473 241.607Z" fill="#9E616A"/>
<path d="M42.3823 234.983L47.1642 234.95L49.3098 216.489L43.0904 217.916L42.3823 234.983Z" fill="#9E616A"/>
<path d="M57.3386 128.321L56.2553 131.138L56.4717 133.956L77.6779 141.3L76.6256 128.971L74.2417 126.154L57.3386 128.321Z" fill="#FFB6B6"/>
<path d="M66.4361 102.969C62.2532 102.969 58.8622 99.5781 58.8622 95.3952C58.8622 91.2122 62.2532 87.8213 66.4361 87.8213C70.6191 87.8213 74.01 91.2122 74.01 95.3952C74.01 99.5781 70.6191 102.969 66.4361 102.969Z" fill="#9E616A"/>
<path d="M70.7082 250.686H74.1015L74.7071 247.482L76.2584 250.686H85.258C85.6894 250.686 86.1095 250.548 86.4569 250.292C86.8044 250.037 87.0611 249.677 87.1895 249.265C87.3178 248.853 87.3112 248.411 87.1705 248.003C87.0299 247.595 86.7625 247.243 86.4075 246.998L79.2207 242.035V238.796L71.6614 239.247L70.7082 250.686Z" fill="#363636"/>
<path d="M39.8734 244.081L43.2665 244.057L43.8498 240.85L45.4234 244.042L54.4228 243.979C54.8542 243.976 55.2733 243.835 55.619 243.577C55.9646 243.319 56.2188 242.958 56.3443 242.545C56.4698 242.132 56.46 241.69 56.3165 241.283C56.173 240.876 55.9032 240.526 55.5465 240.284L48.3251 235.37L48.3024 232.132L40.7465 232.636L39.8734 244.081Z" fill="#363636"/>
<path d="M40.8943 221.856L44.3764 200.582L48.5192 171.237C45.4853 165.603 52.3168 148.106 52.3168 148.106L53.2811 148.153L75.1071 152.27L75.1023 152.249C79.5665 164.425 81.0455 170.44 80.8009 183.406L79.9214 230.017H80.1973C80.6551 230.017 81.0942 230.198 81.4179 230.522C81.7416 230.846 81.9235 231.285 81.9235 231.743C81.9235 232.201 81.7416 232.64 81.4179 232.963C81.0942 233.287 80.6551 233.469 80.1973 233.469H71.5664C71.1086 233.469 70.6695 233.287 70.3458 232.963C70.0221 232.64 69.8402 232.201 69.8402 231.743C69.8402 231.285 70.0221 230.846 70.3458 230.522C70.6695 230.198 71.1086 230.017 71.5664 230.017H71.7889L63.8668 174.518L57.1501 197.82L49.5549 221.642C52.3168 220.951 51.888 222.551 51.888 223.457C51.888 223.915 51.7061 224.354 51.3824 224.678C51.0586 225.001 50.6196 225.183 50.1618 225.183H41.5309C41.1295 225.184 40.7404 225.044 40.4309 224.788C40.1214 224.533 39.9108 224.177 39.8354 223.783C39.76 223.389 39.8245 222.98 40.0178 222.628C40.2111 222.277 40.5211 222.003 40.8943 221.856Z" fill="#363636"/>
<path d="M50.6174 149.012L51.3079 142.107C51.3796 141.825 51.5386 141.574 51.7622 141.388C51.9858 141.202 52.2624 141.092 52.5525 141.073C52.8402 137.784 54.0506 123.594 54.1229 122.975L54.1257 122.949L54.6761 111.191C54.6961 110.764 54.8727 110.36 55.1722 110.055C55.4716 109.749 55.873 109.565 56.2996 109.538L59.2067 109.348C59.2466 109.346 59.2844 109.329 59.3121 109.301C59.3399 109.272 59.3554 109.234 59.3554 109.194C59.3554 108.873 59.4186 108.555 59.5415 108.258C59.6643 107.962 59.8444 107.692 60.0714 107.465C60.2985 107.238 60.568 107.058 60.8646 106.935C61.1612 106.812 61.4791 106.749 61.8001 106.749H70.4073C70.9648 106.749 71.503 106.953 71.921 107.322C72.339 107.691 72.6079 108.2 72.6774 108.753C72.6812 108.791 72.6993 108.826 72.728 108.851C72.7566 108.877 72.7938 108.89 72.8321 108.889L72.8331 108.889C73.8111 108.869 74.7639 109.2 75.5187 109.823C76.2734 110.445 76.7801 111.317 76.9468 112.281C78.1234 119.128 80.4817 134.666 79.3157 143.305C78.9099 146.312 79.7848 143.93 79.9383 146.446C79.9535 146.69 79.9206 146.933 79.8415 147.164C79.7624 147.394 79.6386 147.607 79.4772 147.789C80.1877 147.996 80.4632 148.763 80.2809 149.486L80.4322 149.449C80.3427 149.804 80.1157 150.109 79.8013 150.297C79.4869 150.485 79.1107 150.54 78.7556 150.45L52.3093 143.784C51.5698 143.597 50.4309 149.751 50.6174 149.012Z" fill="#2F2E41"/>
<path d="M79.7256 168.849C79.3782 168.5 79.1115 168.078 78.9445 167.615C78.7774 167.152 78.714 166.657 78.7586 166.167C78.8033 165.676 78.955 165.201 79.2031 164.776C79.4511 164.35 79.7894 163.984 80.1942 163.703L74.8292 137.056L80.7539 138.958L85.0483 164.733C85.4748 165.444 85.6255 166.287 85.4719 167.102C85.3184 167.917 84.8712 168.648 84.2151 169.155C83.559 169.662 82.7397 169.911 81.9122 169.855C81.0848 169.798 80.3068 169.44 79.7256 168.849Z" fill="#9E616A"/>
<path d="M71.804 112.469L75.4799 109.695C75.4799 109.695 78.7227 109.465 79.297 115.313C79.8714 121.161 81.0506 132.557 81.0506 132.557L86.6755 158.61L78.8891 160.319L72.8644 132.204L69.2502 123.855L71.804 112.469Z" fill="#363636"/>
<path d="M58.3255 88.6609C56.9145 89.081 55.5982 87.9007 54.6161 86.7825L54.9651 87.1967C52.6549 88.8236 51.2735 91.474 50.3772 94.157C49.4809 96.837 48.981 99.6442 47.9693 102.286C46.9576 104.924 45.3248 107.477 42.8252 108.794C39.4767 110.557 35.3738 109.755 31.8123 108.483C31.765 108.465 31.7206 108.45 31.6733 108.433C33.1158 105.738 33.9992 102.78 34.2705 99.7359C32.8054 102.596 30.6924 105.075 28.1 106.974C25.7728 105.916 23.5351 104.672 21.4088 103.253C20.0333 102.333 18.5839 101.144 18.4241 99.4963C18.2614 97.8605 19.4831 96.3667 20.9237 95.5798C22.3643 94.793 24.0208 94.5268 25.5944 94.0535C27.1652 93.5831 28.7685 92.8111 29.5938 91.3912C31.4958 88.1255 28.2952 83.5198 30.3363 80.3369C31.342 78.7721 33.2943 78.145 35.1047 77.7101C37.8679 77.0492 40.6726 76.5758 43.4997 76.2932C45.9815 76.0447 48.5461 75.953 50.9066 76.7517C53.2672 77.5504 55.4088 79.4051 55.9147 81.8485C57.2931 82.5732 58.7515 83.3748 59.491 84.7503C60.2305 86.1229 59.8193 88.2172 58.3255 88.6609Z" fill="#363636"/>
<path d="M56.2192 88.1105C54.8681 89.8031 54.1326 91.6335 54.1326 92.7297C51.3258 97.8596 55.3396 102.266 60.4696 105.073C62.5157 106.198 64.8784 106.61 67.1846 106.243L67.3992 105.327L67.69 106.152C67.69 106.152 71.03 117.184 72.1317 117.831C71.7136 115.868 71.2347 106.778 71.002 104.862C70.6798 102.254 71.803 98.3717 72.6132 96.0108C73.1156 94.5557 73.3734 93.0275 73.3762 91.4881V91.4208L74.1651 93.9548L77.0372 92.7296C76.5029 89.6648 77.0372 86.1855 70.6312 86.4872C67.1665 84.1044 64.1154 83.7414 61.6091 84.4172C61.2857 83.9172 59.4206 84.8538 58.8816 84.5905" fill="#363636"/>
<path d="M49.0476 141.97C49.1694 143.057 49.6506 144.071 50.4149 144.853C51.1793 145.635 52.1828 146.139 53.2664 146.286L68.8606 148.398C70.1501 148.572 71.4557 148.226 72.4907 147.438C73.5257 146.65 74.2056 145.483 74.381 144.193L76.6285 127.574C76.7748 126.493 76.5561 125.395 76.007 124.453L76.1141 123.645C76.5569 123.484 76.9472 123.205 77.2429 122.837C77.5386 122.47 77.7283 122.03 77.7915 121.562C77.8548 121.095 77.7892 120.62 77.6019 120.188C77.4145 119.755 77.1125 119.382 76.7286 119.109L74.8022 110.184C74.828 109.993 74.8135 109.799 74.7597 109.613C74.7059 109.428 74.614 109.256 74.4898 109.109C74.3656 108.961 74.2119 108.841 74.0386 108.756C73.8652 108.672 73.6761 108.624 73.4834 108.617C73.133 108.613 72.7935 108.739 72.5303 108.97C72.2671 109.202 72.0987 109.522 72.0575 109.87L71.8815 111.182C71.6462 112.916 70.7613 114.496 69.4057 115.603C68.0502 116.709 66.3249 117.26 64.5789 117.143C62.8329 117.027 61.1963 116.252 59.9999 114.974C58.8035 113.697 58.1367 112.014 58.1342 110.264C58.1344 109.951 58.1551 109.638 58.1963 109.328L58.3689 108.037C58.4252 107.678 58.3431 107.311 58.1393 107.011C57.9355 106.71 57.6252 106.498 57.2711 106.418C57.0867 106.383 56.8971 106.386 56.7138 106.426C56.5306 106.467 56.3576 106.545 56.2054 106.655C56.0532 106.765 55.925 106.904 55.8287 107.065C55.7323 107.227 55.6698 107.406 55.645 107.592L54.5299 115.808C53.9166 115.766 53.3083 115.943 52.814 116.309C52.3197 116.675 51.9717 117.204 51.8325 117.803C51.6933 118.402 51.7719 119.031 52.0543 119.577C52.3367 120.123 52.8043 120.55 53.3734 120.783C52.8152 121.17 52.3437 121.668 51.9888 122.247C51.634 122.826 51.4036 123.473 51.3123 124.146L49.0614 140.769C49.0068 141.167 49.0022 141.571 49.0476 141.97Z" fill="#2A70FA"/>
<path d="M76.3363 124.01C76.3546 123.873 76.3181 123.736 76.235 123.626C76.1518 123.517 76.0286 123.445 75.8926 123.427L54.6377 120.169C54.5703 120.16 54.5018 120.164 54.436 120.181C54.3703 120.199 54.3086 120.229 54.2545 120.27C54.2004 120.311 54.1549 120.363 54.1207 120.421C54.0865 120.48 54.0642 120.545 54.0551 120.612C54.046 120.68 54.0502 120.748 54.0676 120.814C54.0849 120.88 54.1151 120.942 54.1563 120.996C54.1975 121.05 54.2489 121.095 54.3077 121.129C54.3665 121.164 54.4314 121.186 54.4988 121.195L75.7537 124.453C75.8898 124.471 76.0276 124.435 76.1368 124.352C76.246 124.269 76.3178 124.146 76.3363 124.01Z" fill="#3F3D56"/>
<path d="M73.8523 132.735L74.5548 127.544C74.609 127.143 74.5019 126.738 74.2571 126.416C74.0123 126.095 73.6497 125.884 73.2493 125.829L52.949 123.233C52.5485 123.178 52.143 123.285 51.8215 123.53C51.5 123.775 51.289 124.138 51.2348 124.538L50.5322 129.729C50.478 130.13 50.5851 130.535 50.83 130.857C51.0748 131.178 51.4373 131.389 51.8378 131.443L59.9462 132.559C59.9296 132.614 59.9161 132.671 59.9058 132.728L59.1882 138.03L52.3458 137.104C52.3009 137.098 52.2551 137.101 52.2112 137.113C52.1673 137.124 52.1262 137.144 52.09 137.172C52.0539 137.199 52.0235 137.233 52.0007 137.273C51.9778 137.312 51.9629 137.355 51.9569 137.4C51.9508 137.445 51.9536 137.491 51.9652 137.535C51.9768 137.579 51.997 137.62 52.0245 137.656C52.052 137.692 52.0864 137.722 52.1256 137.745C52.1649 137.768 52.2083 137.783 52.2533 137.789L59.0956 138.715L62.1746 139.131L68.6748 140.011C68.7655 140.023 68.8573 139.999 68.9301 139.943C69.0028 139.888 69.0506 139.806 69.0629 139.715C69.0751 139.625 69.0509 139.533 68.9955 139.46C68.9401 139.387 68.8581 139.339 68.7675 139.327L62.2672 138.447L62.9849 133.144C62.9902 133.087 62.9921 133.029 62.9908 132.971L72.1381 134.04C72.5385 134.094 72.9441 133.987 73.2656 133.742C73.587 133.498 73.7981 133.135 73.8523 132.735Z" fill="#3F3D56"/>
<path d="M153.644 266.277C153.729 266.277 153.811 266.245 153.875 266.188L301.635 132.999C301.703 132.938 301.744 132.852 301.749 132.76C301.754 132.669 301.722 132.58 301.661 132.512C301.599 132.444 301.514 132.403 301.422 132.398C301.331 132.393 301.241 132.425 301.173 132.486L153.412 265.675C153.36 265.722 153.324 265.783 153.308 265.851C153.291 265.919 153.296 265.99 153.321 266.055C153.346 266.121 153.39 266.177 153.448 266.216C153.506 266.256 153.574 266.277 153.644 266.277Z" fill="#454545"/>
<path d="M76.2936 131.737C76.2863 131.637 76.3004 131.537 76.3351 131.443C76.3697 131.35 76.424 131.265 76.4943 131.194C76.5647 131.123 76.6494 131.067 76.7428 131.032C76.8362 130.996 76.9361 130.981 77.0358 130.988C77.073 130.989 77.1099 130.994 77.1463 131.002L81.517 131.989C81.6146 132.013 81.7063 132.057 81.786 132.118C81.8656 132.179 81.9316 132.256 81.9796 132.345C82.0437 132.347 82.1073 132.356 82.1695 132.372C82.4442 132.434 82.6829 132.603 82.8331 132.842C82.9833 133.08 83.0327 133.368 82.9704 133.643C82.9082 133.917 82.7393 134.156 82.5011 134.306C82.2628 134.456 81.9746 134.506 81.7 134.444C81.5436 134.407 81.3973 134.337 81.2719 134.236L79.7908 138.407C79.7168 138.538 79.6025 138.641 79.465 138.701C79.3275 138.762 79.1741 138.776 79.0278 138.742L76.1865 138.1C76.0414 138.066 75.9107 137.986 75.8134 137.874C75.716 137.761 75.6569 137.62 75.6446 137.471L76.2936 131.737ZM81.7656 134.147C81.8628 134.169 81.9635 134.172 82.0618 134.155C82.1602 134.138 82.2543 134.102 82.3387 134.049C82.4232 133.996 82.4964 133.927 82.5541 133.846C82.6119 133.764 82.653 133.673 82.6753 133.575C82.6975 133.478 82.7003 133.377 82.6836 133.279C82.6669 133.181 82.631 133.087 82.578 133.002C82.5249 132.918 82.4557 132.844 82.3744 132.787C82.2931 132.729 82.2011 132.688 82.1039 132.666C82.0901 132.662 82.0763 132.666 82.0625 132.662C82.0635 132.788 82.0313 132.912 81.9692 133.021L81.4272 133.967C81.5216 134.057 81.6386 134.119 81.7656 134.147Z" fill="#CCCCCC"/>
<path d="M77.0358 130.987C76.9944 131.54 77.9403 132.175 79.2073 132.427C80.3708 132.665 81.4134 132.499 81.7068 132.064C81.6479 132.029 81.5838 132.004 81.517 131.988L77.1463 131.001C77.1099 130.993 77.073 130.989 77.0358 130.987Z" fill="#E6E6E6"/>
<path d="M79.32 142.02L80.5889 139.381C81.3322 137.834 79.9713 136.189 77.5551 135.713L74.5778 135.211L73.3323 143.911L73.5901 143.962C76.0063 144.438 78.5768 143.567 79.32 142.02Z" fill="#2A70FA"/>
<g opacity="0.2">
<path d="M49.0475 141.97C49.1693 143.057 49.6506 144.072 50.4149 144.854C51.1792 145.635 52.1828 146.14 53.2663 146.286L68.8606 148.399C69.787 148.524 70.7299 148.382 71.5783 147.989C72.4266 147.597 73.1451 146.97 73.649 146.182C73.2095 145.651 72.665 145.216 72.0495 144.905C71.4341 144.593 70.761 144.412 70.0724 144.373C68.7329 144.304 67.4348 144.75 66.1229 144.998C62.9508 145.596 59.6695 145.052 56.8602 143.462C55.6416 142.754 54.5437 141.85 53.2042 141.346C51.8647 140.845 50.135 140.862 49.1649 141.839C49.1231 141.881 49.0839 141.924 49.0475 141.97Z" fill="black"/>
</g>
<path d="M171.23 260.633L168.909 258.23L178.458 249.009L180.779 251.412L177.474 254.604L185.763 263.187L182.823 266.025L174.534 257.442L171.23 260.633ZM188.718 251.376L193.194 256.01L190.233 258.87L179.623 247.884L182.477 245.128L186.642 249.441L186.728 249.358C186.406 248.653 186.32 247.944 186.47 247.233C186.616 246.519 186.993 245.868 187.601 245.281C188.184 244.718 188.817 244.361 189.502 244.211C190.19 244.058 190.877 244.1 191.562 244.337C192.251 244.571 192.883 244.99 193.46 245.594L198.537 250.851L195.575 253.71L191.1 249.076C190.71 248.664 190.298 248.443 189.867 248.411C189.438 248.375 189.035 248.54 188.655 248.906C188.416 249.138 188.257 249.395 188.178 249.679C188.099 249.955 188.105 250.24 188.195 250.533C188.285 250.82 188.459 251.1 188.718 251.376ZM204.092 245.777C203.212 246.626 202.291 247.19 201.33 247.469C200.369 247.74 199.411 247.725 198.457 247.424C197.502 247.116 196.597 246.518 195.74 245.631C194.918 244.78 194.372 243.87 194.1 242.902C193.829 241.934 193.835 240.971 194.119 240.012C194.403 239.054 194.97 238.164 195.822 237.342C196.444 236.741 197.1 236.293 197.791 236C198.482 235.706 199.184 235.57 199.897 235.593C200.607 235.613 201.311 235.79 202.008 236.126C202.705 236.462 203.37 236.957 204.002 237.611L204.665 238.298L197.305 245.405L195.73 243.774L200.365 239.299C200.134 239.066 199.873 238.917 199.582 238.852C199.291 238.781 198.999 238.789 198.706 238.879C198.413 238.962 198.143 239.123 197.896 239.361C197.656 239.592 197.486 239.857 197.386 240.154C197.283 240.447 197.257 240.742 197.308 241.038C197.362 241.331 197.502 241.601 197.726 241.847L199.425 243.607C199.681 243.871 199.964 244.054 200.275 244.154C200.586 244.255 200.903 244.264 201.224 244.181C201.545 244.099 201.853 243.916 202.146 243.633C202.35 243.436 202.508 243.228 202.621 243.009C202.737 242.786 202.805 242.562 202.823 242.337C202.837 242.109 202.799 241.89 202.708 241.681L205.411 239.07C205.871 239.732 206.131 240.442 206.191 241.199C206.249 241.952 206.103 242.721 205.756 243.506C205.408 244.284 204.853 245.041 204.092 245.777ZM216.383 233.617L212.155 237.699L201.546 226.713L205.73 222.672C206.86 221.581 208.049 220.858 209.296 220.504C210.544 220.142 211.788 220.157 213.03 220.548C214.271 220.932 215.444 221.696 216.55 222.84C217.655 223.985 218.381 225.184 218.728 226.438C219.072 227.689 219.047 228.929 218.653 230.16C218.255 231.387 217.498 232.54 216.383 233.617ZM212.693 232.287L213.83 231.189C214.374 230.664 214.752 230.129 214.966 229.584C215.183 229.036 215.184 228.451 214.97 227.828C214.759 227.202 214.285 226.506 213.546 225.741C212.806 224.976 212.126 224.479 211.504 224.25C210.886 224.018 210.294 224.005 209.727 224.214C209.165 224.418 208.597 224.797 208.025 225.349L206.974 226.365L212.693 232.287ZM225.697 224.871C225.172 225.378 224.624 225.742 224.054 225.96C223.484 226.172 222.914 226.211 222.343 226.078C221.772 225.945 221.223 225.605 220.694 225.058C220.259 224.607 219.965 224.148 219.811 223.682C219.654 223.211 219.615 222.741 219.694 222.271C219.772 221.802 219.942 221.337 220.203 220.877C220.468 220.414 220.798 219.961 221.192 219.518C221.619 219.037 221.948 218.636 222.178 218.317C222.409 217.991 222.542 217.72 222.577 217.507C222.609 217.289 222.549 217.102 222.397 216.944L222.376 216.923C222.169 216.708 221.928 216.623 221.653 216.668C221.378 216.712 221.112 216.859 220.854 217.107C220.572 217.38 220.402 217.665 220.344 217.963C220.286 218.254 220.362 218.544 220.571 218.832L217.846 221.464C217.398 220.929 217.112 220.314 216.987 219.619C216.862 218.917 216.951 218.175 217.253 217.393C217.551 216.607 218.11 215.818 218.929 215.027C219.519 214.458 220.115 214.016 220.719 213.703C221.318 213.387 221.902 213.193 222.469 213.122C223.033 213.047 223.56 213.092 224.049 213.255C224.539 213.411 224.968 213.681 225.338 214.063L230.787 219.707L228.019 222.38L226.9 221.221L226.836 221.283C226.968 221.75 227.008 222.192 226.955 222.609C226.906 223.023 226.772 223.418 226.555 223.794C226.341 224.166 226.055 224.525 225.697 224.871ZM224.86 222.071C225.086 221.854 225.252 221.604 225.359 221.321C225.469 221.034 225.502 220.743 225.458 220.447C225.414 220.151 225.271 219.878 225.03 219.627L224.366 218.941C224.319 219.049 224.264 219.16 224.202 219.275C224.144 219.387 224.077 219.503 224.001 219.625C223.929 219.743 223.848 219.867 223.757 219.995C223.671 220.12 223.577 220.249 223.476 220.381C223.282 220.638 223.151 220.878 223.084 221.102C223.017 221.319 223.005 221.52 223.047 221.708C223.09 221.888 223.18 222.049 223.318 222.192C223.539 222.421 223.789 222.519 224.067 222.485C224.346 222.451 224.61 222.313 224.86 222.071ZM232.202 218.34L224.245 210.101L227.121 207.324L228.633 208.89L228.719 208.808C228.31 208.083 228.138 207.43 228.205 206.847C228.275 206.261 228.53 205.756 228.97 205.331C229.098 205.207 229.236 205.095 229.382 204.995C229.528 204.889 229.677 204.797 229.829 204.718L232.269 207.245C232.074 207.337 231.857 207.474 231.619 207.656C231.38 207.838 231.184 208.003 231.03 208.152C230.74 208.431 230.543 208.75 230.438 209.107C230.334 209.456 230.329 209.813 230.425 210.177C230.517 210.537 230.715 210.875 231.019 211.189L235.163 215.481L232.202 218.34ZM239.527 207.493L236.15 203.953L236.537 203.58L235.859 198.885L239.185 195.673L240.003 203.219L239.166 204.027L239.527 207.493ZM238.752 212.015L228.143 201.029L231.104 198.169L241.713 209.156L238.752 212.015ZM243.838 207.104L238.8 205.666L238.7 201.698L247.228 203.83L243.838 207.104ZM249.408 192.768L253.884 197.403L250.923 200.262L240.313 189.276L243.167 186.52L247.332 190.833L247.418 190.75C247.096 190.045 247.01 189.337 247.16 188.626C247.306 187.911 247.683 187.26 248.291 186.673C248.874 186.11 249.508 185.754 250.192 185.604C250.881 185.451 251.567 185.492 252.252 185.729C252.941 185.963 253.573 186.382 254.15 186.986L259.227 192.243L256.266 195.103L251.79 190.468C251.4 190.057 250.989 189.835 250.557 189.803C250.128 189.767 249.725 189.933 249.346 190.299C249.106 190.53 248.947 190.787 248.868 191.071C248.789 191.347 248.795 191.632 248.885 191.926C248.975 192.212 249.149 192.493 249.408 192.768ZM264.803 187.148C263.909 188.012 262.973 188.574 261.994 188.834C261.012 189.091 260.044 189.066 259.09 188.757C258.132 188.445 257.245 187.867 256.43 187.023C255.615 186.179 255.07 185.275 254.795 184.31C254.517 183.342 254.525 182.373 254.82 181.405C255.111 180.432 255.703 179.514 256.598 178.651C257.492 177.788 258.43 177.227 259.412 176.97C260.39 176.71 261.358 176.735 262.316 177.047C263.271 177.356 264.155 177.932 264.97 178.776C265.785 179.62 266.332 180.526 266.611 181.494C266.886 182.459 266.878 183.428 266.586 184.4C266.292 185.369 265.697 186.285 264.803 187.148ZM262.711 184.939C262.961 184.697 263.097 184.404 263.117 184.06C263.137 183.716 263.047 183.34 262.846 182.932C262.646 182.524 262.339 182.106 261.924 181.676C261.506 181.244 261.099 180.922 260.702 180.711C260.301 180.497 259.928 180.393 259.584 180.401C259.239 180.409 258.941 180.534 258.691 180.776C258.426 181.032 258.281 181.335 258.253 181.686C258.226 182.037 258.313 182.417 258.513 182.825C258.71 183.229 259.017 183.647 259.435 184.08C259.85 184.509 260.257 184.831 260.658 185.045C261.058 185.26 261.434 185.36 261.786 185.345C262.138 185.33 262.446 185.194 262.711 184.939ZM270.13 181.714L262.173 173.474L265.048 170.698L266.561 172.264L266.647 172.181C266.237 171.457 266.066 170.803 266.132 170.221C266.202 169.635 266.457 169.13 266.897 168.705C267.026 168.58 267.163 168.469 267.309 168.369C267.455 168.263 267.604 168.17 267.757 168.092L270.197 170.619C270.002 170.71 269.785 170.847 269.546 171.029C269.308 171.212 269.111 171.377 268.958 171.525C268.668 171.805 268.471 172.123 268.366 172.48C268.261 172.83 268.257 173.187 268.353 173.551C268.445 173.911 268.643 174.248 268.947 174.563L273.091 178.855L270.13 181.714ZM278.845 162.558L276.119 165.19C275.943 165.036 275.744 164.948 275.523 164.926C275.302 164.905 275.078 164.941 274.851 165.036C274.625 165.123 274.413 165.262 274.216 165.452C273.962 165.697 273.789 165.954 273.696 166.223C273.604 166.493 273.642 166.711 273.812 166.879C273.925 167.004 274.086 167.067 274.293 167.067C274.505 167.064 274.795 166.939 275.165 166.692L277.129 165.376C278.121 164.715 278.999 164.368 279.763 164.336C280.526 164.296 281.204 164.579 281.794 165.183C282.357 165.773 282.674 166.452 282.745 167.22C282.816 167.981 282.667 168.767 282.298 169.58C281.929 170.386 281.363 171.157 280.601 171.892C279.342 173.108 278.109 173.802 276.9 173.974C275.694 174.143 274.643 173.845 273.746 173.08L276.685 170.242C276.977 170.465 277.301 170.542 277.657 170.475C278.013 170.4 278.36 170.201 278.696 169.876C278.967 169.613 279.146 169.351 279.232 169.089C279.321 168.823 279.284 168.603 279.122 168.428C278.966 168.274 278.767 168.225 278.523 168.28C278.283 168.332 277.975 168.485 277.597 168.739L275.89 169.89C274.908 170.555 274.009 170.884 273.193 170.877C272.378 170.87 271.659 170.541 271.038 169.89C270.481 169.321 270.164 168.692 270.084 168.001C270.005 167.303 270.15 166.576 270.518 165.82C270.886 165.056 271.462 164.296 272.245 163.54C273.436 162.39 274.613 161.73 275.777 161.561C276.943 161.388 277.966 161.72 278.845 162.558ZM289.654 163.15C288.774 164 287.853 164.564 286.892 164.843C285.931 165.114 284.973 165.099 284.019 164.798C283.064 164.489 282.159 163.891 281.302 163.005C280.48 162.153 279.934 161.244 279.662 160.276C279.391 159.308 279.397 158.344 279.681 157.386C279.965 156.427 280.533 155.537 281.384 154.715C282.006 154.114 282.662 153.667 283.353 153.373C284.044 153.079 284.746 152.944 285.459 152.967C286.169 152.986 286.873 153.164 287.57 153.5C288.268 153.835 288.932 154.33 289.564 154.985L290.227 155.671L282.867 162.779L281.293 161.148L285.927 156.672C285.696 156.44 285.435 156.291 285.144 156.226C284.853 156.154 284.562 156.163 284.268 156.253C283.975 156.336 283.705 156.496 283.458 156.735C283.218 156.966 283.049 157.23 282.948 157.527C282.845 157.821 282.819 158.116 282.87 158.412C282.924 158.705 283.064 158.974 283.288 159.221L284.987 160.98C285.243 161.245 285.526 161.428 285.837 161.528C286.149 161.628 286.465 161.637 286.786 161.555C287.108 161.473 287.415 161.29 287.708 161.007C287.912 160.81 288.07 160.602 288.183 160.382C288.3 160.159 288.367 159.935 288.385 159.711C288.399 159.482 288.361 159.264 288.27 159.055L290.973 156.444C291.433 157.106 291.693 157.815 291.754 158.572C291.811 159.326 291.665 160.095 291.318 160.88C290.97 161.658 290.415 162.415 289.654 163.15ZM296.916 145.107L294.191 147.739C294.014 147.584 293.815 147.496 293.594 147.475C293.373 147.454 293.149 147.49 292.922 147.585C292.696 147.672 292.484 147.811 292.288 148.001C292.034 148.246 291.86 148.503 291.768 148.772C291.675 149.041 291.714 149.26 291.883 149.428C291.997 149.553 292.157 149.616 292.365 149.616C292.576 149.613 292.866 149.488 293.236 149.241L295.2 147.925C296.193 147.264 297.071 146.917 297.834 146.885C298.598 146.845 299.275 147.128 299.866 147.732C300.428 148.322 300.745 149.001 300.816 149.769C300.887 150.529 300.738 151.316 300.369 152.129C300 152.935 299.434 153.705 298.673 154.441C297.414 155.657 296.18 156.351 294.971 156.523C293.765 156.692 292.714 156.394 291.817 155.629L294.757 152.79C295.048 153.013 295.372 153.091 295.728 153.024C296.085 152.949 296.431 152.749 296.767 152.425C297.039 152.162 297.217 151.9 297.303 151.638C297.392 151.372 297.355 151.152 297.193 150.976C297.038 150.823 296.838 150.773 296.594 150.829C296.354 150.881 296.046 151.034 295.669 151.287L293.961 152.439C292.979 153.104 292.08 153.433 291.265 153.426C290.449 153.418 289.73 153.089 289.109 152.439C288.553 151.87 288.235 151.24 288.156 150.55C288.076 149.852 288.221 149.125 288.589 148.369C288.958 147.605 289.534 146.845 290.317 146.089C291.508 144.939 292.685 144.279 293.848 144.109C295.015 143.936 296.037 144.269 296.916 145.107Z" fill="#262626"/>
<path d="M182.012 272.614L305.784 153.088L306.779 154.118L183.006 273.644L182.012 272.614Z" fill="#262626"/>
</g>
<defs>
<clipPath id="clip0_486_566">
<rect width="301.75" height="266.278" fill="white" transform="matrix(-1 0 0 1 301.75 0)"/>
</clipPath>
</defs>
</svg>
