<svg width="20" height="20" viewBox="0 0 20 20" fill="none" xmlns="http://www.w3.org/2000/svg">
<mask id="mask0_860_288" style="mask-type:luminance" maskUnits="userSpaceOnUse" x="0" y="0" width="20" height="20">
<path d="M2.05128 4.10256C3.18417 4.10256 4.10256 3.18417 4.10256 2.05128C4.10256 0.91839 3.18417 0 2.05128 0C0.91839 0 0 0.91839 0 2.05128C0 3.18417 0.91839 4.10256 2.05128 4.10256Z" fill="white"/>
<path d="M0 7.17969H4.10256V20.0002H0V7.17969ZM8.20513 12.0515V20.0002H11.7949V12.8207C11.7949 11.5387 12.5641 10.513 13.8462 10.513C15.1282 10.513 15.8974 11.7951 15.8974 12.8207V20.0002H19.4872V12.0515C19.4872 10.513 17.6923 7.17969 13.8462 7.17969C10 7.17969 8.20513 10.513 8.20513 12.0515Z" fill="white"/>
</mask>
<g mask="url(#mask0_860_288)">
<path d="M-2.56412 -2.05176H22.0513V22.5636H-2.56412V-2.05176Z" fill="#7C7C7C"/>
</g>
</svg>
