<svg width="102" height="102" viewBox="0 0 102 102" fill="none" xmlns="http://www.w3.org/2000/svg">
<circle cx="51.0001" cy="50.5385" r="50.5385" fill="#DCF3EB"/>
<path d="M50.681 63.8432C50.6798 61.1679 51.3559 58.5358 52.6464 56.1922C53.9369 53.8487 55.7997 51.8701 58.0612 50.4408C60.3228 49.0115 62.9094 48.178 65.58 48.0182C68.2505 47.8583 70.9181 48.3772 73.334 49.5266V34.3944C73.334 31.9025 71.2952 29.8638 68.8034 29.8638H32.5587C30.0668 29.8638 28.0281 31.9025 28.0281 34.3944V61.5779C28.0281 64.0698 30.0668 66.1085 32.5587 66.1085H50.8623C50.749 65.361 50.681 64.6134 50.681 63.8432ZM32.5587 34.3944L50.681 45.7209L68.8034 34.3944V38.925L50.681 50.2514L32.5587 38.925V34.3944ZM62.7777 70.6391L54.7586 62.62L57.9526 59.4259L62.7551 64.2283L72.3599 54.6235L75.5993 57.8175L62.7777 70.6391Z" fill="#2A70FA"/>
</svg>
