<svg width="33" height="33" viewBox="0 0 33 33" fill="none" xmlns="http://www.w3.org/2000/svg">
<circle cx="16.5" cy="16.5" r="15.5" fill="white" stroke="#F2F2F2"/>
<path d="M16.9373 8.5C15.2465 8.5 13.625 9.17165 12.4295 10.3672C11.2339 11.5627 10.5623 13.1842 10.5623 14.875V18.6851L9.81109 19.4363C9.66254 19.5849 9.56138 19.7742 9.5204 19.9803C9.47943 20.1864 9.50047 20.4 9.58087 20.5941C9.66127 20.7882 9.79741 20.9541 9.9721 21.0709C10.1468 21.1876 10.3522 21.25 10.5623 21.25H23.3123C23.5224 21.25 23.7278 21.1876 23.9024 21.0709C24.0771 20.9541 24.2133 20.7882 24.2937 20.5941C24.3741 20.4 24.3951 20.1864 24.3541 19.9803C24.3132 19.7742 24.212 19.5849 24.0635 19.4363L23.3123 18.6851V14.875C23.3123 13.1842 22.6406 11.5627 21.4451 10.3672C20.2495 9.17165 18.628 8.5 16.9373 8.5ZM16.9373 25.5C16.0919 25.5 15.2811 25.1642 14.6834 24.5664C14.0856 23.9686 13.7498 23.1579 13.7498 22.3125H20.1248C20.1248 23.1579 19.7889 23.9686 19.1912 24.5664C18.5934 25.1642 17.7827 25.5 16.9373 25.5Z" fill="#2A2D3A"/>
<path d="M16.9373 8.5C15.2465 8.5 13.625 9.17165 12.4295 10.3672C11.2339 11.5627 10.5623 13.1842 10.5623 14.875V18.6851L9.81109 19.4363C9.66254 19.5849 9.56138 19.7742 9.5204 19.9803C9.47943 20.1864 9.50047 20.4 9.58087 20.5941C9.66127 20.7882 9.79741 20.9541 9.9721 21.0709C10.1468 21.1876 10.3522 21.25 10.5623 21.25H23.3123C23.5224 21.25 23.7278 21.1876 23.9024 21.0709C24.0771 20.9541 24.2133 20.7882 24.2937 20.5941C24.3741 20.4 24.3951 20.1864 24.3541 19.9803C24.3132 19.7742 24.212 19.5849 24.0635 19.4363L23.3123 18.6851V14.875C23.3123 13.1842 22.6406 11.5627 21.4451 10.3672C20.2495 9.17165 18.628 8.5 16.9373 8.5ZM16.9373 25.5C16.0919 25.5 15.2811 25.1642 14.6834 24.5664C14.0856 23.9686 13.7498 23.1579 13.7498 22.3125H20.1248C20.1248 23.1579 19.7889 23.9686 19.1912 24.5664C18.5934 25.1642 17.7827 25.5 16.9373 25.5Z" fill="#A0A3B7" fill-opacity="0.2"/>
</svg>
