<svg width="326" height="121" viewBox="0 0 326 121" fill="none" xmlns="http://www.w3.org/2000/svg">
<g id="rockBus">
<g id="Bus">
<path id="theBus" d="M32.8182 87.7118H15.0154V20.3636C15.0154 10.4776 22.9322 2.56082 32.8182 2.56082H171.545C181.431 2.56082 189.348 10.4776 189.348 20.3636V40.1818V42.1972H191.364H211.182C221.068 42.1972 228.985 50.1139 228.985 60V87.7118H211.182H209.166V89.7272C209.166 97.0769 206.247 104.125 201.05 109.322C195.853 114.519 188.804 117.439 181.455 117.439C174.105 117.439 167.056 114.519 161.859 109.322C156.662 104.125 153.743 97.0769 153.743 89.7272V87.7118H151.727H92.2727H90.2573V89.7272C90.2573 97.0769 87.3377 104.125 82.1407 109.322C76.9437 114.519 69.8951 117.439 62.5455 117.439C55.1958 117.439 48.1472 114.519 42.9502 109.322C37.7532 104.125 34.8336 97.0769 34.8336 89.7272V87.7118H32.8182ZM136.864 13.3936H134.848V15.409V40.1818V42.1972H136.864H176.5H178.515V40.1818V15.409V13.3936H176.5H136.864ZM27.8636 13.3936H25.8482V15.409V40.1818V42.1972H27.8636H67.5H69.5154V40.1818V15.409V13.3936H67.5H27.8636ZM82.3636 13.3936H80.3482V15.409V40.1818V42.1972H82.3636H122H124.015V40.1818V15.409V13.3936H122H82.3636ZM74.4807 77.7919C71.3153 74.6265 67.0221 72.8482 62.5455 72.8482C58.0689 72.8482 53.7756 74.6265 50.6102 77.7919C47.4447 80.9574 45.6664 85.2506 45.6664 89.7272C45.6664 94.2038 47.4447 98.4971 50.6102 101.663C53.7756 104.828 58.0689 106.606 62.5455 106.606C67.0221 106.606 71.3153 104.828 74.4807 101.663C77.6462 98.4971 79.4245 94.2038 79.4245 89.7272C79.4245 85.2506 77.6462 80.9574 74.4807 77.7919ZM193.39 77.7919C190.224 74.6265 185.931 72.8482 181.455 72.8482C176.978 72.8482 172.685 74.6265 169.519 77.7919C166.354 80.9574 164.576 85.2506 164.576 89.7272C164.576 94.2038 166.354 98.4971 169.519 101.663C172.685 104.828 176.978 106.606 181.455 106.606C185.931 106.606 190.224 104.828 193.39 101.663C196.555 98.4971 198.334 94.2038 198.334 89.7272C198.334 85.2506 196.555 80.9574 193.39 77.7919Z" fill="#FCBC1D" stroke="black" stroke-width="4.03082"/>
<path id="hideTheTire" d="M41.0283 90H29V121H222V118V90H41.0283Z" fill="white"/>
<g id="Tire1">
<circle id="innerTireBack" cx="62" cy="93" r="4" fill="black"/>
<path id="outerTireBack" d="M73.0183 89.8233L72.5083 88.4917L75.1433 87.5C73.84 84.4967 71.5167 82.0883 68.5983 80.615L67.465 83.1367L66.1617 82.5417L67.295 79.9917C65.7083 79.3683 63.98 79 62.1667 79C60.665 79 59.22 79.3117 57.86 79.7083L58.8233 82.315L57.4917 82.825L56.5 80.19C53.4967 81.4933 51.0883 83.8167 49.615 86.735L52.1367 87.8683L51.5417 89.1717L48.9917 88.0383C48.3683 89.625 48 91.3533 48 93.1667C48 94.6683 48.3117 96.1133 48.7083 97.4733L51.315 96.51L51.825 97.8417L49.19 98.8333C50.4933 101.837 52.8167 104.245 55.735 105.718L56.8683 103.197L58.1717 103.792L57.0383 106.342C58.625 106.965 60.3533 107.333 62.1667 107.333C63.6683 107.333 65.1133 107.022 66.4733 106.625L65.51 104.018L66.8417 103.508L67.8333 106.143C70.8367 104.84 73.245 102.517 74.7183 99.5983L72.1967 98.465L72.7917 97.1617L75.3417 98.295C75.965 96.7083 76.3333 94.98 76.3333 93.1667C76.3333 91.665 76.0217 90.22 75.625 88.86L73.0183 89.8233ZM65.425 101.015C61.09 102.8 56.1033 100.76 54.3183 96.425C52.5333 92.09 54.5733 87.1033 58.9083 85.3183C63.2433 83.5333 68.23 85.5733 70.015 89.9083C70.4453 90.9387 70.6679 92.0439 70.6699 93.1605C70.672 94.2771 70.4535 95.3831 70.027 96.4151C69.6006 97.447 68.9745 98.3846 68.1848 99.174C67.395 99.9634 66.4572 100.589 65.425 101.015Z" fill="black"/>
</g>
<g id="Tire2">
<circle id="innerTireFront" cx="182" cy="93" r="4" fill="black"/>
<path id="OuterTireFront" d="M193.018 89.8233L192.508 88.4917L195.143 87.5C193.84 84.4967 191.517 82.0883 188.598 80.615L187.465 83.1367L186.162 82.5417L187.295 79.9917C185.708 79.3683 183.98 79 182.167 79C180.665 79 179.22 79.3117 177.86 79.7083L178.823 82.315L177.492 82.825L176.5 80.19C173.497 81.4933 171.088 83.8167 169.615 86.735L172.137 87.8683L171.542 89.1717L168.992 88.0383C168.368 89.625 168 91.3533 168 93.1667C168 94.6683 168.312 96.1133 168.708 97.4733L171.315 96.51L171.825 97.8417L169.19 98.8333C170.493 101.837 172.817 104.245 175.735 105.718L176.868 103.197L178.172 103.792L177.038 106.342C178.625 106.965 180.353 107.333 182.167 107.333C183.668 107.333 185.113 107.022 186.473 106.625L185.51 104.018L186.842 103.508L187.833 106.143C190.837 104.84 193.245 102.517 194.718 99.5983L192.197 98.465L192.792 97.1617L195.342 98.295C195.965 96.7083 196.333 94.98 196.333 93.1667C196.333 91.665 196.022 90.22 195.625 88.86L193.018 89.8233ZM185.425 101.015C181.09 102.8 176.103 100.76 174.318 96.425C172.533 92.09 174.573 87.1033 178.908 85.3183C183.243 83.5333 188.23 85.5733 190.015 89.9083C190.445 90.9387 190.668 92.0439 190.67 93.1605C190.672 94.2771 190.454 95.3831 190.027 96.4151C189.601 97.447 188.975 98.3846 188.185 99.174C187.395 99.9634 186.457 100.589 185.425 101.015Z" fill="black"/>
</g>
<path id="Traway" d="M101.894 58.8301C101.776 58.8691 101.688 58.874 101.63 58.8447C101.571 58.8154 101.527 58.7666 101.498 58.6982C101.469 58.6299 101.454 58.5566 101.454 58.4785C101.454 58.3906 101.459 58.3076 101.469 58.2295C101.479 58.1611 101.493 58.083 101.513 57.9951C101.542 57.9072 101.576 57.8242 101.615 57.7461C101.654 57.668 101.698 57.6045 101.747 57.5557C101.806 57.4971 101.879 57.458 101.967 57.4385C102.416 57.3604 102.851 57.3018 103.271 57.2627C103.7 57.2236 104.086 57.1943 104.428 57.1748C104.818 57.1455 105.194 57.1309 105.556 57.1309C105.634 57.1309 105.712 57.1357 105.79 57.1455C105.868 57.1455 105.946 57.1455 106.024 57.1455C106.112 57.126 106.181 57.1211 106.229 57.1309C106.288 57.1309 106.337 57.1357 106.376 57.1455C106.659 57.1553 106.952 57.1699 107.255 57.1895C107.509 57.209 107.792 57.2334 108.104 57.2627C108.427 57.2822 108.744 57.3115 109.057 57.3506C109.086 57.4287 109.091 57.5264 109.071 57.6436C109.062 57.7021 109.052 57.7607 109.042 57.8193C109.032 57.8779 109.008 57.9316 108.969 57.9805C108.939 58.0293 108.9 58.0781 108.852 58.127C108.812 58.166 108.764 58.2002 108.705 58.2295C108.373 58.2197 108.051 58.2148 107.738 58.2148C107.436 58.2051 107.167 58.2002 106.933 58.2002H106.142C106.015 58.6494 105.858 59.2061 105.673 59.8701C105.487 60.5244 105.297 61.2178 105.102 61.9502C104.916 62.6729 104.735 63.3955 104.56 64.1182C104.394 64.8311 104.262 65.4756 104.164 66.0518C104.066 66.6084 103.969 67.1553 103.871 67.6924C103.832 67.917 103.788 68.1514 103.739 68.3955C103.7 68.6396 103.661 68.8789 103.622 69.1133C103.593 69.3477 103.563 69.5723 103.534 69.7871C103.505 70.002 103.48 70.1973 103.461 70.373C103.305 70.4512 103.158 70.5098 103.021 70.5488C102.885 70.5977 102.763 70.6318 102.655 70.6514C102.528 70.6807 102.411 70.6953 102.304 70.6953C102.069 70.6953 101.923 70.666 101.864 70.6074C101.815 70.5586 101.811 70.4561 101.85 70.2998C101.879 70.1631 101.967 69.792 102.113 69.1865C102.172 68.9326 102.245 68.6104 102.333 68.2197C102.431 67.8389 102.543 67.375 102.67 66.8281C102.797 66.2715 102.948 65.627 103.124 64.8945C103.3 64.1523 103.5 63.3027 103.725 62.3457L104.706 58.2734C104.413 58.3125 104.125 58.3564 103.842 58.4053C103.559 58.4541 103.29 58.5078 103.036 58.5664C102.792 58.6152 102.567 58.6641 102.362 58.7129C102.167 58.7617 102.011 58.8008 101.894 58.8301ZM106.801 67.9268C106.732 68.0342 106.659 68.1025 106.581 68.1318C106.493 68.1709 106.42 68.1758 106.361 68.1465C106.293 68.127 106.249 68.0781 106.229 68C106.21 67.9219 106.229 67.8242 106.288 67.707C106.317 67.6484 106.386 67.5166 106.493 67.3115C106.591 67.1064 106.713 66.8623 106.859 66.5791C106.996 66.2861 107.147 65.9736 107.313 65.6416C107.479 65.2998 107.636 64.9775 107.782 64.6748C107.938 64.3721 108.08 64.1035 108.207 63.8691C108.334 63.625 108.427 63.4492 108.485 63.3418C108.378 63.2441 108.305 63.1758 108.266 63.1367C108.227 63.0879 108.197 62.9902 108.178 62.8438C108.158 62.7168 108.188 62.5508 108.266 62.3457C108.344 62.1406 108.446 61.9453 108.573 61.7598C108.7 61.5645 108.842 61.3984 108.998 61.2617C109.154 61.125 109.306 61.0566 109.452 61.0566C109.726 61.0566 109.916 61.1445 110.023 61.3203C110.141 61.4961 110.209 61.6768 110.229 61.8623C110.248 61.9893 110.238 62.1504 110.199 62.3457C110.16 62.541 110.087 62.7168 109.979 62.873C110.009 62.8926 110.048 62.917 110.097 62.9463C110.146 62.9658 110.224 62.9756 110.331 62.9756C110.487 62.9756 110.595 62.9658 110.653 62.9463C110.722 62.9268 110.824 62.917 110.961 62.917C111.127 62.917 111.264 62.9609 111.371 63.0488C111.479 63.127 111.566 63.2295 111.635 63.3564C111.703 63.4736 111.752 63.6055 111.781 63.752C111.82 63.8887 111.845 64.0156 111.854 64.1328C111.884 64.377 111.82 64.6309 111.664 64.8945C111.508 65.1582 111.317 65.4463 111.093 65.7588C110.956 65.9541 110.819 66.1738 110.683 66.418C110.546 66.6621 110.487 66.8818 110.507 67.0771C110.526 67.2041 110.561 67.3066 110.609 67.3848C110.658 67.4629 110.795 67.502 111.02 67.502C111.186 67.502 111.366 67.4434 111.562 67.3262C111.767 67.1992 111.972 67.043 112.177 66.8574C112.392 66.6621 112.602 66.4521 112.807 66.2275C113.012 65.9932 113.202 65.7686 113.378 65.5537C113.554 65.3291 113.7 65.1289 113.817 64.9531C113.944 64.7773 114.037 64.6504 114.096 64.5723C114.145 64.4941 114.208 64.4404 114.286 64.4111C114.364 64.3818 114.433 64.3818 114.491 64.4111C114.55 64.4404 114.584 64.499 114.594 64.5869C114.613 64.6748 114.579 64.792 114.491 64.9385C114.433 65.0361 114.33 65.1924 114.184 65.4072C114.047 65.6221 113.876 65.8613 113.671 66.125C113.476 66.3887 113.256 66.6621 113.012 66.9453C112.768 67.2188 112.509 67.4727 112.235 67.707C111.972 67.9316 111.703 68.1172 111.43 68.2637C111.166 68.4102 110.912 68.4834 110.668 68.4834C110.414 68.4834 110.204 68.4346 110.038 68.3369C109.872 68.2393 109.735 68.1221 109.628 67.9854C109.53 67.8389 109.457 67.6826 109.408 67.5166C109.369 67.3408 109.354 67.1797 109.364 67.0332C109.374 66.916 109.403 66.7939 109.452 66.667C109.511 66.5303 109.574 66.3936 109.643 66.2568C109.721 66.1104 109.799 65.9688 109.877 65.832C109.965 65.6855 110.043 65.5439 110.111 65.4072C110.277 65.124 110.409 64.8848 110.507 64.6895C110.614 64.4844 110.668 64.3135 110.668 64.1768C110.668 64.0889 110.648 64.0107 110.609 63.9424C110.57 63.874 110.507 63.8398 110.419 63.8398C110.36 63.8398 110.316 63.8447 110.287 63.8545C110.268 63.8545 110.243 63.8545 110.214 63.8545C110.194 63.8545 110.16 63.8594 110.111 63.8691C110.072 63.8691 110.009 63.8691 109.921 63.8691C109.794 63.8691 109.687 63.8496 109.599 63.8105C109.511 63.7715 109.428 63.7422 109.35 63.7227C109.311 63.791 109.223 63.9375 109.086 64.1621C108.949 64.3867 108.788 64.6504 108.603 64.9531C108.427 65.2559 108.236 65.5732 108.031 65.9053C107.836 66.2373 107.65 66.5498 107.475 66.8428C107.299 67.126 107.152 67.3701 107.035 67.5752C106.908 67.7705 106.83 67.8877 106.801 67.9268ZM120.966 65.085C120.829 65.2803 120.653 65.5244 120.438 65.8174C120.224 66.1006 119.999 66.3887 119.765 66.6816C119.54 66.9648 119.315 67.2285 119.091 67.4727C118.876 67.707 118.695 67.873 118.549 67.9707C118.451 68.0293 118.339 68.0781 118.212 68.1172C118.085 68.1562 117.953 68.1807 117.816 68.1904C117.689 68.2002 117.567 68.1904 117.45 68.1611C117.333 68.1416 117.23 68.1025 117.143 68.0439C117.055 67.9756 116.981 67.8779 116.923 67.751C116.874 67.6436 116.825 67.502 116.776 67.3262C116.737 67.1504 116.723 66.9307 116.732 66.667C116.498 67.0576 116.239 67.3604 115.956 67.5752C115.673 67.7803 115.404 67.9316 115.15 68.0293C114.857 68.1367 114.564 68.2002 114.271 68.2197C114.135 68.2197 113.988 68.1709 113.832 68.0732C113.676 67.9854 113.544 67.8438 113.437 67.6484C113.329 67.4434 113.261 67.1846 113.231 66.8721C113.202 66.5498 113.241 66.1689 113.349 65.7295C113.485 65.1338 113.7 64.5918 113.993 64.1035C114.296 63.6152 114.623 63.2002 114.975 62.8584C115.326 62.5068 115.673 62.2432 116.015 62.0674C116.356 61.8916 116.64 61.8135 116.864 61.833C117.128 61.8818 117.343 61.96 117.509 62.0674C117.646 62.165 117.733 62.3115 117.772 62.5068C117.821 62.6924 117.743 62.9414 117.538 63.2539C117.675 63.2246 117.787 63.2051 117.875 63.1953C117.973 63.1855 118.046 63.1807 118.095 63.1807C118.153 63.1807 118.192 63.1855 118.212 63.1953C118.222 63.2148 118.227 63.2588 118.227 63.3271C118.227 63.3857 118.212 63.498 118.183 63.6641C118.153 63.8301 118.109 64.0547 118.051 64.3379C117.992 64.6211 117.914 64.9873 117.816 65.4365C117.797 65.5244 117.777 65.6074 117.758 65.6855C117.748 65.7539 117.733 65.8271 117.714 65.9053C117.704 65.9736 117.689 66.0566 117.67 66.1543C117.65 66.252 117.626 66.374 117.597 66.5205C117.587 66.6084 117.582 66.7061 117.582 66.8135C117.592 66.9111 117.611 67.0039 117.641 67.0918C117.67 67.1797 117.714 67.2529 117.772 67.3115C117.841 67.3604 117.934 67.3848 118.051 67.3848C118.148 67.3848 118.275 67.3262 118.432 67.209C118.588 67.082 118.754 66.9258 118.93 66.7402C119.105 66.5449 119.286 66.335 119.472 66.1104C119.667 65.876 119.848 65.6514 120.014 65.4365C120.18 65.2217 120.326 65.0312 120.453 64.8652C120.59 64.6992 120.688 64.5771 120.746 64.499C120.824 64.4111 120.902 64.3623 120.98 64.3525C121.059 64.333 121.117 64.3525 121.156 64.4111C121.195 64.4697 121.2 64.5576 121.171 64.6748C121.151 64.792 121.083 64.9287 120.966 65.085ZM116.674 65.7295C116.723 65.5342 116.781 65.3047 116.85 65.041C116.918 64.7773 116.977 64.5234 117.025 64.2793C117.074 64.0352 117.108 63.835 117.128 63.6787C117.157 63.5127 117.152 63.4346 117.113 63.4443C117.064 63.4541 117.011 63.4688 116.952 63.4883C116.903 63.5078 116.84 63.5225 116.762 63.5322C116.684 63.542 116.605 63.5566 116.527 63.5762C116.605 63.4199 116.649 63.293 116.659 63.1953C116.679 63.0879 116.684 63.0049 116.674 62.9463C116.664 62.8779 116.645 62.8242 116.615 62.7852C116.508 62.6973 116.317 62.7705 116.044 63.0049C115.78 63.2295 115.473 63.6494 115.121 64.2646C114.975 64.5186 114.857 64.792 114.77 65.085C114.682 65.3682 114.618 65.6367 114.579 65.8906C114.55 66.1445 114.545 66.3691 114.564 66.5645C114.584 66.75 114.623 66.8721 114.682 66.9307C114.789 67.0381 114.911 67.0918 115.048 67.0918C115.185 67.082 115.321 67.043 115.458 66.9746C115.604 66.8965 115.746 66.7988 115.883 66.6816C116.029 66.5645 116.156 66.4424 116.264 66.3154C116.381 66.1885 116.474 66.0713 116.542 65.9639C116.62 65.8564 116.664 65.7783 116.674 65.7295ZM127.616 65.4658C127.479 65.8174 127.323 66.1592 127.147 66.4912C126.972 66.8232 126.776 67.1211 126.562 67.3848C126.347 67.6484 126.117 67.8584 125.873 68.0146C125.629 68.1709 125.365 68.249 125.082 68.249C124.623 68.249 124.276 68.0977 124.042 67.7949C123.808 67.4824 123.646 67.1016 123.559 66.6523C123.422 66.8574 123.275 67.0625 123.119 67.2676C122.963 67.4727 122.797 67.6533 122.621 67.8096C122.445 67.9658 122.265 68.0928 122.079 68.1904C121.894 68.2881 121.708 68.3369 121.522 68.3369C121.269 68.3369 121.054 68.2832 120.878 68.1758C120.702 68.0684 120.556 67.9219 120.438 67.7363C120.331 67.541 120.253 67.3213 120.204 67.0771C120.155 66.8232 120.131 66.5547 120.131 66.2715V66.0957C120.131 65.7344 120.16 65.3633 120.219 64.9824C120.277 64.6016 120.341 64.25 120.409 63.9277C120.487 63.6055 120.565 63.3271 120.644 63.0928C120.722 62.8486 120.78 62.6875 120.819 62.6094C120.888 62.5117 121.034 62.4189 121.259 62.3311C121.493 62.2334 121.723 62.1943 121.947 62.2139C122.055 62.2236 122.108 62.2676 122.108 62.3457C122.118 62.4238 122.108 62.5215 122.079 62.6387C122.04 62.8047 121.972 63.0537 121.874 63.3857C121.776 63.7178 121.674 64.0791 121.566 64.4697C121.469 64.8604 121.381 65.2461 121.303 65.627C121.225 66.0078 121.186 66.3252 121.186 66.5791C121.186 66.8916 121.234 67.1162 121.332 67.2529C121.43 67.3896 121.581 67.458 121.786 67.458C122.03 67.458 122.299 67.3213 122.592 67.0479C122.895 66.7744 123.188 66.3105 123.471 65.6562C123.461 65.5977 123.456 65.5391 123.456 65.4805C123.456 65.4219 123.456 65.3584 123.456 65.29C123.456 64.8506 123.471 64.4307 123.5 64.0303C123.539 63.6299 123.607 63.2783 123.705 62.9756C123.812 62.6729 123.954 62.4336 124.13 62.2578C124.315 62.082 124.555 61.9941 124.848 61.9941C124.965 61.9941 125.062 62.0283 125.141 62.0967C125.219 62.165 125.258 62.2627 125.258 62.3896C125.258 62.7021 125.146 63.1465 124.921 63.7227C124.706 64.2891 124.447 64.9141 124.145 65.5977C124.115 65.6367 124.096 65.6758 124.086 65.7148C124.115 65.9004 124.149 66.0957 124.188 66.3008C124.237 66.5059 124.301 66.6963 124.379 66.8721C124.457 67.0381 124.55 67.1797 124.657 67.2969C124.765 67.4043 124.892 67.458 125.038 67.458C125.253 67.458 125.448 67.3555 125.624 67.1504C125.81 66.9453 125.971 66.6963 126.107 66.4033C126.254 66.1104 126.381 65.8027 126.488 65.4805C126.596 65.1484 126.679 64.8555 126.737 64.6016C126.708 64.4941 126.684 64.3916 126.664 64.2939C126.645 64.1865 126.635 64.0645 126.635 63.9277C126.635 63.625 126.679 63.3662 126.767 63.1514C126.854 62.9365 126.967 62.7607 127.104 62.624C127.25 62.4775 127.401 62.3701 127.558 62.3018C127.724 62.2334 127.875 62.1992 128.012 62.1992C128.256 62.1992 128.378 62.3066 128.378 62.5215C128.378 62.6777 128.339 62.9512 128.261 63.3418C128.183 63.7227 128.07 64.1572 127.924 64.6455C128.1 64.7236 128.324 64.7627 128.598 64.7627C128.852 64.7627 129.086 64.7334 129.301 64.6748C129.516 64.6064 129.711 64.5234 129.887 64.4258C130.062 64.3281 130.224 64.2207 130.37 64.1035C130.517 63.9863 130.658 63.874 130.795 63.7666C130.902 63.6885 130.99 63.6836 131.059 63.752C131.127 63.8203 131.117 63.9277 131.029 64.0742C130.951 64.2012 130.814 64.3477 130.619 64.5137C130.434 64.6797 130.204 64.8408 129.931 64.9971C129.667 65.1436 129.369 65.2705 129.037 65.3779C128.715 65.4756 128.373 65.5244 128.012 65.5244C127.953 65.5244 127.89 65.5195 127.821 65.5098C127.753 65.5 127.685 65.4854 127.616 65.4658ZM137.196 65.085C137.06 65.2803 136.884 65.5244 136.669 65.8174C136.454 66.1006 136.229 66.3887 135.995 66.6816C135.771 66.9648 135.546 67.2285 135.321 67.4727C135.106 67.707 134.926 67.873 134.779 67.9707C134.682 68.0293 134.569 68.0781 134.442 68.1172C134.315 68.1562 134.184 68.1807 134.047 68.1904C133.92 68.2002 133.798 68.1904 133.681 68.1611C133.563 68.1416 133.461 68.1025 133.373 68.0439C133.285 67.9756 133.212 67.8779 133.153 67.751C133.104 67.6436 133.056 67.502 133.007 67.3262C132.968 67.1504 132.953 66.9307 132.963 66.667C132.729 67.0576 132.47 67.3604 132.187 67.5752C131.903 67.7803 131.635 67.9316 131.381 68.0293C131.088 68.1367 130.795 68.2002 130.502 68.2197C130.365 68.2197 130.219 68.1709 130.062 68.0732C129.906 67.9854 129.774 67.8438 129.667 67.6484C129.56 67.4434 129.491 67.1846 129.462 66.8721C129.433 66.5498 129.472 66.1689 129.579 65.7295C129.716 65.1338 129.931 64.5918 130.224 64.1035C130.526 63.6152 130.854 63.2002 131.205 62.8584C131.557 62.5068 131.903 62.2432 132.245 62.0674C132.587 61.8916 132.87 61.8135 133.095 61.833C133.358 61.8818 133.573 61.96 133.739 62.0674C133.876 62.165 133.964 62.3115 134.003 62.5068C134.052 62.6924 133.974 62.9414 133.769 63.2539C133.905 63.2246 134.018 63.2051 134.105 63.1953C134.203 63.1855 134.276 63.1807 134.325 63.1807C134.384 63.1807 134.423 63.1855 134.442 63.1953C134.452 63.2148 134.457 63.2588 134.457 63.3271C134.457 63.3857 134.442 63.498 134.413 63.6641C134.384 63.8301 134.34 64.0547 134.281 64.3379C134.223 64.6211 134.145 64.9873 134.047 65.4365C134.027 65.5244 134.008 65.6074 133.988 65.6855C133.979 65.7539 133.964 65.8271 133.944 65.9053C133.935 65.9736 133.92 66.0566 133.9 66.1543C133.881 66.252 133.856 66.374 133.827 66.5205C133.817 66.6084 133.812 66.7061 133.812 66.8135C133.822 66.9111 133.842 67.0039 133.871 67.0918C133.9 67.1797 133.944 67.2529 134.003 67.3115C134.071 67.3604 134.164 67.3848 134.281 67.3848C134.379 67.3848 134.506 67.3262 134.662 67.209C134.818 67.082 134.984 66.9258 135.16 66.7402C135.336 66.5449 135.517 66.335 135.702 66.1104C135.897 65.876 136.078 65.6514 136.244 65.4365C136.41 65.2217 136.557 65.0312 136.684 64.8652C136.82 64.6992 136.918 64.5771 136.977 64.499C137.055 64.4111 137.133 64.3623 137.211 64.3525C137.289 64.333 137.348 64.3525 137.387 64.4111C137.426 64.4697 137.431 64.5576 137.401 64.6748C137.382 64.792 137.313 64.9287 137.196 65.085ZM132.904 65.7295C132.953 65.5342 133.012 65.3047 133.08 65.041C133.148 64.7773 133.207 64.5234 133.256 64.2793C133.305 64.0352 133.339 63.835 133.358 63.6787C133.388 63.5127 133.383 63.4346 133.344 63.4443C133.295 63.4541 133.241 63.4688 133.183 63.4883C133.134 63.5078 133.07 63.5225 132.992 63.5322C132.914 63.542 132.836 63.5566 132.758 63.5762C132.836 63.4199 132.88 63.293 132.89 63.1953C132.909 63.0879 132.914 63.0049 132.904 62.9463C132.895 62.8779 132.875 62.8242 132.846 62.7852C132.738 62.6973 132.548 62.7705 132.274 63.0049C132.011 63.2295 131.703 63.6494 131.352 64.2646C131.205 64.5186 131.088 64.792 131 65.085C130.912 65.3682 130.849 65.6367 130.81 65.8906C130.78 66.1445 130.775 66.3691 130.795 66.5645C130.814 66.75 130.854 66.8721 130.912 66.9307C131.02 67.0381 131.142 67.0918 131.278 67.0918C131.415 67.082 131.552 67.043 131.688 66.9746C131.835 66.8965 131.977 66.7988 132.113 66.6816C132.26 66.5645 132.387 66.4424 132.494 66.3154C132.611 66.1885 132.704 66.0713 132.772 65.9639C132.851 65.8564 132.895 65.7783 132.904 65.7295ZM140.067 62.6094C140.194 62.5117 140.316 62.4385 140.434 62.3896C140.561 62.3311 140.673 62.292 140.771 62.2725C140.878 62.2432 140.985 62.2334 141.093 62.2432C141.356 62.2627 141.518 62.3457 141.576 62.4922C141.645 62.6387 141.654 62.873 141.605 63.1953C141.576 63.3613 141.518 63.5713 141.43 63.8252C141.342 64.0791 141.239 64.3916 141.122 64.7627C141.005 65.124 140.878 65.5391 140.741 66.0078C140.614 66.4766 140.492 67.0039 140.375 67.5898C140.258 68.0684 140.131 68.6201 139.994 69.2451C139.877 69.792 139.735 70.4512 139.569 71.2227C139.413 71.9941 139.242 72.8779 139.057 73.874C139.008 74.1182 138.9 74.2598 138.734 74.2988C138.578 74.3379 138.412 74.3184 138.236 74.2402C138.168 74.2012 138.104 74.1572 138.046 74.1084C137.997 74.0596 137.943 74.001 137.885 73.9326C137.826 73.874 137.777 73.791 137.738 73.6836C137.963 72.8633 138.158 72.1162 138.324 71.4424C138.5 70.7686 138.656 70.1826 138.793 69.6846C138.939 69.1084 139.076 68.5908 139.203 68.1318C139.252 67.9268 139.296 67.7266 139.335 67.5312C139.384 67.3262 139.433 67.126 139.481 66.9307C139.354 67.1357 139.218 67.3311 139.071 67.5166C138.925 67.7021 138.764 67.8633 138.588 68C138.412 68.1367 138.222 68.2393 138.017 68.3076C137.821 68.3857 137.616 68.4102 137.401 68.3809C136.874 68.3125 136.498 68.1172 136.273 67.7949C136.059 67.4727 135.966 67.0527 135.995 66.5352C136.005 66.3301 136.034 66.1055 136.083 65.8613C136.132 65.6172 136.186 65.3828 136.244 65.1582C136.303 64.9336 136.356 64.7334 136.405 64.5576C136.464 64.3721 136.508 64.2402 136.537 64.1621C136.654 63.791 136.737 63.4736 136.786 63.21C136.845 62.9463 136.806 62.7266 136.669 62.5508C136.806 62.4629 136.933 62.4043 137.05 62.375C137.177 62.3359 137.289 62.3066 137.387 62.2871C137.494 62.2773 137.602 62.2773 137.709 62.2871C137.973 62.3262 138.124 62.4238 138.163 62.5801C138.212 62.7363 138.197 62.9707 138.119 63.2832C138.08 63.4492 138.017 63.6641 137.929 63.9277C137.841 64.1816 137.748 64.4453 137.65 64.7188C137.553 64.9922 137.465 65.2461 137.387 65.4805C137.309 65.7051 137.265 65.8662 137.255 65.9639C137.167 66.4033 137.162 66.7451 137.24 66.9893C137.318 67.2236 137.489 67.3408 137.753 67.3408C137.88 67.3408 138.021 67.2871 138.178 67.1797C138.334 67.0625 138.49 66.9111 138.646 66.7256C138.812 66.54 138.974 66.3301 139.13 66.0957C139.286 65.8516 139.428 65.6074 139.555 65.3633C139.691 65.1191 139.809 64.8799 139.906 64.6455C140.014 64.4111 140.092 64.2012 140.141 64.0156C140.209 63.6543 140.253 63.3711 140.272 63.166C140.292 62.9609 140.224 62.7754 140.067 62.6094Z" fill="black"/>
</g>
<g id="Rock">
<path id="Vector" d="M324.313 96.159C324.393 96.263 324.441 96.387 324.455 96.5172C324.468 96.6473 324.445 96.7786 324.388 96.8964L321.629 102.608C321.582 102.706 321.512 102.793 321.425 102.86C321.338 102.927 321.237 102.973 321.129 102.994L313.481 104.509C313.383 104.528 313.283 104.526 313.186 104.504C313.089 104.482 312.998 104.441 312.918 104.381L296.284 91.9302C296.207 91.873 296.143 91.801 296.095 91.7184C296.048 91.6358 296.017 91.5444 296.005 91.4496C295.994 91.3549 296.001 91.2588 296.028 91.1671C296.054 91.0753 296.099 90.9899 296.159 90.9159L297.886 88.793C297.949 88.7155 298.028 88.6523 298.117 88.6074L311.083 82.0752C311.227 82.0035 311.391 81.9823 311.549 82.015L314.254 82.5866C314.347 82.606 314.434 82.6437 314.511 82.6975C314.589 82.7513 314.655 82.82 314.705 82.8997L316.599 85.835L317.746 87.5988L324.313 96.159Z" fill="#D0CFCE"/>
<path id="Vector_2" d="M303.706 111.041H317.94L313.357 103.829L296.8 91.3628L296 94.7819L303.706 111.041Z" fill="#3F3F3F"/>
<path id="Vector_3" d="M323.601 96.8964L324.556 105.051L323.381 111.041H317.94L313.357 103.83L320.881 102.499L323.601 96.8964Z" fill="#9B9B9A"/>
<g id="Group">
<path id="Vector_4" d="M317.238 88.0968L323.75 96.589L324.556 104.835L323.381 111.041H303.706L296.132 94.6503L296.708 91.3629L298.436 89.24L311.402 82.7078L314.107 83.2794L315.98 86.1906L312.429 88.5657" stroke="black" stroke-width="1.41667" stroke-linecap="round" stroke-linejoin="round"/>
<path id="Vector_5" d="M318.345 111.041L313.343 103.814M313.343 103.814L296.708 91.3628M313.343 103.814L320.991 102.299L323.75 96.5889" stroke="black" stroke-width="1.41667" stroke-linecap="round" stroke-linejoin="round"/>
</g>
</g>
<g id="Rock_2">
<path id="Vector_6" d="M4.04228 104.458C4.02852 104.476 4.02003 104.497 4.01775 104.52C4.01547 104.543 4.01949 104.565 4.02937 104.586L4.50816 105.577C4.51646 105.594 4.52861 105.609 4.54367 105.621C4.55874 105.633 4.57629 105.641 4.59496 105.644L5.92264 105.907C5.93956 105.911 5.95698 105.91 5.97379 105.906C5.99061 105.903 6.00644 105.895 6.02027 105.885L8.90777 103.724C8.92103 103.714 8.93215 103.701 8.94046 103.687C8.94877 103.673 8.95409 103.657 8.95611 103.64C8.95813 103.624 8.95681 103.607 8.95222 103.591C8.94763 103.575 8.93987 103.561 8.92941 103.548L8.62964 103.179C8.61871 103.166 8.60505 103.155 8.58956 103.147L6.33885 102.013C6.31381 102.001 6.28532 101.997 6.25795 102.003L5.78838 102.102C5.77235 102.105 5.75717 102.112 5.74372 102.121C5.73026 102.13 5.71882 102.142 5.71005 102.156L5.38139 102.666L5.1822 102.972L4.04228 104.458Z" fill="#D0CFCE"/>
<path id="Vector_7" d="M7.61952 107.041H5.14859L5.94424 105.789L8.81821 103.625L8.95703 104.219L7.61952 107.041Z" fill="#3F3F3F"/>
<path id="Vector_8" d="M4.16578 104.586L4.00003 106.001L4.20402 107.041H5.14844L5.94409 105.789L4.63805 105.558L4.16578 104.586Z" fill="#9B9B9A"/>
<g id="Group_2">
<path id="Vector_9" d="M5.27036 103.058L4.14003 104.532L4.0001 105.964L4.20409 107.041H7.61944L8.93408 104.196L8.83412 103.625L8.53423 103.257L6.2834 102.123L5.81383 102.222L5.48885 102.727L6.10511 103.14" stroke="black" stroke-width="0.245912" stroke-linecap="round" stroke-linejoin="round"/>
<path id="Vector_10" d="M5.07841 107.041L5.94661 105.787M5.94661 105.787L8.83423 103.625M5.94661 105.787L4.61905 105.524L4.14014 104.532" stroke="black" stroke-width="0.245912" stroke-linecap="round" stroke-linejoin="round"/>
</g>
</g>
<g id="Rock_3">
<path id="Vector_11" d="M16.0423 99.4578C16.0285 99.4758 16.02 99.4974 16.0177 99.52C16.0155 99.5426 16.0195 99.5653 16.0294 99.5858L16.5082 100.577C16.5165 100.594 16.5286 100.609 16.5437 100.621C16.5587 100.633 16.5763 100.641 16.595 100.644L17.9226 100.907C17.9396 100.911 17.957 100.91 17.9738 100.906C17.9906 100.903 18.0064 100.895 18.0203 100.885L20.9078 98.7237C20.921 98.7138 20.9322 98.7013 20.9405 98.687C20.9488 98.6726 20.9541 98.6568 20.9561 98.6403C20.9581 98.6239 20.9568 98.6072 20.9522 98.5913C20.9476 98.5753 20.9399 98.5605 20.9294 98.5477L20.6296 98.1792C20.6187 98.1657 20.605 98.1547 20.5896 98.147L18.3389 97.0131C18.3138 97.0006 18.2853 96.9969 18.2579 97.0026L17.7884 97.1018C17.7724 97.1052 17.7572 97.1117 17.7437 97.1211C17.7303 97.1304 17.7188 97.1423 17.7101 97.1562L17.3814 97.6657L17.1822 97.9719L16.0423 99.4578Z" fill="#D0CFCE"/>
<path id="Vector_12" d="M19.6195 102.041H17.1486L17.9442 100.789L20.8182 98.6252L20.957 99.2188L19.6195 102.041Z" fill="#3F3F3F"/>
<path id="Vector_13" d="M16.1658 99.5858L16 101.001L16.204 102.041H17.1484L17.9441 100.789L16.6381 100.558L16.1658 99.5858Z" fill="#9B9B9A"/>
<g id="Group_3">
<path id="Vector_14" d="M17.2704 98.0583L16.14 99.5324L16.0001 100.964L16.2041 102.041H19.6194L20.9341 99.1958L20.8341 98.6252L20.5342 98.2567L18.2834 97.1228L17.8138 97.222L17.4889 97.7274L18.1051 98.1396" stroke="black" stroke-width="0.245912" stroke-linecap="round" stroke-linejoin="round"/>
<path id="Vector_15" d="M17.0784 102.041L17.9466 100.787M17.9466 100.787L20.8342 98.6252M17.9466 100.787L16.6191 100.524L16.1401 99.5324" stroke="black" stroke-width="0.245912" stroke-linecap="round" stroke-linejoin="round"/>
</g>
</g>
<g id="Rock_4">
<path id="Vector_16" d="M1.04228 96.4578C1.02852 96.4758 1.02003 96.4974 1.01775 96.52C1.01547 96.5426 1.01949 96.5653 1.02937 96.5858L1.50816 97.5772C1.51646 97.5943 1.52861 97.6093 1.54367 97.6209C1.55874 97.6326 1.57629 97.6406 1.59496 97.6443L2.92264 97.9072C2.93956 97.9105 2.95698 97.9102 2.97379 97.9064C2.99061 97.9026 3.00644 97.8953 3.02027 97.8851L5.90777 95.7237C5.92103 95.7138 5.93215 95.7013 5.94046 95.687C5.94877 95.6726 5.95409 95.6568 5.95611 95.6403C5.95813 95.6239 5.95681 95.6072 5.95222 95.5913C5.94763 95.5753 5.93987 95.5605 5.92941 95.5477L5.62964 95.1792C5.61871 95.1657 5.60505 95.1547 5.58956 95.147L3.33885 94.0131C3.31381 94.0006 3.28532 93.9969 3.25795 94.0026L2.78838 94.1018C2.77235 94.1052 2.75717 94.1117 2.74372 94.1211C2.73026 94.1304 2.71882 94.1423 2.71005 94.1562L2.38139 94.6657L2.1822 94.9719L1.04228 96.4578Z" fill="#D0CFCE"/>
<path id="Vector_17" d="M4.61952 99.0411H2.14859L2.94424 97.7893L5.81821 95.6252L5.95703 96.2188L4.61952 99.0411Z" fill="#3F3F3F"/>
<path id="Vector_18" d="M1.16578 96.5858L1.00003 98.0014L1.20402 99.0411H2.14844L2.94409 97.7893L1.63805 97.5583L1.16578 96.5858Z" fill="#9B9B9A"/>
<g id="Group_4">
<path id="Vector_19" d="M2.27036 95.0583L1.14003 96.5324L1.0001 97.9638L1.20409 99.041H4.61944L5.93408 96.1958L5.83412 95.6252L5.53423 95.2567L3.2834 94.1228L2.81383 94.222L2.48885 94.7274L3.10511 95.1396" stroke="black" stroke-width="0.245912" stroke-linecap="round" stroke-linejoin="round"/>
<path id="Vector_20" d="M2.07841 99.0411L2.94661 97.7866M2.94661 97.7866L5.83423 95.6252M2.94661 97.7866L1.61905 97.5237L1.14014 96.5324" stroke="black" stroke-width="0.245912" stroke-linecap="round" stroke-linejoin="round"/>
</g>
</g>
<g id="Rock_5">
<path id="Vector_21" d="M11.0423 105.458C11.0285 105.476 11.02 105.497 11.0177 105.52C11.0155 105.543 11.0195 105.565 11.0294 105.586L11.5082 106.577C11.5165 106.594 11.5286 106.609 11.5437 106.621C11.5587 106.633 11.5763 106.641 11.595 106.644L12.9226 106.907C12.9396 106.911 12.957 106.91 12.9738 106.906C12.9906 106.903 13.0064 106.895 13.0203 106.885L15.9078 104.724C15.921 104.714 15.9322 104.701 15.9405 104.687C15.9488 104.673 15.9541 104.657 15.9561 104.64C15.9581 104.624 15.9568 104.607 15.9522 104.591C15.9476 104.575 15.9399 104.561 15.9294 104.548L15.6296 104.179C15.6187 104.166 15.605 104.155 15.5896 104.147L13.3389 103.013C13.3138 103.001 13.2853 102.997 13.2579 103.003L12.7884 103.102C12.7724 103.105 12.7572 103.112 12.7437 103.121C12.7303 103.13 12.7188 103.142 12.7101 103.156L12.3814 103.666L12.1822 103.972L11.0423 105.458Z" fill="#D0CFCE"/>
<path id="Vector_22" d="M14.6195 108.041H12.1486L12.9442 106.789L15.8182 104.625L15.957 105.219L14.6195 108.041Z" fill="#3F3F3F"/>
<path id="Vector_23" d="M11.1658 105.586L11 107.001L11.204 108.041H12.1484L12.9441 106.789L11.6381 106.558L11.1658 105.586Z" fill="#9B9B9A"/>
<g id="Group_5">
<path id="Vector_24" d="M12.2704 104.058L11.14 105.532L11.0001 106.964L11.2041 108.041H14.6194L15.9341 105.196L15.8341 104.625L15.5342 104.257L13.2834 103.123L12.8138 103.222L12.4889 103.727L13.1051 104.14" stroke="black" stroke-width="0.245912" stroke-linecap="round" stroke-linejoin="round"/>
<path id="Vector_25" d="M12.0784 108.041L12.9466 106.787M12.9466 106.787L15.8342 104.625M12.9466 106.787L11.6191 106.524L11.1401 105.532" stroke="black" stroke-width="0.245912" stroke-linecap="round" stroke-linejoin="round"/>
</g>
</g>
<g id="Rock_6">
<path id="Vector_26" d="M117.042 103.458C117.029 103.476 117.02 103.497 117.018 103.52C117.015 103.543 117.019 103.565 117.029 103.586L117.508 104.577C117.516 104.594 117.529 104.609 117.544 104.621C117.559 104.633 117.576 104.641 117.595 104.644L118.923 104.907C118.94 104.911 118.957 104.91 118.974 104.906C118.991 104.903 119.006 104.895 119.02 104.885L121.908 102.724C121.921 102.714 121.932 102.701 121.94 102.687C121.949 102.673 121.954 102.657 121.956 102.64C121.958 102.624 121.957 102.607 121.952 102.591C121.948 102.575 121.94 102.561 121.929 102.548L121.63 102.179C121.619 102.166 121.605 102.155 121.59 102.147L119.339 101.013C119.314 101.001 119.285 100.997 119.258 101.003L118.788 101.102C118.772 101.105 118.757 101.112 118.744 101.121C118.73 101.13 118.719 101.142 118.71 101.156L118.381 101.666L118.182 101.972L117.042 103.458Z" fill="#D0CFCE"/>
<path id="Vector_27" d="M120.62 106.041H118.149L118.944 104.789L121.818 102.625L121.957 103.219L120.62 106.041Z" fill="#3F3F3F"/>
<path id="Vector_28" d="M117.166 103.586L117 105.001L117.204 106.041H118.148L118.944 104.789L117.638 104.558L117.166 103.586Z" fill="#9B9B9A"/>
<g id="Group_6">
<path id="Vector_29" d="M118.27 102.058L117.14 103.532L117 104.964L117.204 106.041H120.619L121.934 103.196L121.834 102.625L121.534 102.257L119.283 101.123L118.814 101.222L118.489 101.727L119.105 102.14" stroke="black" stroke-width="0.245912" stroke-linecap="round" stroke-linejoin="round"/>
<path id="Vector_30" d="M118.078 106.041L118.947 104.787M118.947 104.787L121.834 102.625M118.947 104.787L117.619 104.524L117.14 103.532" stroke="black" stroke-width="0.245912" stroke-linecap="round" stroke-linejoin="round"/>
</g>
</g>
</g>
</svg>
