<svg width="31" height="30" viewBox="0 0 31 30" fill="none" xmlns="http://www.w3.org/2000/svg">
<path d="M29.3132 14.159C29.3925 14.263 29.4414 14.387 29.4546 14.5172C29.4677 14.6473 29.4445 14.7786 29.3876 14.8964L26.6294 20.6076C26.5816 20.7064 26.5115 20.7927 26.4248 20.8598C26.338 20.9269 26.2369 20.973 26.1293 20.9944L18.4807 22.5088C18.3832 22.5279 18.2829 22.5264 18.186 22.5044C18.0892 22.4825 17.998 22.4405 17.9183 22.3813L1.28379 9.93023C1.20738 9.87302 1.14332 9.80096 1.09546 9.71837C1.04761 9.63578 1.01693 9.54437 1.00529 9.44963C0.993646 9.35489 1.00127 9.25877 1.02771 9.16705C1.05414 9.07534 1.09884 8.98991 1.15912 8.9159L2.88604 6.79302C2.94904 6.71554 3.02774 6.6523 3.11695 6.60744L16.083 0.0751876C16.2272 0.00347428 16.3914 -0.0177285 16.5491 0.0149792L19.2542 0.586604C19.3465 0.606013 19.434 0.643716 19.5115 0.697488C19.589 0.751261 19.6549 0.820013 19.7054 0.899687L21.5988 3.83502L22.7463 5.59877L29.3132 14.159Z" fill="#D0CFCE"/>
<path d="M8.70574 29.041H22.9404L18.3568 21.8295L1.8002 9.36279L1.00049 12.7819L8.70574 29.041Z" fill="#3F3F3F"/>
<path d="M28.6013 14.8964L29.5561 23.0514L28.381 29.0411H22.9403L18.3567 21.8295L25.8806 20.4986L28.6013 14.8964Z" fill="#9B9B9A"/>
<path d="M22.2383 6.09676L28.75 14.589L29.5561 22.8354L28.381 29.0411H8.70558L1.13208 12.6503L1.70795 9.36289L3.43558 7.24001L16.4023 0.707764L19.1075 1.27939L20.9796 4.19064L17.4294 6.56568" stroke="black" stroke-width="1.41667" stroke-linecap="round" stroke-linejoin="round"/>
<path d="M23.3448 29.041L18.3432 21.8139M18.3432 21.8139L1.70801 9.36279M18.3432 21.8139L25.9911 20.2995L28.7501 14.5889" stroke="black" stroke-width="1.41667" stroke-linecap="round" stroke-linejoin="round"/>
</svg>
