<?xml version="1.0" standalone="no"?>
<!DOCTYPE svg PUBLIC "-//W3C//DTD SVG 20010904//EN"
 "http://www.w3.org/TR/2001/REC-SVG-20010904/DTD/svg10.dtd">
<svg version="1.0" xmlns="http://www.w3.org/2000/svg"
 width="700.000000pt" height="700.000000pt" viewBox="0 0 700.000000 700.000000"
 preserveAspectRatio="xMidYMid meet">
<metadata>
Created by potrace 1.14, written by Peter Selinger 2001-2017
</metadata>
<g transform="translate(0.000000,700.000000) scale(0.100000,-0.100000)"
fill="#000000" stroke="none">
<path d="M3280 6994 c-19 -2 -84 -9 -145 -14 -410 -40 -846 -169 -1225 -362
-343 -176 -628 -387 -908 -672 -561 -572 -883 -1252 -984 -2081 -16 -133 -16
-590 0 -730 74 -625 284 -1178 634 -1669 211 -295 519 -603 813 -813 491 -351
1038 -559 1670 -635 135 -16 590 -16 735 1 705 80 1348 354 1880 802 134 113
345 325 452 455 433 526 696 1153 780 1859 16 139 16 595 0 730 -103 852 -447
1557 -1043 2141 -555 542 -1249 874 -2029 970 -117 15 -553 27 -630 18z m1622
-1724 c50 -14 97 -55 119 -105 18 -38 19 -102 19 -1406 0 -1540 5 -1434 -76
-1515 l-44 -45 0 -129 0 -130 -270 0 -270 0 0 115 0 115 -775 0 -775 0 0 -115
0 -115 -270 0 -270 0 0 134 0 135 -28 20 c-15 11 -41 43 -58 73 l-29 53 0
1395 c0 1533 -4 1420 58 1478 56 53 7 51 1367 52 841 0 1277 -4 1302 -10z"/>
<path d="M2410 4997 c0 -24 3 -78 6 -120 l7 -77 1188 0 1189 0 0 120 0 120
-1195 0 -1195 0 0 -43z"/>
<path d="M2410 3965 l0 -595 540 0 540 0 0 595 0 595 -540 0 -540 0 0 -595z"/>
<path d="M3730 3965 l0 -595 535 0 535 0 0 595 0 595 -535 0 -535 0 0 -595z"/>
<path d="M2710 3001 c-181 -59 -236 -266 -105 -396 150 -151 399 -48 399 165
0 95 -44 169 -128 212 -43 22 -128 32 -166 19z"/>
<path d="M4380 3001 c-86 -28 -142 -84 -166 -168 -67 -231 232 -402 398 -226
138 146 46 383 -156 399 -28 2 -62 0 -76 -5z"/>
</g>
</svg>
