<svg width="33" height="33" viewBox="0 0 33 33" fill="none" xmlns="http://www.w3.org/2000/svg">
<circle cx="16.5" cy="16.5" r="15.5" fill="white" stroke="#F2F2F2"/>
<path d="M15.6499 8.6754C16.7625 8.44209 17.9114 8.44153 19.0242 8.67375C19.0984 9.16311 19.2818 9.62947 19.561 10.0382C19.8402 10.4468 20.2079 10.7874 20.6367 11.0344C21.0653 11.2823 21.5442 11.4304 22.0379 11.4676C22.5315 11.5049 23.0273 11.4304 23.4882 11.2497C24.2456 12.0976 24.8193 13.0932 25.1733 14.1737C24.7867 14.4826 24.4747 14.8747 24.2605 15.3208C24.0463 15.7669 23.9354 16.2556 23.936 16.7504C23.9355 17.2454 24.0465 17.7342 24.261 18.1803C24.4755 18.6265 24.7879 19.0185 25.1749 19.3272C24.8189 20.4067 24.2444 21.4015 23.4873 22.2495C23.0265 22.0689 22.531 21.9945 22.0375 22.0317C21.544 22.069 21.0652 22.217 20.6367 22.4648C20.2082 22.7117 19.8408 23.052 19.5618 23.4604C19.2828 23.8688 19.0993 24.3348 19.025 24.8238C17.9125 25.0576 16.7637 25.0588 15.6507 24.8271C15.5769 24.3373 15.3936 23.8704 15.1144 23.4613C14.8352 23.0521 14.4674 22.7112 14.0382 22.464C13.6096 22.2162 13.1306 22.0683 12.637 22.0311C12.1433 21.994 11.6476 22.0686 11.1868 22.2495C10.4292 21.4013 9.8555 20.4055 9.50165 19.3247C9.88799 19.0159 10.1998 18.6241 10.414 18.1783C10.6282 17.7325 10.7392 17.2442 10.7389 16.7496C10.7393 16.2546 10.6281 15.7659 10.4136 15.3198C10.1991 14.8737 9.88686 14.4816 9.5 14.1728C9.85605 13.0933 10.4305 12.0985 11.1876 11.2505C11.6484 11.4311 12.1439 11.5055 12.6375 11.4683C13.131 11.431 13.6097 11.283 14.0382 11.0352C14.4667 10.7883 14.8341 10.448 15.1131 10.0396C15.3921 9.6312 15.5756 9.16522 15.6499 8.67623V8.6754ZM17.3375 19.2249C17.9937 19.2249 18.6231 18.9642 19.0872 18.5001C19.5512 18.0361 19.8119 17.4067 19.8119 16.7504C19.8119 16.0941 19.5512 15.4648 19.0872 15.0007C18.6231 14.5366 17.9937 14.2759 17.3375 14.2759C16.6812 14.2759 16.0518 14.5366 15.5877 15.0007C15.1237 15.4648 14.863 16.0941 14.863 16.7504C14.863 17.4067 15.1237 18.0361 15.5877 18.5001C16.0518 18.9642 16.6812 19.2249 17.3375 19.2249Z" fill="#2A2D3A"/>
<path d="M15.6499 8.6754C16.7625 8.44209 17.9114 8.44153 19.0242 8.67375C19.0984 9.16311 19.2818 9.62947 19.561 10.0382C19.8402 10.4468 20.2079 10.7874 20.6367 11.0344C21.0653 11.2823 21.5442 11.4304 22.0379 11.4676C22.5315 11.5049 23.0273 11.4304 23.4882 11.2497C24.2456 12.0976 24.8193 13.0932 25.1733 14.1737C24.7867 14.4826 24.4747 14.8747 24.2605 15.3208C24.0463 15.7669 23.9354 16.2556 23.936 16.7504C23.9355 17.2454 24.0465 17.7342 24.261 18.1803C24.4755 18.6265 24.7879 19.0185 25.1749 19.3272C24.8189 20.4067 24.2444 21.4015 23.4873 22.2495C23.0265 22.0689 22.531 21.9945 22.0375 22.0317C21.544 22.069 21.0652 22.217 20.6367 22.4648C20.2082 22.7117 19.8408 23.052 19.5618 23.4604C19.2828 23.8688 19.0993 24.3348 19.025 24.8238C17.9125 25.0576 16.7637 25.0588 15.6507 24.8271C15.5769 24.3373 15.3936 23.8704 15.1144 23.4613C14.8352 23.0521 14.4674 22.7112 14.0382 22.464C13.6096 22.2162 13.1306 22.0683 12.637 22.0311C12.1433 21.994 11.6476 22.0686 11.1868 22.2495C10.4292 21.4013 9.8555 20.4055 9.50165 19.3247C9.88799 19.0159 10.1998 18.6241 10.414 18.1783C10.6282 17.7325 10.7392 17.2442 10.7389 16.7496C10.7393 16.2546 10.6281 15.7659 10.4136 15.3198C10.1991 14.8737 9.88686 14.4816 9.5 14.1728C9.85605 13.0933 10.4305 12.0985 11.1876 11.2505C11.6484 11.4311 12.1439 11.5055 12.6375 11.4683C13.131 11.431 13.6097 11.283 14.0382 11.0352C14.4667 10.7883 14.8341 10.448 15.1131 10.0396C15.3921 9.6312 15.5756 9.16522 15.6499 8.67623V8.6754ZM17.3375 19.2249C17.9937 19.2249 18.6231 18.9642 19.0872 18.5001C19.5512 18.0361 19.8119 17.4067 19.8119 16.7504C19.8119 16.0941 19.5512 15.4648 19.0872 15.0007C18.6231 14.5366 17.9937 14.2759 17.3375 14.2759C16.6812 14.2759 16.0518 14.5366 15.5877 15.0007C15.1237 15.4648 14.863 16.0941 14.863 16.7504C14.863 17.4067 15.1237 18.0361 15.5877 18.5001C16.0518 18.9642 16.6812 19.2249 17.3375 19.2249Z" fill="#A0A3B7" fill-opacity="0.2"/>
</svg>
