<svg width="145" height="145" viewBox="0 0 145 145" fill="none" xmlns="http://www.w3.org/2000/svg">
<circle cx="72.5001" cy="72.3953" r="72.2093" fill="#D2E1FF"/>
<path d="M83.5824 48.9776C83.5824 51.7039 82.4993 54.3186 80.5715 56.2465C78.6437 58.1743 76.0289 59.2573 73.3026 59.2573C70.5762 59.2573 67.9615 58.1743 66.0337 56.2465C64.1058 54.3186 63.0228 51.7039 63.0228 48.9776C63.0228 46.2512 64.1058 43.6365 66.0337 41.7086C67.9615 39.7808 70.5762 38.6978 73.3026 38.6978C76.0289 38.6978 78.6437 39.7808 80.5715 41.7086C82.4993 43.6365 83.5824 46.2512 83.5824 48.9776ZM104.142 51.0335C104.142 53.2146 103.276 55.3064 101.733 56.8486C100.191 58.3909 98.0992 59.2573 95.9181 59.2573C93.737 59.2573 91.6453 58.3909 90.103 56.8486C88.5607 55.3064 87.6943 53.2146 87.6943 51.0335C87.6943 48.8524 88.5607 46.7606 90.103 45.2184C91.6453 43.6761 93.737 42.8097 95.9181 42.8097C98.0992 42.8097 100.191 43.6761 101.733 45.2184C103.276 46.7606 104.142 48.8524 104.142 51.0335ZM50.687 59.2573C52.8681 59.2573 54.9599 58.3909 56.5022 56.8486C58.0444 55.3064 58.9109 53.2146 58.9109 51.0335C58.9109 48.8524 58.0444 46.7606 56.5022 45.2184C54.9599 43.6761 52.8681 42.8097 50.687 42.8097C48.5059 42.8097 46.4142 43.6761 44.8719 45.2184C43.3296 46.7606 42.4632 48.8524 42.4632 51.0335C42.4632 53.2146 43.3296 55.3064 44.8719 56.8486C46.4142 58.3909 48.5059 59.2573 50.687 59.2573ZM56.8549 68.5092C56.8549 65.6719 59.1576 63.3693 61.9948 63.3693H84.6104C87.4476 63.3693 89.7502 65.6719 89.7502 68.5092V88.0408C89.7502 92.403 88.0174 96.5865 84.9328 99.671C81.8483 102.756 77.6648 104.488 73.3026 104.488C68.9404 104.488 64.7568 102.756 61.6723 99.671C58.5878 96.5865 56.8549 92.403 56.8549 88.0408V68.5092ZM52.743 68.5092C52.743 66.6053 53.3187 64.8413 54.3014 63.3693H45.5471C42.7099 63.3693 40.4072 65.6719 40.4072 68.5092V83.9289C40.407 85.6892 40.7836 87.4293 41.5117 89.0321C42.2398 90.6348 43.3024 92.0632 44.6283 93.2212C45.9542 94.3793 47.5126 95.2401 49.1988 95.7458C50.8849 96.2516 52.6598 96.3907 54.4042 96.1536C53.3041 93.5906 52.7388 90.8299 52.743 88.0408V68.5092ZM93.8622 88.0408C93.8622 90.9191 93.2701 93.6659 92.201 96.1536C93.9453 96.3907 95.7202 96.2516 97.4064 95.7458C99.0925 95.2401 100.651 94.3793 101.977 93.2212C103.303 92.0632 104.365 90.6348 105.093 89.0321C105.822 87.4293 106.198 85.6892 106.198 83.9289V68.5092C106.198 65.6719 103.895 63.3693 101.058 63.3693H92.3037C93.2906 64.8413 93.8622 66.6053 93.8622 68.5092V88.0408Z" fill="#2A70FA"/>
</svg>
