<svg width="33" height="33" viewBox="0 0 33 33" fill="none" xmlns="http://www.w3.org/2000/svg">
<circle cx="16.5" cy="16.5" r="15.5" fill="white" stroke="#F2F2F2"/>
<path d="M21.5 10.5C21.8978 10.5 22.2794 10.658 22.5607 10.9393C22.842 11.2206 23 11.6022 23 12C23 12.4142 22.6642 12.75 22.25 12.75H18.5C17.5054 12.75 16.5516 13.1451 15.8483 13.8483C15.1451 14.5516 14.75 15.5054 14.75 16.5C14.75 17.4946 15.1451 18.4484 15.8483 19.1517C16.5516 19.8549 17.5054 20.25 18.5 20.25H22.25C22.6642 20.25 23 20.5858 23 21C23 21.3978 22.842 21.7794 22.5607 22.0607C22.2794 22.342 21.8978 22.5 21.5 22.5H11C10.6022 22.5 10.2206 22.342 9.93934 22.0607C9.65804 21.7794 9.5 21.3978 9.5 21V12C9.5 11.6022 9.65804 11.2206 9.93934 10.9393C10.2206 10.658 10.6022 10.5 11 10.5H21.5ZM22.25 14.25C22.6478 14.25 23.0294 14.408 23.3107 14.6893C23.592 14.9706 23.75 15.3522 23.75 15.75V17.25C23.75 17.6478 23.592 18.0294 23.3107 18.3107C23.0294 18.592 22.6478 18.75 22.25 18.75H18.5C17.9033 18.75 17.331 18.5129 16.909 18.091C16.4871 17.669 16.25 17.0967 16.25 16.5C16.25 15.9033 16.4871 15.331 16.909 14.909C17.331 14.4871 17.9033 14.25 18.5 14.25H22.25ZM18.5 15.75C18.3011 15.75 18.1103 15.829 17.9697 15.9697C17.829 16.1103 17.75 16.3011 17.75 16.5C17.75 16.6989 17.829 16.8897 17.9697 17.0303C18.1103 17.171 18.3011 17.25 18.5 17.25C18.6989 17.25 18.8897 17.171 19.0303 17.0303C19.171 16.8897 19.25 16.6989 19.25 16.5C19.25 16.3011 19.171 16.1103 19.0303 15.9697C18.8897 15.829 18.6989 15.75 18.5 15.75Z" fill="#2A2D3A"/>
<path d="M21.5 10.5C21.8978 10.5 22.2794 10.658 22.5607 10.9393C22.842 11.2206 23 11.6022 23 12C23 12.4142 22.6642 12.75 22.25 12.75H18.5C17.5054 12.75 16.5516 13.1451 15.8483 13.8483C15.1451 14.5516 14.75 15.5054 14.75 16.5C14.75 17.4946 15.1451 18.4484 15.8483 19.1517C16.5516 19.8549 17.5054 20.25 18.5 20.25H22.25C22.6642 20.25 23 20.5858 23 21C23 21.3978 22.842 21.7794 22.5607 22.0607C22.2794 22.342 21.8978 22.5 21.5 22.5H11C10.6022 22.5 10.2206 22.342 9.93934 22.0607C9.65804 21.7794 9.5 21.3978 9.5 21V12C9.5 11.6022 9.65804 11.2206 9.93934 10.9393C10.2206 10.658 10.6022 10.5 11 10.5H21.5ZM22.25 14.25C22.6478 14.25 23.0294 14.408 23.3107 14.6893C23.592 14.9706 23.75 15.3522 23.75 15.75V17.25C23.75 17.6478 23.592 18.0294 23.3107 18.3107C23.0294 18.592 22.6478 18.75 22.25 18.75H18.5C17.9033 18.75 17.331 18.5129 16.909 18.091C16.4871 17.669 16.25 17.0967 16.25 16.5C16.25 15.9033 16.4871 15.331 16.909 14.909C17.331 14.4871 17.9033 14.25 18.5 14.25H22.25ZM18.5 15.75C18.3011 15.75 18.1103 15.829 17.9697 15.9697C17.829 16.1103 17.75 16.3011 17.75 16.5C17.75 16.6989 17.829 16.8897 17.9697 17.0303C18.1103 17.171 18.3011 17.25 18.5 17.25C18.6989 17.25 18.8897 17.171 19.0303 17.0303C19.171 16.8897 19.25 16.6989 19.25 16.5C19.25 16.3011 19.171 16.1103 19.0303 15.9697C18.8897 15.829 18.6989 15.75 18.5 15.75Z" fill="#A0A3B7" fill-opacity="0.2"/>
</svg>
